<svg xmlns="http://www.w3.org/2000/svg" width="14" height="14" viewBox="0 0 14 14"><path d="M7.125 13.25q0-.125-.125-.125-.46 0-.793-.332T5.875 12q0-.125-.125-.125T5.625 12q0 .57.402.973t.973.402q.125 0 .125-.125zM13.5 11q0 .406-.297.703T12.5 12H9q0 .828-.586 1.414T7 14t-1.414-.586T5 12H1.5q-.406 0-.703-.297T.5 11q.39-.328.71-.688t.665-.934.582-1.238.39-1.61T3 4.5q0-1.187.914-2.207t2.398-1.238Q6.25.907 6.25.75q0-.312.22-.53T7 0t.53.22.22.53q0 .156-.062.305 1.484.22 2.398 1.238T11 4.5q0 1.086.152 2.03t.39 1.61.583 1.238.664.934.71.688z"/></svg>