<?xml version="1.0" encoding="utf-8"?><!DOCTYPE svg PUBLIC "-//W3C//DTD SVG 1.1//EN" "http://www.w3.org/Graphics/SVG/1.1/DTD/svg11.dtd"><svg xmlns="http://www.w3.org/2000/svg" width="16" height="16" viewBox="0 0 16 16"><path d="M8 0a8 8 0 1 0 0 16A8 8 0 0 0 8 0zm1 5.946c.033-.74.707-1.234 1.276-1.518.543-.27 1.08-.407 1.102-.413a.5.5 0 0 1 .242.97c-.275.07-.602.19-.89.334A.998.998 0 0 1 9.998 7a1 1 0 0 1-1-1c0-.018 0-.036.002-.054zM4.016 4.38a.5.5 0 0 1 .606-.365c.024.006.56.14 1.103.413.568.284 1.243.776 1.275 1.518L7 6a1 1 0 1 1-1.732-.68 4.638 4.638 0 0 0-.89-.335.5.5 0 0 1-.364-.606zm6.987 7.82a3.5 3.5 0 0 0-6.004 0l-1.286-.773C4.586 9.973 6.18 9 8 9s3.414.973 4.288 2.427l-1.286.772z"/></svg>