<?xml version="1.0" encoding="utf-8"?><!DOCTYPE svg PUBLIC "-//W3C//DTD SVG 1.1//EN" "http://www.w3.org/Graphics/SVG/1.1/DTD/svg11.dtd"><svg xmlns="http://www.w3.org/2000/svg" width="16" height="16" viewBox="0 0 16 16"><path d="M10.404 5.11L9.39 4.096 4.313 9.17a2.152 2.152 0 0 0 3.045 3.044l6.09-6.09A3.588 3.588 0 1 0 8.374 1.05L1.98 7.446l-.014.013C.01 9.412.01 12.58 1.966 14.534s5.123 1.954 7.078 0l.013-.014 4.366-4.363-1.015-1.014-4.365 4.363-.013.013c-1.392 1.39-3.656 1.39-5.048 0a3.572 3.572 0 0 1 .014-5.06v-.002L9.39 2.065c.84-.84 2.205-.84 3.045 0s.84 2.205 0 3.044l-6.09 6.088a.718.718 0 1 1-1.015-1.014l5.075-5.075z"/></svg>