<?xml version="1.0" encoding="utf-8"?><!DOCTYPE svg PUBLIC "-//W3C//DTD SVG 1.1//EN" "http://www.w3.org/Graphics/SVG/1.1/DTD/svg11.dtd"><svg xmlns="http://www.w3.org/2000/svg" width="16" height="16" viewBox="0 0 16 16"><path d="M1 0h6v1H1zm8 0h6v1H9zm5.875 5H14V1h-4v4H6V1H2v4h-.875C.505 5 0 5.506 0 6.125v8.75C0 15.495.506 16 1.125 16h4.75C6.495 16 7 15.494 7 14.875V9h2v5.875c0 .62.506 1.125 1.125 1.125h4.75c.62 0 1.125-.506 1.125-1.125v-8.75C16 5.505 15.494 5 14.875 5zM5.438 15H1.563c-.31 0-.563-.225-.563-.5s.253-.5.563-.5h3.875c.31 0 .563.225.563.5s-.252.5-.562.5zM8.5 8h-1c-.275 0-.5-.225-.5-.5s.225-.5.5-.5h1c.275 0 .5.225.5.5s-.225.5-.5.5zm5.938 7h-3.875c-.31 0-.563-.225-.563-.5s.253-.5.563-.5h3.875c.31 0 .563.225.563.5s-.252.5-.562.5z"/></svg>