<?xml version="1.0" encoding="utf-8"?><!DOCTYPE svg PUBLIC "-//W3C//DTD SVG 1.1//EN" "http://www.w3.org/Graphics/SVG/1.1/DTD/svg11.dtd"><svg xmlns="http://www.w3.org/2000/svg" width="16" height="16" viewBox="0 0 16 16"><path d="M14.966 6h-.897c-.55 0-1.032-.465-1.07-1 0-2.854-2.3-5-5.175-5H5.203C2.33 0 .003 2.313 0 5.167v5.67C0 13.69 2.33 16 5.203 16h5.6C13.677 16 16 13.69 16 10.837V7.174C16 6.604 15.54 6 14.966 6zM5 4h3c.55 0 1 .45 1 1s-.45 1-1 1H5c-.55 0-1-.45-1-1s.45-1 1-1zm6 8H5c-.55 0-1-.45-1-1s.45-1 1-1h6c.55 0 1 .45 1 1s-.45 1-1 1z"/></svg>