<?xml version="1.0" encoding="utf-8"?><!DOCTYPE svg PUBLIC "-//W3C//DTD SVG 1.1//EN" "http://www.w3.org/Graphics/SVG/1.1/DTD/svg11.dtd"><svg xmlns="http://www.w3.org/2000/svg" width="18" height="16" viewBox="0 0 18 16"><path d="M17 14.08c0 .712.407 1.328 1 1.63v.248a3.71 3.71 0 0 1-3.207-1.125A5.03 5.03 0 0 1 13.5 15C11.015 15 9 13.21 9 11s2.015-4 4.5-4S18 8.793 18 11a3.69 3.69 0 0 1-.834 2.32 1.81 1.81 0 0 0-.166.762zM8 0c4.35 0 7.89 2.822 7.997 6.336a6.123 6.123 0 0 0-2.497-.524c-1.493 0-2.903.523-3.97 1.472C8.42 8.268 7.81 9.588 7.81 11a4.8 4.8 0 0 0 .433 1.997 10.09 10.09 0 0 1-1.493-.076C5.034 14.64 2.982 14.95 1 14.994v-.42c1.07-.526 2-1.48 2-2.573a3.01 3.01 0 0 0-.035-.448C1.155 10.36 0 8.54 0 6.5 0 2.91 3.58 0 8 0z"/></svg>