<?xml version="1.0" encoding="utf-8"?><!DOCTYPE svg PUBLIC "-//W3C//DTD SVG 1.1//EN" "http://www.w3.org/Graphics/SVG/1.1/DTD/svg11.dtd"><svg xmlns="http://www.w3.org/2000/svg" width="16" height="16" viewBox="0 0 16 16"><path d="M16 9V8h-3.02a5.785 5.785 0 0 0-1.12-3.004h2.53l1.095-4.38-.97-.242-.905 3.62h-2.73l-.04-.03A2.996 2.996 0 0 0 8 0a2.996 2.996 0 0 0-2.84 3.964c-.013.01-.027.02-.04.032H2.39L1.487.375l-.97.242 1.095 4.38h2.53A5.785 5.785 0 0 0 3.022 8H.002v1h3.02c.06.713.243 1.388.527 1.996H1.61l-1.095 4.38.97.242.905-3.62h1.756c.917 1.218 2.303 1.995 3.854 1.995s2.937-.777 3.854-1.996h1.756l.905 3.62.97-.242-1.095-4.38h-1.937A5.903 5.903 0 0 0 12.98 9h3.022z"/></svg>