<?xml version="1.0" encoding="utf-8"?><!DOCTYPE svg PUBLIC "-//W3C//DTD SVG 1.1//EN" "http://www.w3.org/Graphics/SVG/1.1/DTD/svg11.dtd"><svg xmlns="http://www.w3.org/2000/svg" width="16" height="16" viewBox="0 0 16 16"><path d="M4.036 6.977L1.746 3.01A7.986 7.986 0 0 1 8 0c2.93 0 5.49 1.573 6.883 3.92H8.355a4.1 4.1 0 0 0-4.32 3.055zm6.828-1.9h4.585C15.803 5.984 16 6.97 16 8a8 8 0 0 1-7.91 8l3.273-5.668c.46-.662.73-1.466.73-2.332a4.08 4.08 0 0 0-1.23-2.922zM5.094 8c0-1.603 1.304-2.906 2.906-2.906S10.906 6.398 10.906 8 9.602 10.906 8 10.906 5.094 9.602 5.094 8zm4.003 3.944l-2.29 3.967A8 8 0 0 1 1.027 4.08l3.266 5.657a4.1 4.1 0 0 0 4.804 2.21z"/></svg>