<?xml version="1.0" encoding="utf-8"?><!DOCTYPE svg PUBLIC "-//W3C//DTD SVG 1.1//EN" "http://www.w3.org/Graphics/SVG/1.1/DTD/svg11.dtd"><svg xmlns="http://www.w3.org/2000/svg" width="16" height="16" viewBox="0 0 16 16"><path d="M14.777 5.75l-7-4.666a.5.5 0 0 0-.555 0l-7 4.667A.5.5 0 0 0 0 6.168v4.667a.5.5 0 0 0 .222.416l7 4.667a.5.5 0 0 0 .554 0l7-4.667a.5.5 0 0 0 .223-.416V6.167a.5.5 0 0 0-.224-.416zM7.5 10.233L4.9 8.5l2.6-1.732L10.1 8.5l-2.6 1.732zM8 5.9V2.433l5.6 3.732L11 7.898l-3-2zm-1 0l-3 2-2.6-1.733L7 2.435V5.9zM3.1 8.5L1 9.9V7.1l2.1 1.4zm.9.6l3 2v3.466l-5.6-3.732L4 9.102zm4 2l3-2 2.6 1.733L8 14.565V11.1zm3.9-2.6L14 7.1v2.8l-2.1-1.4z"/></svg>