<?xml version="1.0" encoding="utf-8"?><!DOCTYPE svg PUBLIC "-//W3C//DTD SVG 1.1//EN" "http://www.w3.org/Graphics/SVG/1.1/DTD/svg11.dtd"><svg xmlns="http://www.w3.org/2000/svg" width="16" height="16" viewBox="0 0 16 16"><path d="M5.683 11.282l.645-.903-.707-.708-.902.645a2.515 2.515 0 0 0-.535-.222L4 9H3l-.183 1.095a2.444 2.444 0 0 0-.535.222l-.903-.645-.708.707.645.902a2.515 2.515 0 0 0-.222.535L0 12v1l1.095.183c.053.188.128.368.222.535l-.645.903.707.708.902-.645c.168.094.347.168.535.222L3 16h1l.183-1.095c.188-.053.368-.128.535-.222l.903.645.708-.707-.645-.902c.094-.168.168-.347.222-.535L7 13v-1l-1.095-.182a2.444 2.444 0 0 0-.222-.535zM3.5 13.5a1 1 0 1 1 0-2 1 1 0 0 1 0 2zM16 6V5l-1.053-.19a4.147 4.147 0 0 0-.074-.373l.9-.58-.384-.924-1.047.226a4.432 4.432 0 0 0-.21-.316l.608-.88-.706-.707-.88.61a4.8 4.8 0 0 0-.315-.212L13.064.61 12.14.225l-.58.9a4.53 4.53 0 0 0-.37-.075L10.997 0h-1l-.19 1.053c-.127.02-.25.045-.373.075l-.58-.9L7.93.61l.227 1.045a4.432 4.432 0 0 0-.315.21l-.88-.608-.707.707.61.88a4.8 4.8 0 0 0-.212.315l-1.046-.227-.383.924.9.58a4.53 4.53 0 0 0-.075.372L4.995 5v1l1.053.19c.018.127.043.25.073.373l-.9.58.384.924 1.046-.226c.066.11.136.214.21.316l-.608.88.707.707.88-.61a4.8 4.8 0 0 0 .315.212L7.93 10.39l.925.384.58-.9c.122.03.246.055.372.075L9.997 11h1l.192-1.053c.125-.02.25-.045.37-.075l.58.9.925-.384-.226-1.045c.107-.066.212-.136.314-.21l.88.608.707-.707-.608-.88a4.8 4.8 0 0 0 .21-.315l1.047.227.382-.924-.9-.58a4.53 4.53 0 0 0 .075-.372L16 6zm-5.5 1.675a2.175 2.175 0 1 1 0-4.35 2.175 2.175 0 0 1 0 4.35z"/></svg>