<?xml version="1.0" encoding="utf-8"?><!DOCTYPE svg PUBLIC "-//W3C//DTD SVG 1.1//EN" "http://www.w3.org/Graphics/SVG/1.1/DTD/svg11.dtd"><svg xmlns="http://www.w3.org/2000/svg" width="20" height="16" viewBox="0 0 20 16"><path d="M10 9c1.654 0 3.154.673 4.24 1.76l-1.413 1.413C12.103 11.45 11.103 11 10 11s-2.103.45-2.827 1.173L5.76 10.76A5.982 5.982 0 0 1 10 9zM2.93 7.93C4.817 6.04 7.33 5 10 5s5.182 1.04 7.07 2.93l-1.413 1.413C14.147 7.833 12.137 7 10 7s-4.146.832-5.657 2.343L2.93 7.93zM15.45 2.1a13.966 13.966 0 0 1 4.45 3l-1.414 1.415C16.22 4.25 13.206 3 10 3S3.783 4.248 1.517 6.515L.102 5.1a13.955 13.955 0 0 1 9.9-4.1c1.89 0 3.723.37 5.45 1.1zM9 14a1 1 0 1 1 2 0 1 1 0 0 1-2 0z"/></svg>