<?xml version="1.0" encoding="utf-8"?><!DOCTYPE svg PUBLIC "-//W3C//DTD SVG 1.1//EN" "http://www.w3.org/Graphics/SVG/1.1/DTD/svg11.dtd"><svg xmlns="http://www.w3.org/2000/svg" width="16" height="16" viewBox="0 0 16 16"><path d="M8 0a8 8 0 1 0 0 16A8 8 0 0 0 8 0zm0 13c-.757 0-1.475-.17-2.118-.47l.518-.864a3.996 3.996 0 0 0 5.03-1.608l.858.515A4.996 4.996 0 0 1 8 13zm5-7c0 .55-.45 1-1 1h-2c-.55 0-1-.45-1-1H7c0 .55-.45 1-1 1H4c-.55 0-1-.45-1-1V4.5a.5.5 0 0 1 .5-.5h3a.5.5 0 0 1 .5.5V5h2v-.5a.5.5 0 0 1 .5-.5h3a.5.5 0 0 1 .5.5V6z"/></svg>