<?xml version="1.0" encoding="utf-8"?><!DOCTYPE svg PUBLIC "-//W3C//DTD SVG 1.1//EN" "http://www.w3.org/Graphics/SVG/1.1/DTD/svg11.dtd"><svg xmlns="http://www.w3.org/2000/svg" width="16" height="16" viewBox="0 0 16 16"><path d="M8 0C3.582 0 0 1.12 0 2.5v2C0 5.88 3.582 7 8 7s8-1.12 8-2.5v-2C16 1.12 12.418 0 8 0z"/><path d="M8 8.5C3.582 8.5 0 7.38 0 6v3c0 1.38 3.582 2.5 8 2.5s8-1.12 8-2.5V6c0 1.38-3.582 2.5-8 2.5z"/><path d="M8 13c-4.418 0-8-1.12-8-2.5v3C0 14.88 3.582 16 8 16s8-1.12 8-2.5v-3c0 1.38-3.582 2.5-8 2.5z"/></svg>