<?xml version="1.0" encoding="utf-8"?><!DOCTYPE svg PUBLIC "-//W3C//DTD SVG 1.1//EN" "http://www.w3.org/Graphics/SVG/1.1/DTD/svg11.dtd"><svg xmlns="http://www.w3.org/2000/svg" width="16" height="16" viewBox="0 0 16 16"><path d="M16 2h-2V0h-2v2h-2v2h2v2h2V4h2z"/><path d="M13.498 6.97c.288.32.55.664.782 1.03a7.594 7.594 0 0 1-2.335 2.348 7.326 7.326 0 0 1-7.89 0A7.626 7.626 0 0 1 1.722 8a7.594 7.594 0 0 1 2.52-2.462A4 4 0 1 0 12 6.908v-.033a4.002 4.002 0 0 1-3-3.817A8.94 8.94 0 0 0 8 3C4.51 3 1.486 5.034 0 8c1.486 2.97 4.51 5 8 5s6.514-2.03 8-5a9.217 9.217 0 0 0-.98-1.547c-.456.268-.972.45-1.522.517zM6.5 5a1.5 1.5 0 1 1 0 3 1.5 1.5 0 0 1 0-3z"/></svg>