<?xml version="1.0" encoding="utf-8"?><!DOCTYPE svg PUBLIC "-//W3C//DTD SVG 1.1//EN" "http://www.w3.org/Graphics/SVG/1.1/DTD/svg11.dtd"><svg xmlns="http://www.w3.org/2000/svg" width="16" height="16" viewBox="0 0 16 16"><path d="M8 3C4.51 3 1.486 5.032 0 8c1.486 2.968 4.51 5 8 5s6.514-2.032 8-5c-1.486-2.968-4.51-5-8-5zm3.945 2.652c.94.6 1.737 1.403 2.335 2.348a7.594 7.594 0 0 1-2.335 2.348 7.326 7.326 0 0 1-7.89 0A7.615 7.615 0 0 1 1.722 8a7.594 7.594 0 0 1 2.52-2.462 4 4 0 1 0 7.518 0c.063.037.125.075.186.114zM8 6.5a1.5 1.5 0 1 1-3 0 1.5 1.5 0 0 1 3 0z"/></svg>