<?xml version="1.0" encoding="utf-8"?><!DOCTYPE svg PUBLIC "-//W3C//DTD SVG 1.1//EN" "http://www.w3.org/Graphics/SVG/1.1/DTD/svg11.dtd"><svg xmlns="http://www.w3.org/2000/svg" width="16" height="16" viewBox="0 0 16 16"><path d="M13.156 9.21c-.213-.21-.686-.32-1.406-.33a11.754 11.754 0 0 0-1.69.124c-.276-.16-.56-.333-.784-.542-.6-.56-1.103-1.34-1.415-2.197.02-.08.04-.15.055-.222 0 0 .34-1.923.25-2.573a.73.73 0 0 0-.045-.184l-.03-.076c-.09-.212-.272-.437-.555-.425l-.17-.005c-.317 0-.574.16-.64.403-.206.757.006 1.89.39 3.355l-.1.24c-.274.67-.618 1.344-.922 1.94l-.04.076c-.32.626-.61 1.157-.873 1.607l-.27.145c-.02.01-.486.257-.595.323-.926.553-1.54 1.18-1.64 1.678-.033.16-.01.362.155.456l.263.132a.792.792 0 0 0 .357.086c.66 0 1.425-.82 2.48-2.662a24.79 24.79 0 0 1 3.82-.908c.925.52 2.064.883 2.782.883.128 0 .238-.012.327-.036a.558.558 0 0 0 .324-.222c.14-.21.168-.5.13-.795a.53.53 0 0 0-.157-.27zm-9.85 3.51c.12-.33.597-.98 1.3-1.556.045-.036.154-.138.254-.233-.736 1.175-1.23 1.643-1.553 1.79zm4.17-9.6c.212 0 .333.534.343 1.035s-.108.853-.253 1.113c-.12-.385-.18-.992-.18-1.39 0 0-.008-.758.09-.758zM6.232 9.96c.148-.263.3-.542.458-.838.383-.724.624-1.29.804-1.755.358.65.804 1.205 1.328 1.65.065.054.135.11.207.165-1.067.21-1.988.467-2.8.78zm6.72-.06c-.065.042-.25.065-.37.065-.386 0-.864-.176-1.533-.464.256-.018.492-.028.704-.028.387 0 .502-.002.88.095s.383.293.318.333z"/><path d="M14.34 3.58c-.346-.474-.83-1.028-1.36-1.56S11.893 1.007 11.42.66C10.616.067 10.225 0 10 0H2.25C1.56 0 1 .56 1 1.25v13.5c0 .69.56 1.25 1.25 1.25h11.5c.69 0 1.25-.56 1.25-1.25V5c0-.224-.068-.615-.66-1.42zm-2.07-.85c.48.48.857.91 1.135 1.27H11V1.595c.358.278.79.654 1.27 1.134zM14 14.75c0 .136-.114.25-.25.25H2.25a.253.253 0 0 1-.25-.25V1.25c0-.135.115-.25.25-.25H10v3.5a.5.5 0 0 0 .5.5H14v9.75z"/></svg>