<?xml version="1.0" encoding="utf-8"?><!DOCTYPE svg PUBLIC "-//W3C//DTD SVG 1.1//EN" "http://www.w3.org/Graphics/SVG/1.1/DTD/svg11.dtd"><svg xmlns="http://www.w3.org/2000/svg" width="16" height="16" viewBox="0 0 16 16"><path d="M5.743 0C1.94 0 0 2.19 0 6.28v8.578l3.725-3.73V6.772c0-1.693.45-2.77 1.955-3.013.526-.103 1.62-.067 2.317-.067v2.587c0 .024.003.066.01.087.028.105.123.18.235.182.063 0 .123-.033.184-.093L14.88 0H5.743zm6.532 4.87v4.36c0 1.693-.45 2.77-1.955 3.013-.526.103-1.62.067-2.317.067V9.723a.414.414 0 0 0-.01-.087.246.246 0 0 0-.235-.182c-.064 0-.123.033-.184.093L1.12 16h9.138C14.06 16 16 13.81 16 9.723v-8.58l-3.724 3.73z"/></svg>