<?xml version="1.0" encoding="utf-8"?><!DOCTYPE svg PUBLIC "-//W3C//DTD SVG 1.1//EN" "http://www.w3.org/Graphics/SVG/1.1/DTD/svg11.dtd"><svg xmlns="http://www.w3.org/2000/svg" width="16" height="16" viewBox="0 0 16 16"><path d="M8.16 6.856V9.6h4.536c-.184 1.178-1.372 3.45-4.537 3.45-2.732 0-4.96-2.262-4.96-5.05s2.228-5.05 4.96-5.05c1.552 0 2.593.663 3.187 1.234l2.172-2.09C12.124.786 10.32-.002 8.16-.002c-4.422 0-8 3.577-8 8s3.578 8 8 8c4.616 0 7.68-3.248 7.68-7.817 0-.525-.055-.925-.124-1.325L8.16 6.855z"/></svg>