<?xml version="1.0" encoding="utf-8"?><!DOCTYPE svg PUBLIC "-//W3C//DTD SVG 1.1//EN" "http://www.w3.org/Graphics/SVG/1.1/DTD/svg11.dtd"><svg xmlns="http://www.w3.org/2000/svg" width="16" height="16" viewBox="0 0 16 16"><path d="M14.5 0h-13C.675 0 0 .675 0 1.5v13c0 .825.675 1.5 1.5 1.5h13c.825 0 1.5-.675 1.5-1.5v-13c0-.825-.675-1.5-1.5-1.5zM8.12 14c-3.317 0-6-2.684-6-6s2.683-6 6-6c1.618 0 2.974.59 4.018 1.57L10.51 5.137c-.447-.428-1.225-.925-2.39-.925C6.07 4.213 4.4 5.91 4.4 8s1.672 3.787 3.72 3.787c2.374 0 3.265-1.706 3.402-2.588H8.12V7.142h5.665c.05.3.094.6.094.994C13.88 11.565 11.584 14 8.12 14z"/></svg>