<?xml version="1.0" encoding="utf-8"?><!DOCTYPE svg PUBLIC "-//W3C//DTD SVG 1.1//EN" "http://www.w3.org/Graphics/SVG/1.1/DTD/svg11.dtd"><svg xmlns="http://www.w3.org/2000/svg" width="16" height="16" viewBox="0 0 16 16"><path d="M15.784 14.31L7.212 6.504l.4-.4a1.83 1.83 0 0 0 .53-1.18.395.395 0 0 0 .045-.024l1.61-1.005a.676.676 0 0 0-.037-.898L6.96.19a.673.673 0 0 0-.895-.035L5.06 1.77l-.02.045a1.82 1.82 0 0 0-1.18.53L2.34 3.874c-.328.327-.504.75-.53 1.18a.395.395 0 0 0-.047.024L.153 6.083a.676.676 0 0 0 .037.898l2.8 2.807c.236.238.64.254.895.036L4.89 8.21l.022-.047a1.82 1.82 0 0 0 1.178-.53l.442-.444 7.783 8.595c.226.25.573.29.773.09l.787-.79c.2-.2.16-.55-.09-.775z"/></svg>