<?xml version="1.0" encoding="utf-8"?><!DOCTYPE svg PUBLIC "-//W3C//DTD SVG 1.1//EN" "http://www.w3.org/Graphics/SVG/1.1/DTD/svg11.dtd"><svg xmlns="http://www.w3.org/2000/svg" width="16" height="16" viewBox="0 0 16 16"><path d="M8 0a8 8 0 1 0 0 16A8 8 0 0 0 8 0zm3 4c.552 0 1 .672 1 1.5S11.552 7 11 7s-1-.672-1-1.5.448-1.5 1-1.5zM5 4c.552 0 1 .672 1 1.5S5.552 7 5 7s-1-.672-1-1.5S4.448 4 5 4zm3 10c-2.607 0-4.772-2.186-5-4.973 1.465.846 3.188 1.33 5 1.33s3.535-.482 5-1.328C12.772 11.816 10.607 14 8 14z"/></svg>