<?xml version="1.0" encoding="utf-8"?><!DOCTYPE svg PUBLIC "-//W3C//DTD SVG 1.1//EN" "http://www.w3.org/Graphics/SVG/1.1/DTD/svg11.dtd"><svg xmlns="http://www.w3.org/2000/svg" width="16" height="16" viewBox="0 0 16 16"><path d="M4.5 9h-1v7h1a.5.5 0 0 0 .5-.5v-6a.5.5 0 0 0-.5-.5zM11.5 9a.5.5 0 0 0-.5.5v6a.5.5 0 0 0 .5.5h1V9h-1z"/><path d="M16 8A8 8 0 1 0 .48 10.732 3.5 3.5 0 0 0 3 15.964V9.036c-.5.07-.963.248-1.37.506a6.5 6.5 0 1 1 12.743 0A3.484 3.484 0 0 0 13 9.035v6.93a3.5 3.5 0 0 0 2.52-5.233C15.83 9.88 16 8.96 16 8z"/></svg>