<?xml version="1.0" encoding="utf-8"?><!DOCTYPE svg PUBLIC "-//W3C//DTD SVG 1.1//EN" "http://www.w3.org/Graphics/SVG/1.1/DTD/svg11.dtd"><svg xmlns="http://www.w3.org/2000/svg" width="16" height="16" viewBox="0 0 16 16"><path d="M14.5 0h-13C.675 0 0 .675 0 1.5v13c0 .825.675 1.5 1.5 1.5h13c.825 0 1.5-.675 1.5-1.5v-13c0-.825-.675-1.5-1.5-1.5zm-1.65 12.012l-5.444 1.78c-1.244.407-1.37.342-1.93-1.4L4.1 8.135c-.328-1.01-1.328-3.728-1.497-4.25-.313-.97-.313-1.022 1.516-1.616 1.43-.47 1.49-.453 2.008 1.163.42 1.3.688 2.35 1.12 3.68l1.17 3.624 3.745-1.225c.738-.245.984-.232 1.194.677l.15.688c.175.797-.228 1-.656 1.137z"/></svg>