<?xml version="1.0" encoding="utf-8"?><!DOCTYPE svg PUBLIC "-//W3C//DTD SVG 1.1//EN" "http://www.w3.org/Graphics/SVG/1.1/DTD/svg11.dtd"><svg xmlns="http://www.w3.org/2000/svg" width="16" height="16" viewBox="0 0 16 16"><path d="M7.056 11.972l-.588-1.594s-.953 1.063-2.38 1.063c-1.267 0-2.164-1.1-2.164-2.858 0-2.253 1.137-3.06 2.253-3.06 1.612 0 2.125 1.045 2.566 2.382l.588 1.83c.59 1.78 1.69 3.207 4.857 3.207 2.272 0 3.813-.696 3.813-2.527 0-1.484-.844-2.253-2.42-2.622l-1.17-.255c-.807-.184-1.045-.513-1.045-1.063 0-.622.494-.99 1.3-.99.88 0 1.356.33 1.428 1.118l1.83-.22c-.146-1.65-1.283-2.327-3.152-2.327-1.65 0-3.26.622-3.26 2.622 0 1.247.605 2.034 2.124 2.4l1.247.294c.935.218 1.248.605 1.248 1.136 0 .678-.66.953-1.906.953-1.85 0-2.622-.973-3.06-2.31l-.605-1.83c-.766-2.385-1.994-3.264-4.43-3.264C1.43 4.056 0 5.76 0 8.656 0 11.44 1.43 12.943 4 12.943c2.07 0 3.06-.972 3.06-.972z"/></svg>