<?xml version="1.0" encoding="utf-8"?><!DOCTYPE svg PUBLIC "-//W3C//DTD SVG 1.1//EN" "http://www.w3.org/Graphics/SVG/1.1/DTD/svg11.dtd"><svg xmlns="http://www.w3.org/2000/svg" width="16" height="16" viewBox="0 0 16 16"><path d="M15.802 2.102C14.072.792 11.41.008 8.678.008c-3.377 0-6.13 1.18-7.55 3.235C.463 4.208.094 5.353.033 6.64c-.054 1.15.14 2.42.573 3.785C2.087 5.98 6.227 2.502 11 2.502c0 0-4.466 1.175-7.274 4.816a10.535 10.535 0 0 0-1.526 2.72A15.387 15.387 0 0 0 1 16h2s-.304-1.91.224-4.106a17.71 17.71 0 0 0 2.357.177c1.84 0 3.147-.398 4.116-1.252.868-.764 1.347-1.793 1.854-2.88.774-1.664 1.65-3.548 4.198-5.003a.5.5 0 0 0 .054-.833z"/></svg>