<?xml version="1.0" encoding="utf-8"?><!DOCTYPE svg PUBLIC "-//W3C//DTD SVG 1.1//EN" "http://www.w3.org/Graphics/SVG/1.1/DTD/svg11.dtd"><svg xmlns="http://www.w3.org/2000/svg" width="16" height="16" viewBox="0 0 16 16"><path d="M8 0a8 8 0 1 0 0 16A8 8 0 0 0 8 0zM5 8a3 3 0 1 1 6 0 3 3 0 0 1-6 0zm9.468 2.68l-2.772-1.15C11.892 9.06 12 8.543 12 8s-.108-1.06-.304-1.53l2.772-1.15C14.81 6.147 15 7.05 15 8s-.19 1.854-.532 2.68zm-3.79-9.148L9.532 4.304C9.06 4.108 8.543 4 8 4s-1.06.108-1.53.304L5.32 1.532C6.147 1.19 7.05 1 8 1s1.854.19 2.68.532zm-9.146 3.79l2.772 1.147C4.108 6.94 4 7.457 4 8s.108 1.06.304 1.53l-2.772 1.15C1.19 9.853 1 8.95 1 8s.19-1.854.532-2.68zm3.79 9.146l1.147-2.772c.47.196.988.304 1.53.304s1.06-.108 1.53-.304l1.15 2.772C9.853 14.81 8.95 15 8 15s-1.854-.19-2.68-.532z"/></svg>