<?xml version="1.0" encoding="utf-8"?><!DOCTYPE svg PUBLIC "-//W3C//DTD SVG 1.1//EN" "http://www.w3.org/Graphics/SVG/1.1/DTD/svg11.dtd"><svg xmlns="http://www.w3.org/2000/svg" width="16" height="16" viewBox="0 0 16 16"><path d="M13.364 14.335c-.183 0-1.307-.206-1.375-.458-.162-.62-.184-1.284-.184-2.04V3.384c0-1.26.252-1.994.252-1.994-.023-.115-.138-.367-.275-.367h-.07c-.068 0-.87.504-1.604.504C9.512 1.527 9.14 1 8.453 1c-2.892 0-4.25 2.35-4.25 5.672v.173c0 .07-.045.138-.114.138h-.94c-.115 0-.344.642-.344.94 0 .092.023.137.07.137H4.09c.07 0 .115.092.115.16 0 2.04-.023 4.052-.023 4.052 0 .32-.023 1.03-.16 1.605-.07.252-1.123.458-1.398.458-.115 0-.115.55 0 .665.94-.046 1.56-.115 2.5-.115.87 0 1.535.07 2.452.115.046-.138.046-.665-.07-.665-.182 0-1.306-.206-1.374-.458-.16-.62-.16-1.284-.183-2.04v-3.64c0-.068.068-.137.137-.137h2.36c.16-.32.276-.71.276-.917 0-.138 0-.16-.115-.16H6.064c-.046 0-.115-.07-.115-.115v-.825c0-2.04.835-3.837 2.233-3.837.99 0 1.854.642 1.854 3.093.003.062.005.113.005.147v6.825c0 .32-.023 1.03-.16 1.605-.07.252-1.123.458-1.398.458-.115 0-.115.55 0 .665.94-.046 1.56-.115 2.5-.115.87 0 1.535.07 2.452.115.046-.137.046-.665-.07-.665z"/></svg>