<?xml version="1.0" encoding="utf-8"?><!DOCTYPE svg PUBLIC "-//W3C//DTD SVG 1.1//EN" "http://www.w3.org/Graphics/SVG/1.1/DTD/svg11.dtd"><svg xmlns="http://www.w3.org/2000/svg" width="16" height="16" viewBox="0 0 16 16"><path d="M12 13.622v-.002l-.005-6.82-1.992.096H6.067V6.56c0-1.274.09-2.546.27-3.042.122-.343.352-.652.682-.92.32-.26.642-.392.954-.392.262 0 .48.045.647.134.236.134.465.36.683.67.577.82.812 1.037.94 1.13.215.158.476.238.775.238.292 0 .546-.11.757-.324.21-.213.315-.48.315-.792 0-.335-.14-.69-.414-1.057-.268-.358-.683-.652-1.232-.875A4.743 4.743 0 0 0 8.65 1c-.948 0-1.812.23-2.567.68A4.405 4.405 0 0 0 4.358 3.54c-.36.728-.333 2.105-.355 3.355H2.038v1.116H4v5.073c0 1.12-.342 1.422-.472 1.583-.18.22-.51.454-.944.454H1.98v.878H8v-.878h-.104c-1.424 0-1.828-.154-1.828-1.888V8.012h2.19c1.163 0 1.43.054 1.49.077.075.028.17.075.205.143.014.026.08.39.08 1.296v3.916c0 .913-.11 1.217-.178 1.32-.145.22-.32.344-.854.357v.88h4.59v-.874c-1.432 0-1.59-.154-1.59-1.506z"/></svg>