<?xml version="1.0" encoding="utf-8"?><!DOCTYPE svg PUBLIC "-//W3C//DTD SVG 1.1//EN" "http://www.w3.org/Graphics/SVG/1.1/DTD/svg11.dtd"><svg xmlns="http://www.w3.org/2000/svg" width="16" height="16" viewBox="0 0 16 16"><path d="M6.88 9.934a.81.81 0 0 1-.576-.238 3.818 3.818 0 0 1 0-5.392l3-3C10.024.584 10.982.187 12 .187s1.976.397 2.696 1.117a3.818 3.818 0 0 1 0 5.392l-1.37 1.37a.813.813 0 0 1-1.15-1.148l1.37-1.37A2.19 2.19 0 0 0 12 1.81c-.584 0-1.134.228-1.547.64l-3 3a2.19 2.19 0 0 0 0 3.095.813.813 0 0 1-.575 1.387z"/><path d="M4 15.813a3.79 3.79 0 0 1-2.696-1.117 3.818 3.818 0 0 1 0-5.392l1.37-1.37a.813.813 0 0 1 1.15 1.148l-1.37 1.37A2.19 2.19 0 0 0 4 14.19c.585 0 1.134-.228 1.547-.64l3-3a2.19 2.19 0 0 0 0-3.095.813.813 0 0 1 1.15-1.15 3.818 3.818 0 0 1 0 5.393l-3 3A3.79 3.79 0 0 1 4 15.813z"/></svg>