<?xml version="1.0" encoding="utf-8"?><!DOCTYPE svg PUBLIC "-//W3C//DTD SVG 1.1//EN" "http://www.w3.org/Graphics/SVG/1.1/DTD/svg11.dtd"><svg xmlns="http://www.w3.org/2000/svg" width="16" height="16" viewBox="0 0 16 16"><path d="M13.333 0H2.667A2.675 2.675 0 0 0 0 2.667v10.666C0 14.8 1.2 16 2.667 16h10.666C14.8 16 16 14.8 16 13.333V2.667C16 1.2 14.8 0 13.333 0zM2.853 13.854l-1.206-1.207 4-4 .457.457-3.25 4.75zm-.457-10.75l.457-.457L8 6.793l5.145-4.146.457.457-5.604 6.604-5.604-6.604zm10.75 10.75l-3.25-4.75.457-.457 4 4-1.207 1.207z"/></svg>