<?xml version="1.0" encoding="utf-8"?><!DOCTYPE svg PUBLIC "-//W3C//DTD SVG 1.1//EN" "http://www.w3.org/Graphics/SVG/1.1/DTD/svg11.dtd"><svg xmlns="http://www.w3.org/2000/svg" width="16" height="16" viewBox="0 0 16 16"><path d="M4 1.5a1.5 1.5 0 1 1-3 0 1.5 1.5 0 0 1 3 0zM13 1.5a1.5 1.5 0 1 1-3 0 1.5 1.5 0 0 1 3 0zM4 4H1a1 1 0 0 0-1 1v5h1v6h1.25v-6h.5v6H4v-6h1V5a1 1 0 0 0-1-1zM15.234 8L16 7.445l-2.083-3.22a.5.5 0 0 0-.417-.226h-4a.497.497 0 0 0-.417.224L7 7.444 7.766 8l1.73-2.244.6 1.402L8 10.998H9.92l.333 5h1v-5h.5v5h1l.334-5H15l-2.094-3.84.6-1.403L15.237 8z"/></svg>