<?xml version="1.0" encoding="utf-8"?><!DOCTYPE svg PUBLIC "-//W3C//DTD SVG 1.1//EN" "http://www.w3.org/Graphics/SVG/1.1/DTD/svg11.dtd"><svg xmlns="http://www.w3.org/2000/svg" width="16" height="16" viewBox="0 0 16 16"><path d="M16 8c0 2.37-1.03 4.5-2.67 5.963-2.052 1-3.965.3-4.596-.137 2.016-.44 3.537-2.878 3.537-5.825s-1.52-5.383-3.536-5.827c.634-.438 2.547-1.137 4.597-.138A7.99 7.99 0 0 1 16 8z"/><path d="M5.366 3.49C4.482 4.536 3.91 6.08 3.872 7.814v.378c.038 1.732.613 3.276 1.497 4.32 1.146 1.49 2.852 2.434 4.758 2.434 1.172 0 2.27-.356 3.206-.978A7.984 7.984 0 0 1 7.62 15.99 8 8 0 0 1 8 0h.03a7.952 7.952 0 0 1 5.304 2.038 5.773 5.773 0 0 0-3.206-.98c-1.906 0-3.612.943-4.763 2.433z"/></svg>