<?xml version="1.0" encoding="iso-8859-1"?><!DOCTYPE svg PUBLIC "-//W3C//DTD SVG 1.1//EN" "http://www.w3.org/Graphics/SVG/1.1/DTD/svg11.dtd"><svg xmlns="http://www.w3.org/2000/svg" width="16" height="16" viewBox="0 0 93.584 93.584"><path d="M90.895 42.292l-7.122-7.123a5.29 5.29 0 0 0-7.49 0l-1.97 1.97V0H1.136v93.584h73.175V66.632l16.583-16.85a5.293 5.293 0 0 0 0-7.49zM66.365 85.64H9.082V7.945h57.284V45.26l-6.957 6.96V46.79H16.7v5.463h42.67l-12.595 12.6a5.32 5.32 0 0 0-1.33 2.234l-3.032 10.19A5.298 5.298 0 0 0 49 83.865l10.192-3.03a5.3 5.3 0 0 0 2.235-1.33l4.937-4.935v11.07zm-8.91-9.72l-10.19 3.03 3.03-10.19L73.16 45.886l7.172 7.17L57.455 75.92zM82.67 50.448l-7.12-7.123 4.25-4.252 7.122 7.122-4.252 4.253z"/><path d="M16.7 17.575h42.71v5.462H16.7zM16.7 31.977h42.71v5.464H16.7z"/></svg>