<?xml version="1.0" encoding="utf-8"?><!DOCTYPE svg PUBLIC "-//W3C//DTD SVG 1.1//EN" "http://www.w3.org/Graphics/SVG/1.1/DTD/svg11.dtd"><svg xmlns="http://www.w3.org/2000/svg" width="16" height="16" viewBox="0 0 16 16"><path d="M6.5 15H9a1.502 1.502 0 0 0 1.307-2.236 1.5 1.5 0 0 0 .31-2.264 1.494 1.494 0 0 0 .297-1.5H14.5c.827 0 1.5-.673 1.5-1.5S15.327 6 14.5 6H8.333L9.8 3.25a1.502 1.502 0 0 0-2.38-1.79l-.013.013L4 5.21V4.5a.5.5 0 0 0-.5-.5h-3a.5.5 0 0 0-.5.5v10a.5.5 0 0 0 .5.5h3a.5.5 0 0 0 .5-.5v-.69l2.276 1.137c.07.035.146.053.224.053zm-4-1a.5.5 0 1 1 0-1 .5.5 0 0 1 0 1zm4.118 0L4 12.69V6.695L8.143 2.15a.5.5 0 0 1 .782.614l-1.866 3.5c-.084.155-.08.342.012.492s.253.243.43.243h7a.5.5 0 0 1 0 1h-5a.5.5 0 0 0 0 1 .5.5 0 0 1 0 1 .5.5 0 0 0 0 1 .5.5 0 0 1 0 1H9a.5.5 0 0 0 0 1 .5.5 0 0 1 0 1H6.618z"/></svg>