<?xml version="1.0" encoding="utf-8"?><!DOCTYPE svg PUBLIC "-//W3C//DTD SVG 1.1//EN" "http://www.w3.org/Graphics/SVG/1.1/DTD/svg11.dtd"><svg xmlns="http://www.w3.org/2000/svg" width="16" height="16" viewBox="0 0 16 16"><path d="M12.5 10A3.5 3.5 0 1 1 16 6.5l.016.5a7 7 0 0 1-7 7v-2a4.97 4.97 0 0 0 3.536-1.464 5.01 5.01 0 0 0 .497-.578c-.18.028-.363.043-.55.043zm-9 0A3.5 3.5 0 1 1 7 6.5l.016.5a7 7 0 0 1-7 7v-2a4.97 4.97 0 0 0 3.536-1.464 5.01 5.01 0 0 0 .497-.578c-.18.028-.363.043-.55.043z"/></svg>