<?xml version="1.0" encoding="utf-8"?><!DOCTYPE svg PUBLIC "-//W3C//DTD SVG 1.1//EN" "http://www.w3.org/Graphics/SVG/1.1/DTD/svg11.dtd"><svg xmlns="http://www.w3.org/2000/svg" width="16" height="16" viewBox="0 0 16 16"><path d="M4 10a1 1 0 1 1 2 0 1 1 0 0 1-2 0zm6 0a1 1 0 1 1 2 0 1 1 0 0 1-2 0zm.05 2.137a.593.593 0 0 1 .734.933c-.717.565-1.81.93-2.783.93s-2.065-.365-2.783-.93a.593.593 0 0 1 .735-.933c.413.325 1.23.675 2.05.675s1.635-.35 2.048-.675zM16 8a2 2 0 0 0-3.748-.972c-1.028-.562-2.28-.926-3.645-1.01L9.8 3.338l2.284.66a1.5 1.5 0 1 0 .094-1.21l-2.546-.735a.593.593 0 0 0-.707.33l-1.62 3.64c-1.33.094-2.552.453-3.558 1.004A2 2 0 1 0 1.193 9.83 3.66 3.66 0 0 0 1 11c0 2.76 3.134 5 7 5s7-2.24 7-5a3.66 3.66 0 0 0-.193-1.17A2 2 0 0 0 16 8zm-2.5-5.062a.563.563 0 1 1 0 1.126.563.563 0 0 1 0-1.126zM1 8a1 1 0 0 1 1.904-.427 5.292 5.292 0 0 0-1.276 1.355A1 1 0 0 1 1 8zm7 6.813c-3.21 0-5.813-1.707-5.813-3.813S4.79 7.187 8 7.187c3.21 0 5.813 1.707 5.813 3.813S11.21 14.813 8 14.813zm6.372-5.885a5.276 5.276 0 0 0-1.276-1.355C13.256 7.235 13.6 7 14 7a1 1 0 0 1 .372 1.928z"/></svg>