<?xml version="1.0" encoding="utf-8"?><!DOCTYPE svg PUBLIC "-//W3C//DTD SVG 1.1//EN" "http://www.w3.org/Graphics/SVG/1.1/DTD/svg11.dtd"><svg xmlns="http://www.w3.org/2000/svg" width="16" height="16" viewBox="0 0 16 16"><path d="M6.644.166C2.874.8 0 4.08 0 8.028a7.96 7.96 0 0 0 1.887 5.15c2.79-1.35 4.744-4.406 4.756-7.966V.165zM9.356.166C13.126.8 16 4.08 16 8.028a7.96 7.96 0 0 1-1.887 5.15c-2.79-1.35-4.744-4.406-4.756-7.966V.165zM7.972 10.04c-.497 2.057-1.98 3.814-3.828 4.982 1.138.622 2.44.978 3.828.978s2.69-.356 3.828-.978c-1.847-1.17-3.33-2.925-3.828-4.98z"/></svg>