<?xml version="1.0" encoding="utf-8"?><!DOCTYPE svg PUBLIC "-//W3C//DTD SVG 1.1//EN" "http://www.w3.org/Graphics/SVG/1.1/DTD/svg11.dtd"><svg xmlns="http://www.w3.org/2000/svg" width="16" height="16" viewBox="0 0 16 16"><path d="M2.13 11.733C.955 11.733 0 12.69 0 13.86c0 1.173.955 2.12 2.13 2.12 1.18 0 2.133-.947 2.133-2.12a2.133 2.133 0 0 0-2.133-2.127zM.002 5.436v3.067c1.997 0 3.874.78 5.288 2.196A7.45 7.45 0 0 1 7.482 16h3.08c0-5.824-4.74-10.563-10.56-10.563zM.006 0v3.068C7.128 3.068 12.924 8.87 12.924 16H16C16 7.18 8.824 0 .006 0z"/></svg>