<?xml version="1.0" encoding="iso-8859-1"?><svg xmlns="http://www.w3.org/2000/svg" viewBox="0 0 491.172 491.172" width="16" height="16"><path d="M71.7 84.387h211.265v70.752H71.7z"/><path d="M491.167 445.094l-37.75-37.77V1.06H0v424.9h381.954l64.173 64.152s20.73.26 33.197-14.02c12.468-14.26 11.843-30.998 11.843-30.998zm-460.43-49.31V42.54h391.9v334.024l-26.662-26.618-12.317 7.464-18.81-18.12c29.272-41.156 25.777-98.47-11.044-135.313-38.85-38.827-100.11-40.488-141.353-6.04H71.7v27.007h117.562c-8.175 13.762-12.77 28.883-14.13 44.35H71.703v26.834h104.25c2.74 15.768 9.212 30.976 19.134 44.37H71.7v27.008h152.226c35.807 22.283 81.883 21.01 116.547-3.753l17.623 16.933-6.32 15.056-321.038.04zm191.356-60.097c-31.623-31.73-31.623-82.94.065-114.606 31.58-31.665 82.897-31.708 114.627-.042 31.666 31.687 31.666 82.96-.086 114.65-31.58 31.6-82.92 31.643-114.607 0z"/><path d="M311.504 84.387v70.752h69.544V84.386h-69.544zm34.73 52.568c-9.86 0-17.905-8.003-17.905-17.904 0-9.878 8.045-17.88 17.903-17.88 9.9 0 17.882 8.002 17.882 17.88-.022 9.903-7.98 17.905-17.882 17.905z"/></svg>