<?xml version="1.0" encoding="utf-8"?><!DOCTYPE svg PUBLIC "-//W3C//DTD SVG 1.1//EN" "http://www.w3.org/Graphics/SVG/1.1/DTD/svg11.dtd"><svg xmlns="http://www.w3.org/2000/svg" width="16" height="16" viewBox="0 0 16 16"><path d="M6.722 14.03c-2.65.263-4.938-.937-5.11-2.674-.17-1.74 1.838-3.36 4.485-3.622 2.65-.263 4.938.938 5.106 2.675.175 1.74-1.834 3.36-4.48 3.62zm5.297-5.77c-.226-.07-.382-.114-.263-.41.256-.644.28-1.197.003-1.594-.52-.74-1.94-.703-3.57-.02 0 0-.512.223-.38-.18.25-.806.213-1.478-.178-1.87-.884-.883-3.234.035-5.25 2.05C.876 7.74.002 9.344.002 10.73c0 2.644 3.393 4.253 6.712 4.253 4.35 0 7.247-2.527 7.247-4.533 0-1.216-1.02-1.903-1.94-2.188zM14.91 3.416a4.234 4.234 0 0 0-4.032-1.306.61.61 0 1 0 .256 1.194 3.01 3.01 0 0 1 3.494 3.872.615.615 0 0 0 .394.772.615.615 0 0 0 .772-.394V7.55c.45-1.38.166-2.968-.884-4.133z"/><path d="M13.294 4.875a2.055 2.055 0 0 0-1.963-.634.527.527 0 1 0 .22 1.03v.002c.34-.072.71.034.96.31.25.277.318.655.208.986a.532.532 0 0 0 .34.666.53.53 0 0 0 .667-.34c.22-.68.08-1.454-.43-2.02zM6.87 10.884c-.095.16-.298.234-.457.17-.16-.064-.206-.245-.116-.398.094-.153.29-.228.447-.17.156.057.213.235.125.398zm-.848 1.082c-.256.41-.806.588-1.22.4-.405-.184-.527-.66-.27-1.06.252-.396.783-.574 1.193-.402.416.178.55.65.297 1.063zm.962-2.894c-1.26-.328-2.684.3-3.23 1.41-.56 1.13-.02 2.39 1.252 2.802 1.32.425 2.875-.228 3.416-1.447.534-1.197-.13-2.425-1.438-2.766z"/></svg>