<?xml version="1.0" encoding="utf-8"?><!DOCTYPE svg PUBLIC "-//W3C//DTD SVG 1.1//EN" "http://www.w3.org/Graphics/SVG/1.1/DTD/svg11.dtd"><svg xmlns="http://www.w3.org/2000/svg" width="16" height="16" viewBox="0 0 16 16"><path d="M6.65.584c-.025-.016-.053-.028-.078-.04-.028.005-.053.008-.08.015l.158.024zM.575 6.578c-.006.028-.01.056-.012.08.016.026.025.05.04.076l-.027-.156zM15.42 9.416c.005-.028.008-.056.015-.084-.016-.025-.025-.05-.04-.075l.024.16zM9.25 15.36c.025.015.053.027.078.04.028-.006.056-.01.084-.012l-.162-.028z"/><path d="M15.434 9.33l-.016.085-.028-.162c.016.028.028.053.044.078.08-.45.125-.908.125-1.368a7.54 7.54 0 0 0-2.213-5.344 7.56 7.56 0 0 0-2.4-1.62A7.51 7.51 0 0 0 8.004.406a7.6 7.6 0 0 0-1.43.134H6.57c.026.01.054.024.08.04L6.49.555 6.57.54A4.492 4.492 0 0 0 4.475.013c-1.194 0-2.32.466-3.163 1.31S.003 3.29.003 4.485c0 .76.197 1.51.563 2.17.006-.03.01-.057.012-.082l.028.16c-.016-.026-.028-.05-.04-.076A7.566 7.566 0 0 0 .45 7.96a7.514 7.514 0 0 0 2.213 5.342 7.54 7.54 0 0 0 6.666 2.094.64.64 0 0 0-.077-.04l.162.027c-.028.006-.056.01-.084.012a4.48 4.48 0 0 0 2.2.58c1.195 0 2.32-.465 3.163-1.308s1.31-1.97 1.31-3.162c-.004-.76-.2-1.51-.57-2.175zm-7.4 3.26c-2.684 0-3.884-1.318-3.884-2.308 0-.506.375-.863.89-.863 1.15 0 .85 1.65 2.995 1.65 1.097 0 1.703-.598 1.703-1.207 0-.366-.18-.772-.903-.95l-2.388-.597c-1.922-.48-2.272-1.522-2.272-2.5 0-2.028 1.91-2.79 3.703-2.79 1.653 0 3.6.912 3.6 2.13 0 .522-.453.825-.97.825-.98 0-.8-1.355-2.774-1.355-.98 0-1.522.444-1.522 1.078s.775.838 1.447.99l1.768.395c1.934.43 2.425 1.563 2.425 2.625 0 1.647-1.266 2.878-3.82 2.878z"/></svg>