<?xml version="1.0" encoding="utf-8"?><!DOCTYPE svg PUBLIC "-//W3C//DTD SVG 1.1//EN" "http://www.w3.org/Graphics/SVG/1.1/DTD/svg11.dtd"><svg xmlns="http://www.w3.org/2000/svg" width="16" height="16" viewBox="0 0 16 16"><path d="M8 0a8 8 0 1 0 0 16A8 8 0 0 0 8 0zM4.854 5.166a.5.5 0 0 1-.707-.707c.696-.697 2.01-.697 2.707 0a.5.5 0 0 1-.708.706c-.302-.302-.99-.302-1.293 0zM8 13c-1.105 0-2-1.12-2-2.5S6.895 8 8 8s2 1.12 2 2.5S9.105 13 8 13zm3.854-7.834a.498.498 0 0 1-.708 0c-.302-.302-.99-.302-1.293 0a.5.5 0 0 1-.707-.707c.696-.697 2.01-.697 2.707 0a.5.5 0 0 1 0 .706z"/></svg>