<?xml version="1.0" encoding="utf-8"?><!DOCTYPE svg PUBLIC "-//W3C//DTD SVG 1.1//EN" "http://www.w3.org/Graphics/SVG/1.1/DTD/svg11.dtd"><svg xmlns="http://www.w3.org/2000/svg" width="16" height="16" viewBox="0 0 16 16"><path d="M5 12V0H3v12H.5L4 15.5 7.5 12H5zM14.5 7h-4a.5.5 0 0 1-.416-.777L13.566 1H10.5a.5.5 0 0 1 0-1h4a.502.502 0 0 1 .416.777L11.434 6H14.5a.5.5 0 0 1 0 1zM15.947 15.276l-3-6a.5.5 0 0 0-.894 0l-3 6a.5.5 0 0 0 .895.447L10.81 14h3.382l.862 1.723a.5.5 0 0 0 .895-.447zM11.31 13l1.19-2.382L13.69 13h-2.38z"/></svg>