<?xml version="1.0" encoding="utf-8"?><!DOCTYPE svg PUBLIC "-//W3C//DTD SVG 1.1//EN" "http://www.w3.org/Graphics/SVG/1.1/DTD/svg11.dtd"><svg xmlns="http://www.w3.org/2000/svg" width="16" height="16" viewBox="0 0 16 16"><path d="M8 0a8 8 0 1 0 0 16A8 8 0 0 0 8 0zm0 4a4 4 0 1 1 0 8 4 4 0 0 1 0-8zm4.773 8.773C11.498 14.048 9.803 14.75 8 14.75s-3.498-.702-4.773-1.977S1.25 9.803 1.25 8c0-1.803.702-3.498 1.977-4.773l1.06 1.06a5.256 5.256 0 0 0 0 7.426c.993.992 2.31 1.538 3.713 1.538s2.72-.545 3.712-1.537a5.256 5.256 0 0 0 0-7.425l1.06-1.06C14.05 4.5 14.75 6.197 14.75 8s-.702 3.498-1.977 4.773z"/></svg>