<?xml version="1.0" encoding="utf-8"?><!DOCTYPE svg PUBLIC "-//W3C//DTD SVG 1.1//EN" "http://www.w3.org/Graphics/SVG/1.1/DTD/svg11.dtd"><svg xmlns="http://www.w3.org/2000/svg" width="16" height="16" viewBox="0 0 16 16"><path d="M6 2a2 2 0 1 1 4 0 2 2 0 0 1-4 0zm4.243 1.757a2 2 0 1 1 4 0 2 2 0 0 1-4 0zM13 8a1 1 0 1 1 2 0 1 1 0 0 1-2 0zm-1.757 4.243a1 1 0 1 1 2 0 1 1 0 0 1-2 0zM7 14a1 1 0 0 1 2 0 1 1 0 0 1-2 0zm-4.243-1.757a1 1 0 0 1 2 0 1 1 0 0 1-2 0zm-.5-8.486a1.5 1.5 0 0 1 3 0 1.5 1.5 0 0 1-3 0zM.875 8a1.125 1.125 0 1 1 2.25 0 1.125 1.125 0 0 1-2.25 0z"/></svg>