<?xml version="1.0" encoding="utf-8"?><!DOCTYPE svg PUBLIC "-//W3C//DTD SVG 1.1//EN" "http://www.w3.org/Graphics/SVG/1.1/DTD/svg11.dtd"><svg xmlns="http://www.w3.org/2000/svg" width="16" height="16" viewBox="0 0 16 16"><path d="M16 8a7.917 7.917 0 0 0-2.43-5.568A7.776 7.776 0 0 0 5.057.896a7.632 7.632 0 0 0-4.046 4.21 7.53 7.53 0 0 0 .114 5.74c.392.893.96 1.7 1.658 2.37S4.307 14.41 5.2 14.757c.892.348 1.85.514 2.8.493a7.157 7.157 0 0 0 6.526-4.547 6.98 6.98 0 0 0 .414-1.62H15a1 1 0 0 0 .995-1.082H16zm-1.59 2.655c-.366.83-.897 1.584-1.55 2.206s-1.42 1.113-2.253 1.435A6.76 6.76 0 0 1 8 14.75a6.676 6.676 0 0 1-4.685-2.065 6.597 6.597 0 0 1-1.38-2.174 6.514 6.514 0 0 1 .115-4.975c.342-.77.836-1.468 1.44-2.044s1.322-1.028 2.093-1.325C6.353 1.867 7.18 1.727 8 1.75s1.628.2 2.367.53c.74.33 1.41.806 1.963 1.388s.988 1.27 1.272 2.01A6.02 6.02 0 0 1 14 8h.003a1 1 0 0 0 .888 1.077 6.872 6.872 0 0 1-.482 1.58z"/></svg>