<?xml version="1.0" encoding="utf-8"?><!DOCTYPE svg PUBLIC "-//W3C//DTD SVG 1.1//EN" "http://www.w3.org/Graphics/SVG/1.1/DTD/svg11.dtd"><svg xmlns="http://www.w3.org/2000/svg" width="16" height="16" viewBox="0 0 16 16"><path d="M3 8c0-.19.01-.378.032-.563l-2.89-.94C.05 6.986.002 7.488.002 8c0 2.3.97 4.374 2.525 5.833l1.786-2.458A4.982 4.982 0 0 1 3 8zm10 0c0 1.3-.497 2.486-1.312 3.375l1.786 2.458A7.975 7.975 0 0 0 16 8c0-.513-.05-1.015-.14-1.502l-2.89.94c.02.184.03.372.03.562zM9 3.1a5.01 5.01 0 0 1 3.35 2.435l2.89-.94A8.01 8.01 0 0 0 9 .063V3.1zM3.65 5.535A5.007 5.007 0 0 1 7 3.1V.062A8.005 8.005 0 0 0 .76 4.596l2.89.94zm6.42 7.017C9.44 12.84 8.74 13 8 13s-1.44-.16-2.07-.448L4.142 15.01C5.287 15.64 6.6 16 8 16s2.713-.36 3.857-.99l-1.786-2.458z"/></svg>