<?xml version="1.0" encoding="utf-8"?><!DOCTYPE svg PUBLIC "-//W3C//DTD SVG 1.1//EN" "http://www.w3.org/Graphics/SVG/1.1/DTD/svg11.dtd"><svg xmlns="http://www.w3.org/2000/svg" width="16" height="16" viewBox="0 0 16 16"><path d="M3.5 0c-1.657 0-3 1.567-3 3.5 0 1.655.985 3.042 2.308 3.406l-.497 8.096a.93.93 0 0 0 .94.998h.5c.55 0 .972-.45.94-.998L4.19 6.906C5.515 6.54 6.5 5.156 6.5 3.5c0-1.933-1.343-3.5-3-3.5zm10.083 0l-.833 5h-.625l-.417-5h-.417l-.416 5h-.625l-.834-5H9v6.5a.5.5 0 0 0 .5.5h1.3l-.49 8.002a.93.93 0 0 0 .94.998h.5c.55 0 .97-.45.938-.998L12.198 7h1.3a.5.5 0 0 0 .5-.5V0h-.416z"/></svg>