<?xml version="1.0" encoding="utf-8"?><!DOCTYPE svg PUBLIC "-//W3C//DTD SVG 1.1//EN" "http://www.w3.org/Graphics/SVG/1.1/DTD/svg11.dtd"><svg xmlns="http://www.w3.org/2000/svg" width="16" height="16" viewBox="0 0 16 16"><path d="M11 4.5a1.5 1.5 0 1 1 3 0 1.5 1.5 0 0 1-3 0zm3.975-2.475A3.5 3.5 0 0 0 9.035 4L5.84 8.847a3.16 3.16 0 0 0-1.25.328L2.123 7.247A1.313 1.313 0 0 0 .506 9.315l2.436 1.905a3.157 3.157 0 1 0 6.168.228L13 7.964a3.5 3.5 0 0 0 1.975-5.94zM6 14.105A2.105 2.105 0 0 1 3.895 12v-.033l1.047.817a1.31 1.31 0 1 0 1.616-2.068l-.993-.776A2.105 2.105 0 1 1 6 14.105zM12.5 7a2.5 2.5 0 1 1 0-5 2.5 2.5 0 0 1 0 5z"/></svg>