<?xml version="1.0" encoding="utf-8"?><!DOCTYPE svg PUBLIC "-//W3C//DTD SVG 1.1//EN" "http://www.w3.org/Graphics/SVG/1.1/DTD/svg11.dtd"><svg xmlns="http://www.w3.org/2000/svg" width="16" height="16" viewBox="0 0 16 16"><path d="M4.75 13.063a1.313 1.313 0 0 0 .73-2.405L4.444 9.97a2.105 2.105 0 1 1-1.548 2.124l1.124.75c.224.148.477.22.727.22zM13.332 0C14.8 0 16 1.2 16 2.667v10.666C16 14.8 14.8 16 13.333 16H2.667A2.674 2.674 0 0 1 0 13.333V10.16l1.896 1.265a3.157 3.157 0 1 0 6.213.024L12 7.965A3.5 3.5 0 1 0 8.037 4L4.84 8.85a3.14 3.14 0 0 0-1.434.428L.002 7.006V2.67C.002 1.2 1.202 0 2.67 0h10.665zM14 4.5a2.5 2.5 0 1 0-5 0 2.5 2.5 0 0 0 5 0zm-4 0a1.5 1.5 0 1 1 3 0 1.5 1.5 0 0 1-3 0z"/></svg>