<?xml version="1.0" encoding="utf-8"?><!DOCTYPE svg PUBLIC "-//W3C//DTD SVG 1.1//EN" "http://www.w3.org/Graphics/SVG/1.1/DTD/svg11.dtd"><svg xmlns="http://www.w3.org/2000/svg" width="16" height="16" viewBox="0 0 16 16"><path d="M16 8v1h-3.664c.43.602.664 1.292.664 2 0 1.107-.573 2.172-1.572 2.92C10.5 14.618 9.283 15 8 15s-2.5-.383-3.428-1.08C3.572 13.173 3 12.108 3 11h2c0 1.084 1.374 2 3 2s3-.916 3-2-1.374-2-3-2H0V8h4.68a3.003 3.003 0 0 1-.108-.08C3.572 7.173 3 6.108 3 5s.573-2.172 1.572-2.92C5.5 1.382 6.717 1 8 1s2.5.383 3.428 1.08C12.428 2.827 13 3.892 13 5h-2c0-1.084-1.374-2-3-2s-3 .916-3 2 1.374 2 3 2c1.234 0 2.407.354 3.32 1H16z"/></svg>