<?xml version="1.0" encoding="utf-8"?><!DOCTYPE svg PUBLIC "-//W3C//DTD SVG 1.1//EN" "http://www.w3.org/Graphics/SVG/1.1/DTD/svg11.dtd"><svg xmlns="http://www.w3.org/2000/svg" width="16" height="16" viewBox="0 0 16 16"><path d="M9 5l2 2-4 4-2-2zm6.65-.35L14.5 3.5 14 4a1.414 1.414 0 1 1-2-2l.5-.5L11.353.35a1.208 1.208 0 0 0-1.703 0L.35 9.65a1.208 1.208 0 0 0 0 1.703l1.15 1.15L2 12a1.414 1.414 0 0 1 2 2l-.5.5 1.15 1.15a1.208 1.208 0 0 0 1.702 0L15.65 6.35a1.208 1.208 0 0 0 0-1.703zM7 13L3 9l6-6 4 4-6 6z"/></svg>