<?xml version="1.0" encoding="utf-8"?><!DOCTYPE svg PUBLIC "-//W3C//DTD SVG 1.1//EN" "http://www.w3.org/Graphics/SVG/1.1/DTD/svg11.dtd"><svg xmlns="http://www.w3.org/2000/svg" width="16" height="16" viewBox="0 0 16 16"><path d="M6.44 8c-.744-.384-1.47-.578-2.153-.578-.093 0-.187.003-.28.01a9.082 9.082 0 0 0-2.603.644L0 12.942c.965-.357 1.818-.53 2.6-.53 1.262 0 2.18.472 2.936.958.36-1.217 1.22-4.158 1.476-5.036A12.34 12.34 0 0 0 6.442 8zm1.815 1.235l-1.413 4.91c.42.24 1.83 1 2.91 1 .872 0 1.848-.223 2.982-.684l1.35-4.717c-.917.296-1.796.446-2.618.446-1.5 0-2.55-.487-3.21-.953zm-3.68-3.473c1.205.012 2.096.472 2.835.945L8.86 1.75c-.306-.176-1.107-.612-1.686-.76A5.28 5.28 0 0 0 5.968.855c-.81.015-1.694.218-2.7.622L1.884 6.33c1.013-.382 1.885-.568 2.69-.568zM16 3.096c-.92.357-1.816.54-2.672.54-1.433 0-2.49-.498-3.173-.975L8.718 7.634c.965.62 2.005.936 3.096.936.89 0 1.812-.215 2.742-.637l-.003-.035.058-.014L16 3.096z"/></svg>