<?xml version="1.0" encoding="utf-8"?><!DOCTYPE svg PUBLIC "-//W3C//DTD SVG 1.1//EN" "http://www.w3.org/Graphics/SVG/1.1/DTD/svg11.dtd"><svg xmlns="http://www.w3.org/2000/svg" width="16" height="16" viewBox="0 0 16 16"><path d="M8 0a8 8 0 1 0 0 16A8 8 0 0 0 8 0zm3 4c.552 0 1 .672 1 1.5S11.552 7 11 7s-1-.672-1-1.5.448-1.5 1-1.5zm-5.5.876c.932 0 1.594.35 1.594.895 0 .117.06.673-.003.776-.23-.384-.855-.66-1.59-.66s-1.36.276-1.59.66c-.063-.103-.004-.66-.004-.775 0-.545.662-.894 1.594-.894zM7.818 13c-1.863 0-3.498-1.004-4.42-2.515 1.1.86 3.04 1.028 5.083.625 2.192-.433 3.893-1.43 4.508-2.76-.338 2.625-2.524 4.65-5.17 4.65z"/></svg>