<?xml version="1.0" encoding="utf-8"?><!DOCTYPE svg PUBLIC "-//W3C//DTD SVG 1.1//EN" "http://www.w3.org/Graphics/SVG/1.1/DTD/svg11.dtd"><svg xmlns="http://www.w3.org/2000/svg" width="16" height="16" viewBox="0 0 16 16"><path d="M2 8c0 2.313 1.38 4.312 3.382 5.26L2.52 5.62A5.693 5.693 0 0 0 2 8zm10.05-.295c0-.722-.266-1.222-.495-1.612-.304-.482-.59-.89-.59-1.37 0-.538.42-1.038 1.01-1.038.026 0 .05.003.077.005A6.064 6.064 0 0 0 8 2.156 6.036 6.036 0 0 0 2.987 4.79c.14.004.274.007.386.007.627 0 1.6-.074 1.6-.074.322-.018.36.444.037.482 0 0-.325.037-.687.055l2.185 6.33L7.82 7.755 6.887 5.26c-.323-.02-.63-.055-.63-.055-.322-.02-.284-.5.04-.482 0 0 .99.074 1.58.074.626 0 1.598-.074 1.598-.074.323-.018.362.444.038.482 0 0-.326.037-.687.055l2.168 6.282.6-1.947c.258-.81.456-1.39.456-1.89zm-3.945.806l-1.8 5.096a6.148 6.148 0 0 0 3.687-.093.52.52 0 0 1-.043-.08L8.104 8.51zm5.16-3.314c.026.186.04.386.04.6 0 .594-.114 1.26-.456 2.094l-1.834 5.16C12.8 12.037 14 10.155 14 8c0-1.017-.268-1.972-.736-2.804zM8 0a8 8 0 1 0 0 16A8 8 0 0 0 8 0zm0 15A7 7 0 1 1 8 1a7 7 0 0 1 0 14z"/></svg>