<?xml version="1.0" encoding="utf-8"?><!DOCTYPE svg PUBLIC "-//W3C//DTD SVG 1.1//EN" "http://www.w3.org/Graphics/SVG/1.1/DTD/svg11.dtd"><svg xmlns="http://www.w3.org/2000/svg" width="16" height="16" viewBox="0 0 16 16"><path d="M14.5 0h-13C.675 0 0 .675 0 1.5v13c0 .825.675 1.5 1.5 1.5h13c.825 0 1.5-.675 1.5-1.5v-13c0-.825-.675-1.5-1.5-1.5zM4.884 10.406H3.156a.253.253 0 0 1-.225-.12c-.046-.074-.046-.168 0-.265l1.84-3.243c.002-.003.002-.006 0-.01L3.6 4.744c-.047-.097-.056-.19-.01-.266.045-.072.132-.11.238-.11h1.73c.267 0 .398.173.482.326 0 0 1.18 2.063 1.19 2.075-.068.125-1.868 3.303-1.868 3.303-.094.163-.22.335-.478.335zm8.185-8.028L9.237 9.153a.01.01 0 0 0 0 .012l2.44 4.456c.048.098.05.195.004.27-.044.072-.125.11-.23.11H9.72c-.265 0-.396-.176-.483-.33L6.78 9.16l3.85-6.83c.094-.165.206-.327.463-.327h1.753c.103 0 .188.04.23.11.045.07.045.168-.005.265z"/></svg>