<?xml version="1.0" encoding="utf-8"?><!DOCTYPE svg PUBLIC "-//W3C//DTD SVG 1.1//EN" "http://www.w3.org/Graphics/SVG/1.1/DTD/svg11.dtd"><svg xmlns="http://www.w3.org/2000/svg" width="16" height="16" viewBox="0 0 16 16"><path d="M9.514 10.21c-.27.272-.042.768-.042.768l2.033 3.394s.334.447.623.447c.29 0 .577-.24.577-.24l1.607-2.297s.162-.29.166-.544c.006-.362-.538-.46-.538-.46l-3.805-1.223s-.373-.1-.62.152zM9.32 8.5c.196.33.733.234.733.234l3.796-1.11s.516-.21.59-.49c.072-.28-.085-.62-.085-.62L12.54 4.38s-.156-.27-.482-.297c-.36-.03-.58.406-.58.406L9.33 7.86s-.19.337-.01.64zM7.528 7.184c.447-.11.518-.76.518-.76l-.03-5.403S7.948.355 7.648.175c-.47-.285-.61-.136-.744-.116l-3.15 1.17s-.31.103-.47.36c-.23.366.233.9.233.9l3.276 4.465s.323.334.735.233zM6.75 9.37c.01-.416-.5-.666-.5-.666L2.86 6.994s-.502-.208-.746-.064c-.187.11-.352.31-.368.486l-.22 2.716s-.034.47.088.685c.173.304.74.092.74.092l3.956-.875c.154-.103.423-.113.438-.664zm.982 1.467c-.34-.174-.746.187-.746.187L4.338 13.94s-.33.445-.246.72c.08.256.21.383.396.473l2.66.84s.32.066.566-.005c.347-.1.283-.643.283-.643l.06-3.947s-.014-.38-.324-.54z"/></svg>