<?xml version="1.0" encoding="utf-8"?><!DOCTYPE svg PUBLIC "-//W3C//DTD SVG 1.1//EN" "http://www.w3.org/Graphics/SVG/1.1/DTD/svg11.dtd"><svg xmlns="http://www.w3.org/2000/svg" width="20" height="8" viewBox="0 0 40 16"><path d="M5.375 2.647l.006-.028.017-.12-.74-.003c-.668-.004-.873 0-.89.017-.01.008-.24.885-.652 2.473-.196.758-.36 1.363-.367 1.345s-.24-.883-.522-1.922c-.28-1.04-.517-1.894-.524-1.9C1.692 2.5.796 2.494.07 2.5c-.105.002-.164-.204.938 3.3.152.485.38 1.172.507 1.526.146.408.25.724.32.987.127.5.13.815.104 1.182-.033.423-.037 3.413-.006 3.463.024.038 1.425.056 1.558.02.02-.006.035-.026.045-.14.033-.096.036-.483.036-2.09V8.7l.09-.283c.06-.185.206-.672.328-1.082l.328-1.09c.53-1.724 1.033-3.42 1.047-3.516l.01-.08zM13.22 5.135v.107h-.016l-.01 2.953-.008 2.863-.23.233c-.256.262-.46.362-.647.315-.204-.05-.198.028-.215-3.356l-.016-3.116h-1.475v.107h-.017v3.38c0 3.622 0 3.62.184 3.983.146.29.36.43.725.48.48.063 1-.155 1.48-.623l.21-.203v.35c0 .304.01.354.064.37.09.024 1.207.026 1.327 0l.1-.02v-.104l.017-.003V5.114l-1.472.02zM9.483 6.66c-.14-.598-.4-1-.832-1.28-.675-.436-1.448-.483-2.164-.13-.522.26-.86.687-1.032 1.315-.02.075-.036.138-.047.23-.044.223-.05.553-.06 2.094-.02 2.373.01 2.655.306 3.194.292.53.897.917 1.556.997.197.025.6-.012.83-.077.526-.146 1.03-.56 1.253-1.032a1.8 1.8 0 0 0 .19-.603c.064-.353.07-.925.07-2.38 0-1.858-.007-2.06-.07-2.327zm-1.68 4.84a.688.688 0 0 1-.516.098c-.135-.03-.318-.24-.374-.434-.07-.24-.075-3.594-.015-4.25.1-.33.378-.502.682-.42.237.064.358.212.427.523.05.23.057.518.046 2.207-.007 1.12-.01 1.668-.048 1.962-.037.185-.1.235-.203.315zM35.944 8.346h.712l-.01-.645c-.012-.59-.02-.658-.1-.82-.125-.252-.31-.365-.6-.365-.352 0-.574.17-.68.518-.044.148-.09 1.167-.057 1.255.018.05.12.058.734.058zM31.184 6.88a.49.49 0 0 0-.477-.28.914.914 0 0 0-.508.204l-.128.097v4.635l.127.097c.287.22.603.266.82.12a.482.482 0 0 0 .187-.263c.057-.165.062-.376.055-2.326-.008-2.032-.012-2.152-.078-2.285z"/><path d="M40.014 4.79c-.142-1.7-.255-2.252-.605-2.96C38.943.89 38.272.394 37.316.285c-.74-.084-3.52-.203-6.094-.26-4.456-.1-11.782.092-12.718.33-.432.112-.757.3-1.094.635-.59.59-.943 1.433-1.084 2.6-.323 2.667-.33 5.887-.02 8.65.135 1.188.41 1.96.93 2.596.322.397.88.734 1.378.835.35.072 2.1.17 4.65.26.38.015 1.385.038 2.235.053 1.77.03 5.024.013 6.885-.04 1.252-.034 3.534-.127 3.96-.16.12-.01.4-.027.62-.04.738-.04 1.208-.195 1.65-.542.57-.448 1.012-1.277 1.2-2.25.176-.92.294-2.56.318-4.42.02-1.555-.007-2.393-.12-3.74zM22.27 4.176l-.828.01-.036 8.83-.718.01c-.555.007-.724-.002-.737-.037-.01-.025-.02-2.016-.025-4.424l-.01-4.38-1.616-.02v-1.38l4.778.02.02 1.36-.828.01zm5.077 5.06v3.798H26.04v-.4c0-.3-.012-.4-.048-.4-.026 0-.144.1-.263.22-.26.263-.566.474-.828.572-.542.203-1.056.084-1.275-.293-.2-.345-.204-.423-.204-4.005v-3.29h1.307l.01 3.098c.01 3.044.01 3.1.084 3.224.097.163.244.208.478.143.138-.038.232-.105.455-.327l.282-.28v-5.86h1.307v3.798zm5.102 3.256c-.116.258-.373.51-.584.57-.55.163-.99.03-1.5-.448-.157-.15-.304-.27-.326-.27-.027 0-.04.117-.04.346v.345h-1.31V2.785H30v1.672c0 .92.01 1.672.026 1.672s.153-.123.307-.27c.354-.342.65-.492 1.024-.52.67-.05 1.068.294 1.25 1.08.057.245.062.525.062 2.798 0 2.768 0 2.78-.222 3.273zm5.534-1.52a4.706 4.706 0 0 1-.077.728c-.182.674-.666 1.152-1.366 1.348-.94.264-1.98-.168-2.393-.997-.232-.466-.24-.56-.24-2.832 0-1.853.006-2.08.065-2.334.168-.715.584-1.178 1.29-1.435.203-.075.416-.114.63-.118.76-.016 1.514.393 1.83 1.06.214.448.24.64.262 1.907l.02 1.135-2.79.02-.01.762c-.015 1.077.058 1.408.35 1.603.243.165.62.152.823-.027.192-.168.246-.35.265-.877l.017-.463h1.346l-.022.518z"/></svg>