<?xml version="1.0" encoding="utf-8"?><!DOCTYPE svg PUBLIC "-//W3C//DTD SVG 1.1//EN" "http://www.w3.org/Graphics/SVG/1.1/DTD/svg11.dtd"><svg width="48" height="48" viewBox="0 0 48 48" xmlns="http://www.w3.org/2000/svg" xmlns:xlink="http://www.w3.org/1999/xlink"><view id="codepen" viewBox="0 0 16 16"/><svg width="16" height="16" viewBox="0 0 16 16"><path d="M14.777 5.75l-7-4.666a.5.5 0 0 0-.555 0l-7 4.667A.5.5 0 0 0 0 6.168v4.667a.5.5 0 0 0 .222.416l7 4.667a.5.5 0 0 0 .554 0l7-4.667a.5.5 0 0 0 .223-.416V6.167a.5.5 0 0 0-.224-.416zM7.5 10.233L4.9 8.5l2.6-1.732L10.1 8.5l-2.6 1.732zM8 5.9V2.433l5.6 3.732L11 7.898l-3-2zm-1 0l-3 2-2.6-1.733L7 2.435V5.9zM3.1 8.5L1 9.9V7.1l2.1 1.4zm.9.6l3 2v3.466l-5.6-3.732L4 9.102zm4 2l3-2 2.6 1.733L8 14.565V11.1zm3.9-2.6L14 7.1v2.8l-2.1-1.4z"/></svg><view id="earth" viewBox="16 0 16 16"/><svg width="16" height="16" viewBox="0 0 16 16" x="16"><path d="M8 0a8 8 0 1 0 0 16A8 8 0 0 0 8 0zm0 15a6.96 6.96 0 0 1-2.77-.57l3.644-4.098A.503.503 0 0 0 9 10V8.5a.5.5 0 0 0-.5-.5C6.735 8 4.872 6.165 4.854 6.146A.5.5 0 0 0 4.5 6h-2a.5.5 0 0 0-.5.5v3a.5.5 0 0 0 .276.447L4 10.81v2.935A6.992 6.992 0 0 1 1 8c0-1.074.242-2.09.674-3H3.5c.133 0 .26-.053.354-.146l2-2A.5.5 0 0 0 6 2.5V1.29A6.99 6.99 0 0 1 8 1c1.1 0 2.14.254 3.067.706A2.98 2.98 0 0 0 10 4c0 .8.31 1.555.878 2.12a2.994 2.994 0 0 0 2.267.875c.216.81.605 2.917-.13 5.818a.466.466 0 0 0-.014.082A6.98 6.98 0 0 1 8 15z"/></svg><view id="facebook" viewBox="0 16 16 16"/><svg width="16" height="16" viewBox="0 0 16 16" y="16"><path d="M9.5 3H12V0H9.5C7.57 0 6 1.57 6 3.5V5H4v3h2v8h3V8h2.5l.5-3H9V3.5c0-.27.23-.5.5-.5z"/></svg><view id="facebook2" viewBox="16 16 16 16"/><svg width="16" height="16" viewBox="0 0 16 16" x="16" y="16"><path d="M14.5 0h-13C.675 0 0 .675 0 1.5v13c0 .825.675 1.5 1.5 1.5H8V9H6V7h2V6c0-1.653 1.347-3 3-3h2v2h-2c-.55 0-1 .45-1 1v1h3l-.5 2H10v7h4.5c.825 0 1.5-.675 1.5-1.5v-13c0-.825-.675-1.5-1.5-1.5z"/></svg><view id="git" viewBox="32 0 16 16"/><svg width="16" height="16" viewBox="0 0 16 16" x="32"><path d="M15.698 7.287L8.712.3a1.03 1.03 0 0 0-1.457 0L5.632 1.925l1.22 1.22a1.5 1.5 0 0 1 2 2l2.002 2a1.5 1.5 0 1 1-.707.707l-2-2A1.57 1.57 0 0 1 8 5.915v4.17a1.5 1.5 0 1 1-1 0v-4.17a1.5 1.5 0 0 1-.854-2.06L4.926 2.63.3 7.255a1.032 1.032 0 0 0 0 1.458L7.288 15.7a1.03 1.03 0 0 0 1.457 0l6.953-6.954a1.032 1.032 0 0 0 0-1.458z"/></svg><view id="github" viewBox="32 16 16 16"/><svg width="16" height="16" viewBox="0 0 16 16" x="32" y="16"><path d="M8 .198a8 8 0 0 0-2.53 15.59c.4.075.548-.173.548-.384 0-.19-.008-.82-.01-1.49-2.227.485-2.696-.943-2.696-.943-.364-.924-.888-1.17-.888-1.17-.726-.497.055-.486.055-.486.802.056 1.225.824 1.225.824.714 1.223 1.872.87 2.328.665.072-.517.28-.87.508-1.07-1.776-.202-3.644-.888-3.644-3.954A3.1 3.1 0 0 1 3.72 5.63c-.083-.202-.357-1.015.077-2.117 0 0 .672-.215 2.2.82A7.672 7.672 0 0 1 8 4.065c.68.004 1.365.093 2.004.27 1.527-1.035 2.198-.82 2.198-.82.435 1.102.162 1.916.08 2.117a3.09 3.09 0 0 1 .822 2.147c0 3.072-1.872 3.748-3.653 3.946.288.248.544.735.544 1.48 0 1.07-.01 1.933-.01 2.196 0 .213.145.462.55.384A8 8 0 0 0 8 .196z"/></svg><view id="linkedin" viewBox="0 32 16 16"/><svg width="16" height="16" viewBox="0 0 16 16" y="32"><path d="M14.5 0h-13C.675 0 0 .675 0 1.5v13c0 .825.675 1.5 1.5 1.5h13c.825 0 1.5-.675 1.5-1.5v-13c0-.825-.675-1.5-1.5-1.5zM6 13H4V6h2v7zM5 5a1 1 0 0 1 0-2 1 1 0 0 1 0 2zm8 8h-2V9a1 1 0 0 0-2 0v4H7V6h2v1.24C9.412 6.676 10.044 6 10.75 6 11.994 6 13 7.12 13 8.5V13z"/></svg><view id="linkedin2" viewBox="16 32 16 16"/><svg width="16" height="16" viewBox="0 0 16 16" x="16" y="32"><path d="M6 6h2.767v1.418h.04C9.192 6.728 10.134 6 11.54 6 14.46 6 15 7.818 15 10.183V15h-2.885v-4.27c0-1.018-.02-2.33-1.5-2.33-1.502 0-1.732 1.11-1.732 2.256V15H6V6zM1 6h3v9H1V6zM4 3.5a1.5 1.5 0 1 1-3 0 1.5 1.5 0 0 1 3 0z"/></svg><view id="twitter" viewBox="32 32 16 16"/><svg width="16" height="16" viewBox="0 0 16 16" x="32" y="32"><path d="M16 3.538a6.46 6.46 0 0 1-1.884.516 3.3 3.3 0 0 0 1.444-1.816 6.607 6.607 0 0 1-2.084.797A3.28 3.28 0 0 0 11.08 2 3.28 3.28 0 0 0 7.88 6.03a9.32 9.32 0 0 1-6.766-3.432 3.284 3.284 0 0 0 1.015 4.38A3.3 3.3 0 0 1 .644 6.57v.04c0 1.592 1.13 2.92 2.634 3.22a3.29 3.29 0 0 1-1.485.057 3.293 3.293 0 0 0 3.066 2.28 6.586 6.586 0 0 1-4.862 1.36 9.286 9.286 0 0 0 5.034 1.475c6.037 0 9.34-5.003 9.34-9.34 0-.145-.002-.285-.008-.426A6.59 6.59 0 0 0 16 3.54z"/></svg></svg>