<?xml version="1.0" encoding="utf-8"?><!DOCTYPE svg PUBLIC "-//W3C//DTD SVG 1.1//EN" "http://www.w3.org/Graphics/SVG/1.1/DTD/svg11.dtd"><svg xmlns="http://www.w3.org/2000/svg" width="16" height="16" viewBox="0 0 16 16"><path d="M14 6c-.55 0-1 .45-1 1v4c0 .55.45 1 1 1s1-.45 1-1V7c0-.55-.45-1-1-1zM2 6c-.55 0-1 .45-1 1v4c0 .55.45 1 1 1s1-.45 1-1V7c0-.55-.45-1-1-1zm1.5 5.5A1.5 1.5 0 0 0 5 13v2c0 .55.45 1 1 1s1-.45 1-1v-2h2v2c0 .55.45 1 1 1s1-.45 1-1v-2a1.5 1.5 0 0 0 1.5-1.5V6h-9v5.5zM12.472 5a4.5 4.5 0 0 0-2.025-3.276l.5-1a.5.5 0 0 0-.895-.448L9.55 1.28l-.13-.052a4.504 4.504 0 0 0-2.84 0l-.13.052L5.948.276a.5.5 0 0 0-.895.447l.5 1A4.5 4.5 0 0 0 3.528 5v.5H12.5V5h-.028zM6.5 4a.5.5 0 0 1 0-1 .5.5 0 0 1 0 1zm3 0a.5.5 0 0 1 0-1h.002a.5.5 0 0 1 0 1z"/></svg>