<?xml version="1.0" encoding="utf-8"?><!DOCTYPE svg PUBLIC "-//W3C//DTD SVG 1.1//EN" "http://www.w3.org/Graphics/SVG/1.1/DTD/svg11.dtd"><svg xmlns="http://www.w3.org/2000/svg" width="16" height="16" viewBox="0 0 16 16"><path d="M4.64 3.206c.473 0 .898.04 1.285.125.388.082.716.22.994.407.274.188.486.438.643.75.15.31.225.697.225 1.156 0 .497-.112.91-.338 1.24-.228.332-.56.6-1.003.814.606.175 1.053.48 1.353.916.3.438.444.963.444 1.58 0 .5-.097.93-.287 1.292a2.535 2.535 0 0 1-.778.89c-.326.232-.7.4-1.12.51-.416.11-.844.166-1.287.166H0V3.208h4.642zM4.36 7.18c.383 0 .702-.09.952-.274.25-.18.37-.48.37-.894 0-.228-.042-.42-.123-.566a.905.905 0 0 0-.335-.344 1.325 1.325 0 0 0-.478-.172 2.98 2.98 0 0 0-.556-.05H2.167v2.3H4.36zm.118 4.192c.213 0 .416-.02.606-.063a1.43 1.43 0 0 0 .51-.21c.143-.097.265-.225.352-.394.088-.166.128-.378.128-.637 0-.507-.144-.87-.428-1.09-.284-.215-.662-.32-1.13-.32h-2.35v2.708h2.312zM11.33 11.338c.295.287.717.43 1.267.43.394 0 .738-.1 1.022-.3s.455-.41.52-.63h1.726c-.278.86-.697 1.47-1.272 1.838-.566.37-1.26.556-2.063.556a4.11 4.11 0 0 1-1.518-.27 3.22 3.22 0 0 1-1.15-.765 3.51 3.51 0 0 1-.725-1.188c-.17-.46-.256-.97-.256-1.52 0-.534.09-1.03.263-1.49.178-.464.422-.86.747-1.195s.706-.6 1.156-.794c.447-.193.94-.29 1.488-.29.603 0 1.13.116 1.584.353.45.234.822.55 1.113.944s.498.847.626 1.353.172 1.034.137 1.588h-5.147c0 .56.188 1.094.484 1.378zm2.248-3.744c-.23-.256-.628-.397-1.106-.397-.313 0-.572.053-.778.16-.203.105-.37.236-.497.393a1.396 1.396 0 0 0-.262.503c-.05.172-.08.33-.09.47h3.187c-.047-.5-.22-.87-.453-1.13zM10.444 4h3.99v.972h-3.99V4z"/></svg>