<?xml version="1.0" encoding="utf-8"?><!DOCTYPE svg PUBLIC "-//W3C//DTD SVG 1.1//EN" "http://www.w3.org/Graphics/SVG/1.1/DTD/svg11.dtd"><svg xmlns="http://www.w3.org/2000/svg" width="16" height="16" viewBox="0 0 16 16"><path fill="#444" d="M8.143 15.143Q8.143 15 8 15q-.527 0-.906-.38t-.38-.905q0-.143-.142-.143t-.143.143q0 .652.46 1.112t1.11.46q.144 0 .144-.143zM2.196 12.57h11.607q-2.375-2.678-2.375-7.428 0-.455-.214-.938t-.616-.92-1.085-.72T8 2.285t-1.513.28-1.085.72-.616.92-.214.938q0 4.75-2.375 7.43zm13.233 0q0 .465-.34.805t-.804.34h-4q0 .945-.67 1.615T8 16t-1.616-.67-.67-1.616h-4q-.464 0-.804-.34t-.34-.803q.447-.374.814-.785t.76-1.067.664-1.415.446-1.84.174-2.32q0-1.357 1.045-2.522t2.74-1.414q-.07-.17-.07-.348 0-.357.25-.607T8 0t.607.25.25.608q0 .18-.07.348 1.695.25 2.74 1.415t1.045 2.523q0 1.24.174 2.32t.446 1.84.665 1.415.76 1.067.812.786z"/></svg>