<?xml version="1.0" encoding="utf-8"?><!DOCTYPE svg PUBLIC "-//W3C//DTD SVG 1.1//EN" "http://www.w3.org/Graphics/SVG/1.1/DTD/svg11.dtd"><svg xmlns="http://www.w3.org/2000/svg" width="18" height="16" viewBox="0 0 18 16"><path fill="#444" d="M13.91 7.607q.546 3.18 2.662 4.964 0 .465-.34.805t-.803.34h-4q0 .945-.67 1.615T9.142 16t-1.612-.665-.673-1.612zm-4.767 7.68q.143 0 .143-.144T9.143 15q-.527 0-.906-.38t-.38-.905q0-.143-.142-.143t-.143.143q0 .652.46 1.112t1.112.46zM18.09 1q.07.09.066.21t-.094.2L1.348 15.894q-.09.07-.21.063t-.192-.098L.196 15q-.07-.088-.067-.21t.093-.19l1.66-1.44q-.17-.285-.17-.588.447-.375.814-.786t.76-1.067.664-1.416.447-1.84.174-2.32q0-1.357 1.046-2.522t2.74-1.415q-.07-.17-.07-.348 0-.358.25-.608t.607-.25.607.25.25.607q0 .178-.07.347 1.106.16 1.954.737t1.32 1.406L16.938.11q.09-.072.21-.064t.192.098z"/></svg>