<?xml version="1.0" encoding="utf-8"?><!DOCTYPE svg PUBLIC "-//W3C//DTD SVG 1.1//EN" "http://www.w3.org/Graphics/SVG/1.1/DTD/svg11.dtd"><svg xmlns="http://www.w3.org/2000/svg" width="18" height="16" viewBox="0 0 18 16"><path d="M3.5 2h-3a.5.5 0 0 0-.5.5v11a.5.5 0 0 0 .5.5h3a.5.5 0 0 0 .5-.5v-11a.5.5 0 0 0-.5-.5zM3 5H1V4h2v1zM8.5 2h-3a.5.5 0 0 0-.5.5v11a.5.5 0 0 0 .5.5h3a.5.5 0 0 0 .5-.5v-11a.5.5 0 0 0-.5-.5zM8 5H6V4h2v1z"/><path d="M11.954 2.773l-2.68 1.35a.502.502 0 0 0-.22.67l4.5 8.93a.502.502 0 0 0 .67.223l2.68-1.35a.502.502 0 0 0 .22-.67l-4.5-8.93a.502.502 0 0 0-.67-.223z"/></svg>