<?xml version="1.0" encoding="utf-8"?><!DOCTYPE svg PUBLIC "-//W3C//DTD SVG 1.1//EN" "http://www.w3.org/Graphics/SVG/1.1/DTD/svg11.dtd"><svg xmlns="http://www.w3.org/2000/svg" width="18" height="16" viewBox="0 0 18 16"><path d="M17 14.08c0 .712.407 1.328 1 1.63v.248a3.71 3.71 0 0 1-3.207-1.125A5.03 5.03 0 0 1 13.5 15C11.015 15 9 13.21 9 11s2.015-4 4.5-4S18 8.793 18 11a3.69 3.69 0 0 1-.834 2.32 1.81 1.81 0 0 0-.166.762zM3.604 3.457C2.57 4.296 2 5.378 2 6.5c0 .63.175 1.24.52 1.815.356.592.89 1.134 1.547 1.566.474.313.793.813.878 1.374.028.187.046.376.053.564.117-.097.23-.2.342-.312a2 2 0 0 1 1.666-.57c.327.042.662.063.994.063v2c-.424 0-.84-.028-1.246-.08-1.718 1.718-3.77 2.027-5.753 2.072v-.42c1.072-.526 2-1.48 2-2.573a3.01 3.01 0 0 0-.033-.45C1.157 10.36 0 8.54 0 6.5 0 2.91 3.584 0 8 0 12.353 0 15.89 2.82 16 6.334a6.083 6.083 0 0 0-2.067-.51c-.18-.875-.708-1.7-1.534-2.37A6.3 6.3 0 0 0 10.464 2.4C9.687 2.135 8.858 2 8 2s-1.687.134-2.464.4c-.73.252-1.38.606-1.932 1.055z"/></svg>