<?xml version="1.0" encoding="utf-8"?><!DOCTYPE svg PUBLIC "-//W3C//DTD SVG 1.1//EN" "http://www.w3.org/Graphics/SVG/1.1/DTD/svg11.dtd"><svg xmlns="http://www.w3.org/2000/svg" width="18" height="16" viewBox="0 0 18 16"><path d="M7.5 0C11.642 0 15 2.717 15 6.07s-3.358 6.068-7.5 6.068a9.16 9.16 0 0 1-1.17-.074C4.72 13.67 2.86 13.956 1 14v-.394c1.004-.49 1.813-1.382 1.813-2.402 0-.142-.01-.282-.032-.42C1.086 9.673 0 7.975 0 6.07c0-3.352 3.358-6.07 7.5-6.07zm8.063 13.604c0 .874.567 1.64 1.438 2.06V16c-1.61-.036-3.09-.283-4.486-1.658-.33.04-.67.063-1.013.063-1.49 0-2.865-.402-3.962-1.08 2.26-.007 4.395-.73 6.013-2.04a7.346 7.346 0 0 0 1.914-2.303 6.23 6.23 0 0 0 .704-3.4C17.302 6.518 18 7.795 18 9.202c0 1.633-.94 3.09-2.41 4.043a2.36 2.36 0 0 0-.027.36z"/></svg>