<?xml version="1.0" encoding="utf-8"?><!DOCTYPE svg PUBLIC "-//W3C//DTD SVG 1.1//EN" "http://www.w3.org/Graphics/SVG/1.1/DTD/svg11.dtd"><svg xmlns="http://www.w3.org/2000/svg" width="16" height="16" viewBox="0 0 16 16"><path d="M16 6.707c0-3.14-.92-5.687-2.054-5.707h.014-1.296S9.62 3.287 5.24 4.184c-.135.708-.22 1.55-.22 2.523s.085 1.816.22 2.523c4.38.897 7.424 3.184 7.424 3.184h1.296-.014C15.082 12.393 16 9.845 16 6.705zm-2.487 4.844c-.147 0-.305-.15-.387-.242-.197-.22-.387-.562-.55-.99-.363-.956-.564-2.238-.564-3.61s.2-2.655.564-3.61c.162-.43.353-.77.55-.99.08-.092.24-.244.387-.244s.305.152.387.243c.197.22.387.562.55.99.363.957.564 2.24.564 3.61s-.2 2.656-.564 3.612c-.162.427-.353.77-.55.988-.08.09-.24.243-.387.243zM3.935 6.708c0-.812.06-1.6.173-2.33-.74.102-1.39.16-2.193.16H.867L0 6.018v1.378l.867 1.48h1.048c.803 0 1.453.058 2.193.16a15.326 15.326 0 0 1-.173-2.33zm1.817 3.327l-2-.383 1.28 5.025c.065.26.323.39.572.29l1.852-.74c.25-.1.35-.374.222-.61l-1.926-3.582zm7.76-1.46c-.056 0-.117-.06-.148-.094a1.268 1.268 0 0 1-.212-.38c-.14-.37-.217-.864-.217-1.393s.077-1.023.217-1.392c.063-.165.136-.297.212-.38.03-.036.092-.095.15-.095s.117.06.148.094c.076.085.15.217.212.38.14.37.217.864.217 1.393s-.076 1.023-.216 1.392a1.243 1.243 0 0 1-.212.38c-.03.035-.092.094-.15.094z"/></svg>