<?xml version="1.0" encoding="utf-8"?><!DOCTYPE svg PUBLIC "-//W3C//DTD SVG 1.1//EN" "http://www.w3.org/Graphics/SVG/1.1/DTD/svg11.dtd"><svg xmlns="http://www.w3.org/2000/svg" width="16" height="16" viewBox="0 0 16 16"><path d="M12.294 6.137c-.922 0-1.75.384-2.34 1.01-.25.266-.685.58-1.154.857.22-.842.917-1.902 1.4-2.367a3.27 3.27 0 0 0 1-2.367C11.2 1.475 9.77.018 8 0 6.23.017 4.8 1.473 4.8 3.27c0 .932.38 1.77 1 2.367.484.465 1.18 1.525 1.4 2.367-.47-.277-.903-.59-1.153-.856a3.197 3.197 0 0 0-2.34-1.01C1.918 6.137.47 7.6.47 9.407s1.448 3.27 3.236 3.27c.923 0 1.75-.395 2.34-1.022.264-.28.727-.627 1.224-.916-.047 2.308-1.15 4.003-2.27 4.67V16h6v-.59c-1.123-.668-2.225-2.363-2.272-4.67.498.29.96.637 1.223.916a3.21 3.21 0 0 0 2.342 1.023c1.787 0 3.236-1.465 3.236-3.272s-1.448-3.27-3.236-3.27z"/></svg>