<?xml version="1.0" encoding="utf-8"?><!DOCTYPE svg PUBLIC "-//W3C//DTD SVG 1.1//EN" "http://www.w3.org/Graphics/SVG/1.1/DTD/svg11.dtd"><svg xmlns="http://www.w3.org/2000/svg" width="16" height="16" viewBox="0 0 16 16"><path d="M14.59 9.535a3.053 3.053 0 0 1 1.127-4.164L14.145 2.65c-.45.263-.972.414-1.53.414A3.052 3.052 0 0 1 9.576 0H6.428a3.01 3.01 0 0 1-.407 1.535c-.84 1.454-2.706 1.948-4.17 1.106L.28 5.365A3 3 0 0 1 1.405 6.48a3.053 3.053 0 0 1-1.12 4.16l1.572 2.724a3.01 3.01 0 0 1 1.522-.41A3.052 3.052 0 0 1 6.42 16h3.145c0-.517.13-1.04.406-1.52a3.053 3.053 0 0 1 4.164-1.11l1.572-2.722a3.008 3.008 0 0 1-1.116-1.113zM8 11.24a3.24 3.24 0 1 1 0-6.48 3.24 3.24 0 0 1 0 6.48z"/></svg>