<?xml version="1.0" encoding="utf-8"?><!DOCTYPE svg PUBLIC "-//W3C//DTD SVG 1.1//EN" "http://www.w3.org/Graphics/SVG/1.1/DTD/svg11.dtd"><svg xmlns="http://www.w3.org/2000/svg" width="16" height="16" viewBox="0 0 16 16"><path d="M7.5 1a7.5 7.5 0 1 0 0 15 7.5 7.5 0 0 0 0-15zm0 13.5a6 6 0 1 1 0-12 6 6 0 0 1 0 12z"/><path d="M9.5 11H6V9h1.5a.5.5 0 0 0 0-1H6v-.5a1.502 1.502 0 0 1 2.8-.75.5.5 0 1 0 .865-.5A2.51 2.51 0 0 0 7.5 5 2.503 2.503 0 0 0 5 7.5V8h-.5a.5.5 0 0 0 0 1H5v3h4.5a.5.5 0 0 0 0-1z"/></svg>