<?xml version="1.0" encoding="utf-8"?><!DOCTYPE svg PUBLIC "-//W3C//DTD SVG 1.1//EN" "http://www.w3.org/Graphics/SVG/1.1/DTD/svg11.dtd"><svg xmlns="http://www.w3.org/2000/svg" width="16" height="16" viewBox="0 0 16 16"><path d="M8 0a8 8 0 1 0 0 16A8 8 0 0 0 8 0zm3 4a1 1 0 1 1 0 2 1 1 0 0 1 0-2zM5 4a1 1 0 1 1 0 2 1 1 0 0 1 0-2zm5.735 8.665A2.502 2.502 0 0 1 7.53 11.17a1.502 1.502 0 0 0-1.922-.895A1.502 1.502 0 0 0 4.655 12H3.642a2.505 2.505 0 0 1 1.624-2.665A2.502 2.502 0 0 1 8.47 10.83a1.502 1.502 0 0 0 1.923.895A1.502 1.502 0 0 0 11.346 10h1.014a2.505 2.505 0 0 1-1.624 2.665z"/></svg>