<?xml version="1.0" encoding="utf-8"?><!DOCTYPE svg PUBLIC "-//W3C//DTD SVG 1.1//EN" "http://www.w3.org/Graphics/SVG/1.1/DTD/svg11.dtd"><svg xmlns="http://www.w3.org/2000/svg" width="16" height="16" viewBox="0 0 16 16"><path d="M8 0a8 8 0 1 0 0 16A8 8 0 0 0 8 0zM5 11.5a.5.5 0 0 1-1 0v-1a.5.5 0 0 1 1 0v1zm0-3a.5.5 0 0 1-1 0v-1a.5.5 0 0 1 1 0v1zM5.5 6h-2a.5.5 0 0 1 0-1h2a.5.5 0 0 1 0 1zm4.354 7.23a.498.498 0 0 1-.708 0C9.074 13.156 8.686 13 8 13s-1.075.157-1.146.23a.5.5 0 0 1-.707-.708c.47-.47 1.453-.52 1.854-.52s1.384.05 1.855.52a.5.5 0 0 1 0 .707zM12 11.5a.5.5 0 0 1-1 0v-1a.5.5 0 0 1 1 0v1zm0-3a.5.5 0 0 1-1 0v-1a.5.5 0 0 1 1 0v1zm.5-2.5h-2a.5.5 0 0 1 0-1h2a.5.5 0 0 1 0 1z"/></svg>