<?xml version="1.0" encoding="utf-8"?><!DOCTYPE svg PUBLIC "-//W3C//DTD SVG 1.1//EN" "http://www.w3.org/Graphics/SVG/1.1/DTD/svg11.dtd"><svg xmlns="http://www.w3.org/2000/svg" width="16" height="16" viewBox="0 0 16 16"><path d="M13.5 3h-8A2.507 2.507 0 0 0 3 5.5v8C3 14.875 4.125 16 5.5 16h8c1.375 0 2.5-1.125 2.5-2.5v-8C16 4.125 14.875 3 13.5 3zm-7 11a1.5 1.5 0 1 1 0-3 1.5 1.5 0 0 1 0 3zm0-6a1.5 1.5 0 1 1 0-3 1.5 1.5 0 0 1 0 3zm3 3a1.5 1.5 0 1 1 0-3 1.5 1.5 0 0 1 0 3zm3 3a1.5 1.5 0 1 1 0-3 1.5 1.5 0 0 1 0 3zm0-6a1.5 1.5 0 1 1 0-3 1.5 1.5 0 0 1 0 3zm.45-6a2.51 2.51 0 0 0-2.45-2h-8A2.507 2.507 0 0 0 0 2.5v8a2.51 2.51 0 0 0 2 2.45V3c0-.55.45-1 1-1h9.95z"/></svg>