<?xml version="1.0" encoding="utf-8"?><!DOCTYPE svg PUBLIC "-//W3C//DTD SVG 1.1//EN" "http://www.w3.org/Graphics/SVG/1.1/DTD/svg11.dtd"><svg xmlns="http://www.w3.org/2000/svg" width="16" height="16" viewBox="0 0 16 16"><path d="M8 16c-4.412 0-8-3.588-8-8s3.587-8 8-8c4.412 0 8 3.587 8 8s-3.588 8-8 8zm6.747-6.906c-.234-.075-2.116-.634-4.256-.29a29.7 29.7 0 0 1 1.33 4.87 6.845 6.845 0 0 0 2.927-4.58zM10.67 14.3c-.104-.6-.498-2.688-1.457-5.18-.016.005-.03.008-.044.015C5.312 10.48 3.927 13.15 3.806 13.4a6.807 6.807 0 0 0 6.863.9zM2.92 12.578c.156-.266 2.03-3.37 5.553-4.51a7.04 7.04 0 0 1 .27-.08 24.04 24.04 0 0 0-.554-1.16c-3.408 1.023-6.72.98-7.02.976-.004.07-.004.138-.004.21 0 1.752.666 3.355 1.756 4.565zm-1.61-5.97c.307.004 3.123.017 6.32-.83a43.092 43.092 0 0 0-2.534-3.953A6.854 6.854 0 0 0 1.314 6.61zM6.4 1.367c.188.253 1.43 1.944 2.55 4 2.43-.91 3.46-2.294 3.58-2.47a6.8 6.8 0 0 0-6.13-1.53zm6.89 2.325c-.143.195-1.29 1.664-3.815 2.695.16.325.313.656.453.99.05.12.1.235.147.354 2.275-.285 4.534.17 4.76.218a6.816 6.816 0 0 0-1.545-4.256z"/></svg>