<?xml version="1.0" encoding="utf-8"?><!DOCTYPE svg PUBLIC "-//W3C//DTD SVG 1.1//EN" "http://www.w3.org/Graphics/SVG/1.1/DTD/svg11.dtd"><svg xmlns="http://www.w3.org/2000/svg" width="16" height="16" viewBox="0 0 16 16"><path d="M.24 7.103C.71 3.403 3.236.047 7.76 0c2.73.053 4.978 1.29 6.316 3.65.672 1.23.88 2.525.925 3.953V9.28H4.96c.047 4.142 6.094 4 8.697 2.176v3.372c-1.525.916-4.984 1.734-7.662.68-2.28-.855-3.906-3.243-3.897-5.54-.075-2.978 1.48-4.95 3.897-6.072-.513.634-.903 1.334-1.106 2.547h5.668s.33-3.388-3.21-3.388C4.012 3.17 1.606 5.11.244 7.102z"/></svg>