<?xml version="1.0" encoding="utf-8"?><!DOCTYPE svg PUBLIC "-//W3C//DTD SVG 1.1//EN" "http://www.w3.org/Graphics/SVG/1.1/DTD/svg11.dtd"><svg xmlns="http://www.w3.org/2000/svg" width="16" height="16" viewBox="0 0 16 16"><path d="M14.78.22a.75.75 0 0 0-1.06 0l-3.16 3.16A8.815 8.815 0 0 0 8 3C4.51 3 1.484 5.034 0 8A9.176 9.176 0 0 0 2.7 11.238L.218 13.72a.75.75 0 1 0 1.06 1.062l13.5-13.5a.75.75 0 0 0 0-1.06zM6.5 5a1.5 1.5 0 0 1 1.42 1.02l-1.9 1.9A1.5 1.5 0 0 1 6.5 5zM1.72 8a7.594 7.594 0 0 1 2.52-2.462A3.98 3.98 0 0 0 4 6.908c0 .857.27 1.65.73 2.302l-.952.952A7.625 7.625 0 0 1 1.72 8zM12 6.906c0-.424-.066-.833-.19-1.217l-5.027 5.027A4 4 0 0 0 12 6.907z"/><path d="M12.97 4.53l-1.085 1.085.06.037c.94.6 1.736 1.403 2.334 2.348a7.594 7.594 0 0 1-2.336 2.348 7.326 7.326 0 0 1-5.725.933l-1.202 1.202A8.808 8.808 0 0 0 8 13c3.49 0 6.514-2.032 8-5a9.142 9.142 0 0 0-3.03-3.47z"/></svg>