<?xml version="1.0" encoding="utf-8"?><!DOCTYPE svg PUBLIC "-//W3C//DTD SVG 1.1//EN" "http://www.w3.org/Graphics/SVG/1.1/DTD/svg11.dtd"><svg xmlns="http://www.w3.org/2000/svg" width="16" height="16" viewBox="0 0 16 16"><path d="M13 14H3v-2l3-5 4.11 5L13 10v4zM13 7.5a1.5 1.5 0 1 1-3 0 1.5 1.5 0 0 1 3 0z"/><path d="M14.34 3.58c-.346-.474-.83-1.028-1.36-1.56S11.893 1.007 11.42.66C10.616.067 10.225 0 10 0H2.25C1.56 0 1 .56 1 1.25v13.5c0 .69.56 1.25 1.25 1.25h11.5c.69 0 1.25-.56 1.25-1.25V5c0-.224-.068-.615-.66-1.42zm-2.07-.85c.48.48.857.91 1.135 1.27H11V1.595c.358.278.79.654 1.27 1.134zM14 14.75c0 .136-.114.25-.25.25H2.25a.253.253 0 0 1-.25-.25V1.25c0-.135.115-.25.25-.25H10v3.5a.5.5 0 0 0 .5.5H14v9.75z"/></svg>