<?xml version="1.0" encoding="utf-8"?><!DOCTYPE svg PUBLIC "-//W3C//DTD SVG 1.1//EN" "http://www.w3.org/Graphics/SVG/1.1/DTD/svg11.dtd"><svg xmlns="http://www.w3.org/2000/svg" width="16" height="16" viewBox="0 0 16 16"><path d="M14.34 5.58c-.346-.474-.83-1.028-1.36-1.56s-1.086-1.014-1.56-1.36C10.616 2.067 10.225 2 10 2H4.25C3.56 2 3 2.56 3 3.25v11.5c0 .69.56 1.25 1.25 1.25h9.5c.69 0 1.25-.56 1.25-1.25V7c0-.224-.068-.615-.66-1.42zm-2.07-.85c.48.48.857.91 1.135 1.27H11V3.595c.358.278.79.654 1.27 1.134zM14 14.75c0 .136-.114.25-.25.25h-9.5a.253.253 0 0 1-.25-.25V3.25c0-.135.114-.25.25-.25H10v3.5a.5.5 0 0 0 .5.5H14v7.75z"/><path d="M9.42.66C8.616.067 8.225 0 8 0H2.25C1.56 0 1 .56 1 1.25v11.5c0 .604.43 1.11 1 1.225V1.25c0-.135.115-.25.25-.25h7.607C9.707.876 9.56.762 9.42.66z"/></svg>