<?xml version="1.0" encoding="utf-8"?><!DOCTYPE svg PUBLIC "-//W3C//DTD SVG 1.1//EN" "http://www.w3.org/Graphics/SVG/1.1/DTD/svg11.dtd"><svg xmlns="http://www.w3.org/2000/svg" width="16" height="16" viewBox="0 0 16 16"><path d="M15.977 5.22l-.185 1.19s-.265-2.2-.59-3.024c-.498-1.26-.72-1.25-.72-1.25.333.848.273 1.303.273 1.303s-.59-1.61-2.152-2.122C10.873.75 9.938.906 9.83.935h-.047c.013 0 .025.002.038.003.007.01 1.91.334 2.25.798 0 0-.81 0-1.615.232-.036.01 2.96.374 3.574 3.37 0 0-.33-.686-.736-.802.267.813.2 2.356-.056 3.123-.033.098-.066-.427-.568-.653.16 1.15-.01 2.976-.808 3.48-.062.038.5-1.803.113-1.09-2.23 3.418-4.866 1.577-6.05.766.606.132 1.76-.02 2.27-.4h.002c.554-.38.882-.657 1.177-.59s.49-.23.262-.494a1.527 1.527 0 0 0-1.54-.43c-.53.14-1.19.728-2.193.133-.77-.457-.844-.837-.85-1.1.018-.093.042-.18.07-.26.09-.248.36-.323.51-.382.253.045.472.124.702.242a4.05 4.05 0 0 0 0-.293c.022-.045.008-.177-.027-.338a2.364 2.364 0 0 0-.106-.48h.002c0-.002.002-.003.003-.004l.004-.008c.017-.072.19-.21.403-.36.192-.135.417-.278.595-.388.157-.098.277-.17.302-.19.01-.006.02-.015.034-.025l.007-.006c.003 0 .004 0 .005-.003a.623.623 0 0 0 .237-.462v-.002c0-.008 0-.016.002-.024V4.28c0-.004 0-.01.002-.013v-.033-.002-.08a.268.268 0 0 0-.006-.044v-.005l-.003-.007a.05.05 0 0 0-.003-.008c-.027-.064-.13-.088-.554-.096a36.33 36.33 0 0 0-.696-.002c-.52.002-.807-.508-.898-.705.126-.695.49-1.19 1.085-1.525.012-.006.01-.012-.003-.015.117-.07-1.41-.002-2.112.89-.623-.154-1.166-.143-1.635-.034a2.024 2.024 0 0 1-.335-.04c-.31-.283-.757-.804-.78-1.426 0 0-.002 0-.005.003v-.018s-.95.73-.808 2.717c0 .03 0 .06-.002.09-.257.35-.384.642-.394.707C.418 5.1.188 5.797 0 6.855c0 0 .13-.417.395-.89C.2 6.56.05 7.486.138 8.87c0 0 .024-.307.107-.75.065.86.352 1.92 1.076 3.17 1.39 2.395 3.527 3.604 5.888 3.79.42.035.845.035 1.272.003l.118-.01c.484-.033.97-.106 1.457-.223 6.643-1.606 5.92-9.628 5.92-9.628z"/></svg>