<?xml version="1.0" encoding="utf-8"?><!DOCTYPE svg PUBLIC "-//W3C//DTD SVG 1.1//EN" "http://www.w3.org/Graphics/SVG/1.1/DTD/svg11.dtd"><svg xmlns="http://www.w3.org/2000/svg" width="16" height="16" viewBox="0 0 16 16"><path d="M12.494.253C11.08.253 10.172 0 8.714 0 4.008 0 1.813 2.68 1.813 5.404c0 1.604.76 2.132 2.26 2.132-.107-.232-.297-.486-.297-1.626 0-3.188 1.203-4.117 2.744-4.18 0 0-1.265 12.396-4.935 13.883v.385h4.947l1.688-8h3.09l.69-2H8.642l.812-3.847c.93.19 1.837.38 2.618.38.97 0 1.858-.295 2.343-2.532-.59.19-1.224.253-1.92.253z"/></svg>