<?xml version="1.0" encoding="utf-8"?><!DOCTYPE svg PUBLIC "-//W3C//DTD SVG 1.1//EN" "http://www.w3.org/Graphics/SVG/1.1/DTD/svg11.dtd"><svg xmlns="http://www.w3.org/2000/svg" width="16" height="16" viewBox="0 0 16 16"><path d="M4 10.25v1.5c0 .136.114.25.25.25H6v-2H4.25a.253.253 0 0 0-.25.25zM7 10h2v2H7v-2zM11.75 10H10v2h1.75c.136 0 .25-.114.25-.25v-1.5a.253.253 0 0 0-.25-.25z"/><path d="M8 0a8 8 0 1 0 0 16A8 8 0 0 0 8 0zm1.002 5.946c.032-.74.706-1.234 1.275-1.518.543-.27 1.08-.407 1.102-.413a.5.5 0 0 1 .24.97c-.274.07-.6.19-.89.334A.998.998 0 0 1 10 7a1 1 0 0 1-1-1v-.054zM4.015 4.38a.5.5 0 0 1 .606-.365c.024.006.56.14 1.103.413.568.284 1.243.776 1.275 1.518L7 6a1 1 0 1 1-1.732-.68 4.638 4.638 0 0 0-.89-.335.5.5 0 0 1-.364-.606zM13 11.75c0 .69-.56 1.25-1.25 1.25h-7.5C3.56 13 3 12.44 3 11.75v-1.5C3 9.56 3.56 9 4.25 9h7.5c.69 0 1.25.56 1.25 1.25v1.5z"/></svg>