<?xml version="1.0" encoding="utf-8"?><!DOCTYPE svg PUBLIC "-//W3C//DTD SVG 1.1//EN" "http://www.w3.org/Graphics/SVG/1.1/DTD/svg11.dtd"><svg xmlns="http://www.w3.org/2000/svg" width="16" height="16" viewBox="0 0 16 16"><path d="M12.153.263a.5.5 0 0 0-.44-.263H4.288a.5.5 0 0 0-.44.263C3.294 1.295 3 2.5 3 3.75c0 1.647.507 3.2 1.425 4.374.71.907 1.6 1.508 2.576 1.753V15H5.5a.5.5 0 0 0 0 1h5a.5.5 0 0 0 0-1H9V9.877c.976-.244 1.867-.846 2.577-1.753C12.495 6.95 13 5.397 13 3.75c0-1.25-.292-2.455-.846-3.487zM4.595 1h6.81a6.46 6.46 0 0 1 .59 3H4.002a6.46 6.46 0 0 1 .59-3z"/></svg>