<?xml version="1.0" encoding="utf-8"?><!DOCTYPE svg PUBLIC "-//W3C//DTD SVG 1.1//EN" "http://www.w3.org/Graphics/SVG/1.1/DTD/svg11.dtd"><svg xmlns="http://www.w3.org/2000/svg" width="16" height="16" viewBox="0 0 16 16"><path d="M5.09 7.147v1.747h2.89c-.117.75-.873 2.197-2.89 2.197-1.736 0-3.155-1.44-3.155-3.215S3.355 4.66 5.09 4.66c.992 0 1.65.42 2.03.783l1.38-1.33c-.888-.83-2.037-1.332-3.41-1.332C2.276 2.785 0 5.06 0 7.876s2.275 5.09 5.09 5.09c2.938 0 4.89-2.065 4.89-4.974 0-.333-.038-.59-.082-.843H5.092zM16 7h-1.5V5.5H13V7h-1.5v1.5H13V10h1.5V8.5H16z"/></svg>