<?xml version="1.0" encoding="utf-8"?><!DOCTYPE svg PUBLIC "-//W3C//DTD SVG 1.1//EN" "http://www.w3.org/Graphics/SVG/1.1/DTD/svg11.dtd"><svg xmlns="http://www.w3.org/2000/svg" width="16" height="16" viewBox="0 0 16 16"><path d="M11.39 8C13.542 6.635 15 4.012 15 1c0-.34-.02-.672-.054-1H1.056C1.018.328 1 .66 1 1 1 4.012 2.46 6.635 4.61 8 2.458 9.365 1 11.988 1 15c0 .34.02.672.055 1h13.89c.037-.328.055-.66.055-1 0-3.012-1.457-5.635-3.61-7zM2.5 15c0-2.92 1.253-5.397 3.5-6.214V7.214C3.753 6.397 2.5 3.92 2.5 1h11c0 2.92-1.253 5.397-3.5 6.214v1.572c2.247.817 3.5 3.294 3.5 6.214h-11zm7.182-4.538c-1.12-.635-1.18-1.46-1.182-1.96V7.5c0-.5.06-1.328 1.184-1.964.602-.35 1.122-.88 1.516-1.537H4.8c.395.656.916 1.187 1.518 1.537 1.12.635 1.18 1.46 1.182 1.96V8.5c0 .5-.06 1.327-1.184 1.963-1.135.66-1.98 1.964-2.236 3.537h7.84c-.257-1.574-1.103-2.88-2.24-3.538z"/></svg>