<?xml version="1.0" encoding="utf-8"?><!DOCTYPE svg PUBLIC "-//W3C//DTD SVG 1.1//EN" "http://www.w3.org/Graphics/SVG/1.1/DTD/svg11.dtd"><svg xmlns="http://www.w3.org/2000/svg" width="16" height="16" viewBox="0 0 16 16"><path d="M11.472 9.825h3.688c.028-.256.04-.517.04-.784 0-1.252-.336-2.428-.924-3.44.607-1.615.586-2.985-.227-3.804-.774-.77-2.85-.645-5.195.394a6.876 6.876 0 0 0-7.193 5.18c1.01-1.292 2.07-2.23 3.49-2.912-.128.12-.88.87-1.008.996-3.743 3.742-4.923 8.63-3.653 9.9.965.965 2.715.802 4.725-.182a6.836 6.836 0 0 0 3.113.744 6.87 6.87 0 0 0 6.5-4.648h-3.716a3.026 3.026 0 0 1-5.32 0 3.042 3.042 0 0 1-.358-1.432v-.01h6.035zm-6.03-1.812C5.527 6.496 6.79 5.285 8.33 5.285s2.8 1.21 2.886 2.728H5.442zm8.573-5.454c.524.528.51 1.502.063 2.718a6.895 6.895 0 0 0-3.2-2.62c1.408-.603 2.553-.683 3.137-.1zM1.46 15.112c-.667-.67-.466-2.072.395-3.763a6.902 6.902 0 0 0 2.927 3.58c-1.49.678-2.712.793-3.32.183z"/></svg>