<?xml version="1.0" encoding="utf-8"?><!DOCTYPE svg PUBLIC "-//W3C//DTD SVG 1.1//EN" "http://www.w3.org/Graphics/SVG/1.1/DTD/svg11.dtd"><svg xmlns="http://www.w3.org/2000/svg" width="16" height="16" viewBox="0 0 16 16"><path d="M4.156 4.323a1.312 1.312 0 0 1 1.856 0l.122.123 1.58-1.58-.123-.124a3.538 3.538 0 0 0-3.318-.946A2.142 2.142 0 0 0 2.16 0a2.143 2.143 0 0 0-.473 4.234 3.552 3.552 0 0 0 .888 3.53l3.56 3.562 1.578-1.58-3.56-3.562a1.318 1.318 0 0 1 .003-1.86zm11.824-2.18a2.14 2.14 0 0 0-4.26-.296 3.543 3.543 0 0 0-3.51.897l-3.56 3.56 1.58 1.582 3.56-3.56a1.31 1.31 0 0 1 1.853-.003 1.316 1.316 0 0 1 0 1.86l-.123.12 1.578 1.583.123-.124a3.55 3.55 0 0 0 .9-3.494 2.142 2.142 0 0 0 1.86-2.125zm-1.82 9.592a3.55 3.55 0 0 0-.94-3.352L9.667 4.82 8.086 6.4l3.555 3.564a1.313 1.313 0 0 1-1.853 1.857l-.12-.12-1.58 1.58.122.122a3.544 3.544 0 0 0 3.552.883A2.14 2.14 0 0 0 16 13.858c0-1.08-.8-1.976-1.84-2.122zM9.568 8.26l-3.555 3.563a1.316 1.316 0 0 1-1.86-1.86l.122-.12-1.58-1.58-.12.12a3.55 3.55 0 0 0-.93 3.39A2.142 2.142 0 0 0 0 13.856a2.14 2.14 0 0 0 4.227.48 3.54 3.54 0 0 0 3.365-.933l3.555-3.562L9.57 8.26z"/></svg>