<?xml version="1.0" encoding="utf-8"?><!DOCTYPE svg PUBLIC "-//W3C//DTD SVG 1.1//EN" "http://www.w3.org/Graphics/SVG/1.1/DTD/svg11.dtd"><svg xmlns="http://www.w3.org/2000/svg" width="16" height="16" viewBox="0 0 16 16"><path d="M8.354.354A1.394 1.394 0 0 0 7.5 0h-6a.5.5 0 0 0-.5.5v15a.5.5 0 0 0 .5.5h12a.5.5 0 0 0 .5-.5v-9c0-.275-.16-.66-.354-.854L8.353.353zM13 15H2V1h5.487c.046.008.13.043.17.07l5.273 5.274a.545.545 0 0 1 .07.17V15zm.5-15h-3c-.275 0-.34.16-.146.354l3.293 3.293c.194.194.354.13.354-.146v-3a.5.5 0 0 0-.5-.5z"/></svg>