<?xml version="1.0" encoding="utf-8"?><!DOCTYPE svg PUBLIC "-//W3C//DTD SVG 1.1//EN" "http://www.w3.org/Graphics/SVG/1.1/DTD/svg11.dtd"><svg xmlns="http://www.w3.org/2000/svg" width="16" height="16" viewBox="0 0 16 16"><path d="M8 1a8 8 0 0 1 3.875 15h-7.75A8 8 0 0 1 8 1zm4.53 12.53A6.364 6.364 0 0 0 14.406 9H13V8h1.33a6.346 6.346 0 0 0-.666-2H12V5h1.004A6.372 6.372 0 0 0 10 2.91V4H9V2.67a6.506 6.506 0 0 0-2 0V4H6V2.91A6.384 6.384 0 0 0 2.993 5h1.004v1H2.334a6.346 6.346 0 0 0-.665 2h1.328v1H1.592c0 1.71.666 3.32 1.876 4.53.167.167.343.324.524.47h3.006l.57-8h.858l.57 8h3.007c.182-.146.357-.303.524-.47z"/></svg>