<?xml version="1.0" encoding="utf-8"?><!DOCTYPE svg PUBLIC "-//W3C//DTD SVG 1.1//EN" "http://www.w3.org/Graphics/SVG/1.1/DTD/svg11.dtd"><svg xmlns="http://www.w3.org/2000/svg" width="16" height="16" viewBox="0 0 16 16"><path d="M8 0a8 8 0 1 0 0 16A8 8 0 0 0 8 0zM4.732 13.034a4.5 4.5 0 0 0-2.688-5.762 5.953 5.953 0 0 1 1.714-3.514C4.89 2.625 6.398 2 8 2s3.11.625 4.244 1.758a5.958 5.958 0 0 1 1.714 3.514 4.5 4.5 0 0 0-2.688 5.762c-.964.63-2.09.966-3.268.966s-2.304-.338-3.268-.966zm3.89-3.018c.216.055.378.25.378.484v1a.5.5 0 0 1-.5.5h-1a.5.5 0 0 1-.5-.5v-1a.5.5 0 0 1 .38-.484L7.75 3h.5l.37 7.016z"/></svg>