<?xml version="1.0" encoding="iso-8859-1"?><!DOCTYPE svg PUBLIC "-//W3C//DTD SVG 1.1//EN" "http://www.w3.org/Graphics/SVG/1.1/DTD/svg11.dtd"><svg xmlns="http://www.w3.org/2000/svg" width="16" height="16" viewBox="0 0 424.98 424.98"><path d="M241.395 282.304c-1.587-1.738-3.595-3.038-5.67-4.12-4.518-2.357-9.46-3.786-14.365-5.076v38.016c7.963-.9 17.105-3.79 21.286-11.224 1.996-3.55 2.393-7.914 1.58-11.867-.44-2.142-1.352-4.108-2.83-5.73z"/><path d="M242.604 299.973l.042-.073a4.74 4.74 0 0 0-.042.073zM184.01 221.532c-1.37 2-2.23 4.27-2.466 6.684-.237 2.42-.104 5.11.815 7.387.874 2.17 2.707 3.772 4.6 5.062 2.122 1.444 4.457 2.572 6.835 3.528 1.995.803 4.24 1.57 6.658 2.313v-34.4c-6.11 1.304-12.788 4.088-16.444 9.426zM242.804 299.62c-.05.088-.104.18-.157.28.062-.115.11-.2.157-.28zM243.004 299.263c.013-.024.015-.026 0 0z"/><path d="M234.753 92.47c32.33-27.16 53.93-88.342 40.637-91.018-17.664-3.557-56.022 12.04-74.562 14.788-26.296 3.175-54.936-28.515-71.012-10.85-13.07 14.36 9.37 66.59 44.482 89.345C69.546 146.22-77.69 404.673 179.17 423.425c355.412 25.95 177.445-280.786 55.583-330.956zm30.523 203.828c-1.093 10.076-6.433 19.188-14.415 25.374-8.427 6.532-18.998 9.57-29.5 10.42v11.134c0 2.98-1.302 5.86-3.532 7.832-3.065 2.712-7.57 3.38-11.29 1.667-3.672-1.69-6.085-5.457-6.085-9.5V331.06c-1.8-.342-3.59-.75-5.356-1.234-9.816-2.697-18.92-7.954-25.572-15.732-3.313-3.877-6.014-8.276-7.882-13.025a47.162 47.162 0 0 1-1.304-3.783c-.346-1.157-.702-2.333-.825-3.54a10.46 10.46 0 0 1 1.137-5.888c1.938-3.707 6.022-5.946 10.192-5.574 4.104.364 7.7 3.212 8.993 7.124.398 1.205.668 2.44 1.115 3.632a23.292 23.292 0 0 0 1.607 3.43 26.647 26.647 0 0 0 4.59 5.876c3.693 3.56 8.398 5.872 13.303 7.248V268.23c-9.59-2.483-19.49-5.69-27.41-11.848-3.85-2.994-7.116-6.714-9.255-11.117-2.257-4.647-3.192-9.824-3.23-14.966-.04-5.222.953-10.397 3.13-15.154 2.04-4.454 4.978-8.453 8.58-11.768 7.7-7.087 17.927-11.04 28.186-12.492V179.33c0-2.98 1.3-5.86 3.53-7.833 3.067-2.71 7.57-3.38 11.29-1.667 3.672 1.69 6.086 5.457 6.086 9.5v11.493c1.367.172 2.73.378 4.086.624 10.074 1.823 19.927 5.983 27.294 13.246a39.888 39.888 0 0 1 8.356 12.01 38.31 38.31 0 0 1 1.477 3.823c.396 1.213.794 2.462.983 3.728.302 2.02-.006 4.11-.87 5.958-1.773 3.788-5.747 6.2-9.928 6.02-4.108-.178-7.83-2.853-9.3-6.693-.44-1.143-.658-2.352-1.105-3.49a18.42 18.42 0 0 0-1.708-3.293c-1.308-2.02-3.003-3.752-4.938-5.18-4.19-3.093-9.272-4.705-14.35-5.606v39.583c6.035 1.445 12.075 3.02 17.857 5.3 8.74 3.447 17.02 8.73 21.79 17.063-.74-1.298-1.46-2.563.025.043 1.457 2.56.76 1.34.03.056 3.794 6.688 5.04 14.685 4.216 22.282z"/><path d="M242.493 300.17l-.156.277c.036-.063.09-.158.156-.278z"/></svg>