<?xml version="1.0" encoding="utf-8"?><!DOCTYPE svg PUBLIC "-//W3C//DTD SVG 1.1//EN" "http://www.w3.org/Graphics/SVG/1.1/DTD/svg11.dtd"><svg xmlns="http://www.w3.org/2000/svg" width="16" height="16" viewBox="0 0 16 16"><path d="M15.91 4.56L11.44.09c-.147-.145-.34-.112-.428.074l-.6 1.248 4.176 4.175 1.248-.6c.186-.088.22-.28.073-.426zM9.615 2.115L5.5 2.458c-.273.034-.5.092-.58.45C3.804 8.268 0 13.498 0 13.498l.896.897 4.25-4.25a1.5 1.5 0 1 1 .707.707l-4.25 4.25.896.896s5.23-3.804 10.59-4.92c.358-.078.416-.306.45-.58l.343-4.115-4.27-4.27z"/></svg>