<?xml version="1.0" encoding="utf-8"?><!DOCTYPE svg PUBLIC "-//W3C//DTD SVG 1.1//EN" "http://www.w3.org/Graphics/SVG/1.1/DTD/svg11.dtd"><svg xmlns="http://www.w3.org/2000/svg" width="16" height="16" viewBox="0 0 16 16"><path d="M15 9.5V7a1.502 1.502 0 0 0-2.236-1.307 1.5 1.5 0 0 0-2.264-.31A1.494 1.494 0 0 0 9 5.086V1.5C9 .673 8.327 0 7.5 0S6 .673 6 1.5v6.167L3.25 6.2a1.502 1.502 0 0 0-1.79 2.38l.013.013L5.21 12H4.5a.5.5 0 0 0-.5.5v3a.5.5 0 0 0 .5.5h10a.5.5 0 0 0 .5-.5v-3a.5.5 0 0 0-.5-.5h-.69l1.137-2.276A.496.496 0 0 0 15 9.5zm-1 4a.5.5 0 1 1-1 0 .5.5 0 0 1 1 0zm0-4.118L12.69 12H6.695L2.15 7.857a.5.5 0 0 1 .614-.782l3.5 1.866A.5.5 0 0 0 7 8.5v-7a.5.5 0 0 1 1 0v5a.5.5 0 0 0 1 0 .5.5 0 0 1 1 0 .5.5 0 0 0 1 0 .5.5 0 0 1 1 0V7a.5.5 0 0 0 1 0 .5.5 0 0 1 1 0v2.382z"/></svg>