<?xml version="1.0" encoding="utf-8"?><!DOCTYPE svg PUBLIC "-//W3C//DTD SVG 1.1//EN" "http://www.w3.org/Graphics/SVG/1.1/DTD/svg11.dtd"><svg xmlns="http://www.w3.org/2000/svg" width="16" height="16" viewBox="0 0 16 16"><path d="M7 11h2v2H7zm4-7a1 1 0 0 1 1 1v3l-3 2H7V9l3-2V6H5V4h6zM8 1.5c-1.736 0-3.37.676-4.596 1.904S1.5 6.264 1.5 8c0 1.736.676 3.37 1.904 4.596S6.264 14.5 8 14.5c1.736 0 3.37-.676 4.596-1.904S14.5 9.736 14.5 8c0-1.736-.676-3.37-1.904-4.596S9.736 1.5 8 1.5zM8 0a8 8 0 1 1 0 16A8 8 0 0 1 8 0z"/></svg>