<?xml version="1.0" encoding="utf-8"?><!DOCTYPE svg PUBLIC "-//W3C//DTD SVG 1.1//EN" "http://www.w3.org/Graphics/SVG/1.1/DTD/svg11.dtd"><svg xmlns="http://www.w3.org/2000/svg" width="16" height="16" viewBox="0 0 16 16"><path d="M8 0C3.58 0 0 3.58 0 8s3.58 8 8 8 8-3.58 8-8-3.58-8-8-8zm6.975 7.388l-.016-.166c.002.056.008.11.015.166zM13.88 4.2l-.112-.17.113.17zm-.433-.597l-.07-.084c.026.027.048.055.07.083zm-.97-.984l-.083-.07.084.07zm-.508-.39l-.17-.11.17.11zM8.777 1.045l-.17-.016c.057.003.114.01.17.016zm-1.39-.02l-.17.017a2.47 2.47 0 0 0 .17-.015zM4.2 2.12l-.17.11.17-.11zm-.597.433l-.08.066c.027-.023.052-.045.08-.067zm-.984.97l-.07.083c.025-.028.047-.056.07-.084zm-.39.508l-.11.17c.037-.056.074-.112.11-.17zM1.045 7.223l-.016.17a2.47 2.47 0 0 1 .016-.17zm-.02 1.39l.017.17a2.413 2.413 0 0 0-.015-.17zm1.095 3.185l.11.17a2.915 2.915 0 0 1-.11-.17zm.13.197l1.247-.834-.138-.21-1.248.835A6.936 6.936 0 0 1 1.05 8.81l.746-.075-.025-.25-.746.075a7.016 7.016 0 0 1-.022-.438h1.5v-.25h-1.5c.003-.147.01-.29.022-.438l.747.072.026-.25-.747-.072A6.94 6.94 0 0 1 2.114 4.21l1.247.833.138-.21-1.25-.827c.084-.12.17-.237.26-.35l.577.475.16-.193-.58-.475c.095-.112.195-.22.295-.325l1.06 1.06.177-.18L3.14 2.96c.106-.1.212-.2.322-.295l.475.58.194-.158-.474-.578c.116-.092.23-.18.35-.264l.834 1.247.21-.138-.835-1.247A6.94 6.94 0 0 1 7.19 1.045l.075.747.25-.025-.075-.747c.144-.012.29-.02.438-.022v1.5h.25v-1.5c.147.003.29.01.438.022l-.072.747.25.025.072-.747A6.94 6.94 0 0 1 11.79 2.11l-.833 1.248.21.138L12 2.25c.12.083.238.168.35.258l-.475.578.194.16.474-.58c.113.095.22.195.325.295l-.4.392L7 7l-3.647 5.468-.39.39a9.82 9.82 0 0 1-.295-.32l.578-.476-.16-.194-.577.475a6.874 6.874 0 0 1-.26-.35zm.37.484l-.067-.08.066.08zm.902.903l.08.067-.08-.066zm.51.386l.168.113a2.618 2.618 0 0 1-.17-.114zm3.19 1.19l.17.016a2.47 2.47 0 0 1-.17-.016zm1.39.02l.167-.017c-.057.002-.11.008-.167.015zM11.8 13.88l.17-.112-.17.113zm.597-.433l.084-.07c-.027.026-.055.048-.083.07zm.547-.49l.012-.013-.012.012zm.437-.48l.07-.083c-.025.028-.047.056-.07.084zm.11-.133l-.577-.475-.16.193.58.475c-.095.113-.195.22-.295.325l-1.06-1.06-.177.18 1.06 1.058c-.106.1-.213.2-.322.295l-.475-.58-.194.158.474.578a8.61 8.61 0 0 1-.35.263l-.834-1.247-.21.137.835 1.247a6.936 6.936 0 0 1-2.975 1.063l-.075-.747-.25.025.075.748c-.144.012-.29.02-.438.022v-1.5h-.25V15a6.42 6.42 0 0 1-.438-.022l.072-.747-.25-.024-.072.747a6.94 6.94 0 0 1-2.975-1.066l.833-1.247-.21-.137-.827 1.247a7.532 7.532 0 0 1-.35-.26l.475-.577-.193-.16-.475.58a7.556 7.556 0 0 1-.325-.295l.394-.39L9 9l3.647-5.47.39-.39c.1.106.2.212.295.322l-.578.475.16.194.577-.474c.092.116.18.23.263.35l-1.247.834.137.21 1.247-.835a6.94 6.94 0 0 1 1.063 2.975l-.747.075.025.25.748-.075c.012.144.02.29.022.438h-1.5v.25H15a6.42 6.42 0 0 1-.022.438l-.747-.072-.024.25.747.072a6.94 6.94 0 0 1-1.066 2.975l-1.247-.833-.137.21L13.75 12c-.08.113-.17.228-.26.344zm1.485-3.735l-.016.168.015-.17zM13.88 11.8l-.112.17.113-.17z"/><path d="M6.758 1.11l.293 1.472-.244.05-.293-1.472.245-.05zM9.245 14.89l-.293-1.47.245-.05.293 1.47-.245.05zM6.088 1.264l.218.718-.24.073-.217-.718.238-.073zM9.913 14.733l-.218-.718.24-.073.217.718-.24.073zM5.438 1.486l.574 1.386-.23.096-.575-1.386.23-.096zM10.564 14.515L9.99 13.13l.23-.097.575 1.386-.23.095zM4.588 1.885l.22-.118.354.66-.22.12-.354-.662zM11.408 14.114l-.22.118-.354-.66.22-.12.354.662zM1.884 4.59l.662.354-.118.22-.66-.352.117-.22zM14.113 11.41l-.662-.354.12-.22.66.353-.117.22zM2.872 6.01l-1.386-.574.096-.23 1.386.573-.096.23zM13.13 9.99l1.386.573-.096.23-1.386-.573.096-.23zM1.337 5.85l.718.218-.073.24-.718-.22.073-.238zM14.66 10.15l-.717-.217.073-.24.718.22-.073.238zM1.157 6.512l1.47.293-.048.245-1.472-.293.05-.245zM14.84 9.488l-1.47-.293.048-.245 1.47.293-.048.245zM1.11 9.243l1.47-.293.05.245-1.472.293-.05-.245zM14.888 6.757l-1.47.293-.05-.245 1.47-.293.05.245zM1.265 9.914l.718-.218.073.24-.718.217-.073-.24zM14.734 6.09l-.718.217-.073-.24.718-.217.074.24zM1.58 10.796l-.096-.23L2.87 9.99l.096.232-1.386.574zM14.42 5.207l.095.23-1.386.575-.097-.23 1.386-.575zM1.888 11.41l-.118-.22.66-.354.12.22-.662.354zM14.116 4.59l.118.22-.66.354-.12-.22.662-.354zM4.81 14.232l-.22-.118.355-.66.22.117-.354.662zM11.19 1.767l.22.118-.354.66-.22-.117.353-.66zM5.207 14.42l.574-1.387.232.096-.574 1.385-.23-.096zM10.795 1.58l-.574 1.386-.23-.096.574-1.386.23.096zM6.088 14.735l-.24-.073.22-.718.238.073-.218.718zM9.912 1.264l.24.073-.22.718-.238-.073.218-.718zM6.757 14.888l-.245-.05.293-1.47.245.05-.293 1.47zM9.243 1.11l.245.048-.293 1.47-.245-.048.293-1.47z"/></svg>