<?xml version="1.0" encoding="utf-8"?><!DOCTYPE svg PUBLIC "-//W3C//DTD SVG 1.1//EN" "http://www.w3.org/Graphics/SVG/1.1/DTD/svg11.dtd"><svg xmlns="http://www.w3.org/2000/svg" width="16" height="16" viewBox="0 0 16 16"><path d="M7.75 16c-.772 0-1.425-.225-1.94-.67-.52-.446-.782-.968-.782-1.55a.98.98 0 0 1 .307-.727c.207-.202.465-.31.748-.31.28 0 .534.1.732.29.195.188.294.436.294.737 0 .177-.03.372-.087.58a1.53 1.53 0 0 0-.068.364c0 .058.014.126.12.2.2.137.44.203.733.203.353 0 .667-.123.962-.375.29-.25.43-.505.43-.782 0-.308-.08-.575-.25-.816-.288-.402-.827-.874-1.604-1.4-1.248-.836-2.08-1.56-2.54-2.212-.358-.51-.54-1.06-.54-1.636 0-.58.19-1.155.565-1.713.32-.477.795-.908 1.41-1.283-.33-.355-.576-.69-.735-.995a2.565 2.565 0 0 1-.303-1.19c0-.746.295-1.392.878-1.92S7.39.002 8.24.002c.784 0 1.442.22 1.957.655.52.44.785.952.785 1.524 0 .29-.11.552-.324.775l-.004.004c-.125.123-.353.27-.735.27-.3 0-.562-.098-.76-.283a.876.876 0 0 1-.295-.656c0-.107.027-.27.084-.514a1.35 1.35 0 0 0 .04-.316.476.476 0 0 0-.182-.39c-.13-.108-.314-.16-.565-.16-.39 0-.708.117-.975.36s-.4.533-.4.883c0 .315.072.574.213.77.268.375.732.78 1.38 1.202 1.314.853 2.232 1.636 2.726 2.325.365.518.55 1.068.55 1.637 0 .572-.187 1.148-.553 1.714-.316.488-.793.927-1.42 1.31.347.366.59.687.743.976.19.36.284.75.284 1.165 0 .777-.296 1.436-.88 1.96S8.6 16 7.75 16zM6.974 5.568c-.753.452-1.12.972-1.12 1.583 0 .357.102.675.31.974.31.436.926.97 1.825 1.583.38.26.724.51 1.025.75.767-.46 1.14-.973 1.14-1.564 0-.322-.127-.668-.378-1.03-.263-.378-.826-.872-1.674-1.467-.443-.306-.82-.583-1.128-.827z"/></svg>