<?xml version="1.0" encoding="iso-8859-1"?><!DOCTYPE svg PUBLIC "-//W3C//DTD SVG 1.1//EN" "http://www.w3.org/Graphics/SVG/1.1/DTD/svg11.dtd"><svg xmlns="http://www.w3.org/2000/svg" width="16" height="16" viewBox="0 0 932.179 932.179"><path d="M61.2 341.538c4.9 16.8 11.7 33 20.3 48.2l-24.5 30.9c-8 10.1-7.1 24.5 1.9 33.6l42.2 42.2c9.1 9.1 23.5 9.9 33.6 1.9l30.7-24.3c15.8 9.1 32.6 16.2 50.1 21.2l4.6 39.5c1.5 12.8 12.3 22.4 25.1 22.4h59.7c12.8 0 23.6-9.602 25.1-22.4l4.4-38.1c18.8-4.9 36.8-12.2 53.7-21.7l29.7 23.5c10.1 8 24.5 7.1 33.6-1.9l42.2-42.2c9.1-9.1 9.9-23.5 1.9-33.6l-23.1-29.3c9.6-16.602 17.1-34.3 22.1-52.8l35.6-4.1c12.8-1.5 22.4-12.3 22.4-25.1v-59.7c0-12.8-9.6-23.6-22.4-25.1l-35.1-4.1c-4.8-18.3-12-35.8-21.2-52.2l21.6-27.3c8-10.1 7.1-24.5-1.9-33.6l-42.1-42.1c-9.1-9.1-23.5-9.9-33.6-1.9l-26.5 21c-17.2-10.1-35.6-17.8-54.9-23l-4-34.3c-1.5-12.8-12.3-22.4-25.1-22.4h-59.7c-12.8 0-23.6 9.6-25.1 22.4l-4 34.3c-19.8 5.3-38.7 13.3-56.3 23.8l-27.5-21.8c-10.1-8-24.5-7.1-33.6 1.9l-42.2 42.2c-9.1 9.1-9.9 23.5-1.9 33.6l23 29.1c-9.2 16.6-16.2 34.3-20.8 52.7l-36.8 4.2c-12.8 1.5-22.4 12.3-22.4 25.1v59.7c0 12.8 9.6 23.6 22.4 25.1l38.8 4.5zm216.3-161.5c54.4 0 98.7 44.3 98.7 98.7s-44.3 98.7-98.7 98.7c-54.4 0-98.7-44.3-98.7-98.7s44.3-98.7 98.7-98.7z"/><path d="M867.7 356.238l-31.5-26.6c-9.7-8.2-24-7.8-33.2.9l-17.4 16.3c-14.7-7.1-30.3-12.1-46.4-15l-4.898-24c-2.5-12.4-14-21-26.602-20l-41.1 3.5c-12.6 1.1-22.5 11.4-22.9 24.1l-.8 24.4c-15.8 5.7-30.7 13.5-44.3 23.3l-20.8-13.8c-10.6-7-24.7-5-32.9 4.7l-26.6 31.7c-8.2 9.7-7.8 24 .9 33.2l18.2 19.4c-6.3 14.2-10.8 29.1-13.4 44.4l-26 5.3c-12.4 2.5-21 14-20 26.6l3.5 41.1c1.1 12.6 11.4 22.5 24.1 22.9l28.1.9c5.102 13.4 11.8 26.1 19.9 38l-15.7 23.7c-7 10.6-5 24.7 4.7 32.9l31.5 26.6c9.7 8.2 24 7.8 33.2-.9l20.6-19.3c13.5 6.3 27.7 11 42.3 13.8l5.7 28.2c2.5 12.4 14 21 26.6 20l41.1-3.5c12.6-1.1 22.5-11.4 22.9-24.1l.9-27.602c15-5.3 29.2-12.5 42.3-21.4l22.7 15c10.6 7 24.7 5 32.9-4.7l26.6-31.5c8.2-9.7 7.8-24-.9-33.2l-18.3-19.398c6.7-14.2 11.602-29.2 14.4-44.6l25-5.1c12.4-2.5 21-14 20-26.602l-3.5-41.1c-1.1-12.6-11.4-22.5-24.1-22.9l-25.1-.8a181.6 181.6 0 0 0-20.9-41.2l13.7-20.6c7.2-10.598 5.2-24.798-4.5-32.998zm-154.9 237.6c-44.4 3.8-83.6-29.3-87.3-73.7-3.8-44.4 29.3-83.6 73.7-87.3 44.4-3.8 83.6 29.3 87.3 73.7 3.8 44.4-29.3 83.6-73.7 87.3zM205 704.438c-12.6 1.3-22.3 11.9-22.4 24.6l-.3 25.3c-.2 12.7 9.2 23.5 21.8 25.1l18.6 2.4c3.1 11.3 7.5 22.1 13.2 32.3l-12 14.8c-8 9.9-7.4 24.1 1.5 33.2l17.7 18.1c8.9 9.1 23.1 10.1 33.2 2.3l14.9-11.5c10.5 6.2 21.6 11.102 33.2 14.5l2 19.2c1.3 12.6 11.9 22.3 24.6 22.4l25.3.3c12.7.2 23.5-9.2 25.1-21.8l2.3-18.2c12.6-3.1 24.6-7.8 36-14l14 11.3c9.9 8 24.1 7.4 33.2-1.5l18.1-17.7c9.1-8.898 10.1-23.1 2.302-33.2l-10.702-13.9c6.6-11 11.7-22.7 15.2-35l16.6-1.7c12.6-1.3 22.3-11.9 22.4-24.6l.3-25.3c.2-12.7-9.2-23.5-21.8-25.1l-16.2-2.1c-3.1-12.2-7.7-24-13.7-35l10.1-12.4c8-9.9 7.4-24.1-1.5-33.2l-17.698-18.1a24.966 24.966 0 0 0-33.2-2.3l-12.102 9.3c-11.4-6.9-23.6-12.2-36.4-15.8l-1.6-15.7c-1.3-12.602-11.9-22.3-24.6-22.4l-25.3-.3c-12.7-.2-23.5 9.2-25.1 21.8l-2 15.6c-13.2 3.4-25.9 8.6-37.7 15.4l-12.5-10.2c-9.9-8-24.1-7.4-33.2 1.5l-18.2 17.8c-9.1 8.9-10.1 23.1-2.3 33.2l10.7 13.8c-6.2 11-11.1 22.7-14.3 35l-17.5 1.8zm163.3-28.6c36.3.4 65.4 30.3 65 66.6-.4 36.3-30.3 65.4-66.6 65-36.3-.4-65.4-30.3-65-66.6.4-36.3 30.3-65.4 66.6-65z"/></svg>