<?xml version="1.0" encoding="iso-8859-1"?><!DOCTYPE svg PUBLIC "-//W3C//DTD SVG 1.1//EN" "http://www.w3.org/Graphics/SVG/1.1/DTD/svg11.dtd"><svg xmlns="http://www.w3.org/2000/svg" viewBox="0 0 303.477 303.477" width="16" height="16"><path d="M298.604 64.21l-49.978 49.978-43.72-15.618-15.616-43.718 49.98-49.98c-32.792-10.97-70.42-3.42-96.53 22.693-25.63 25.63-33.373 62.35-23.28 94.704a44.282 44.282 0 0 0-3.93 3.475L12.883 228.39c-17.178 17.176-17.178 45.026 0 62.204 17.178 17.178 45.03 17.178 62.207 0L177.737 187.95a44.418 44.418 0 0 0 3.475-3.93c32.356 10.092 69.075 2.347 94.704-23.282 26.11-26.112 33.66-63.737 22.69-96.53z"/></svg>