<?xml version="1.0" encoding="utf-8"?><!DOCTYPE svg PUBLIC "-//W3C//DTD SVG 1.1//EN" "http://www.w3.org/Graphics/SVG/1.1/DTD/svg11.dtd"><svg xmlns="http://www.w3.org/2000/svg" width="16" height="16" viewBox="0 0 16 16"><path d="M6 2a2 2 0 1 1 4 0 2 2 0 0 1-4 0zm6.36 6a1.64 1.64 0 0 1 3.28 0 1.64 1.64 0 0 1-3.28 0zm-1.603 4.243a1.486 1.486 0 1 1 2.97 0 1.486 1.486 0 0 1-2.97 0zM6.654 14a1.346 1.346 0 1 1 2.693 0 1.346 1.346 0 0 1-2.693 0zm-4.116-1.757a1.22 1.22 0 1 1 2.44 0 1.22 1.22 0 0 1-2.44 0zM.896 8a1.104 1.104 0 1 1 2.207 0A1.104 1.104 0 0 1 .896 8zm1.86-4.243a1 1 0 0 1 2 0 1 1 0 0 1-2 0zm11.298 0a1.81 1.81 0 1 1-3.623 0 1.81 1.81 0 0 1 3.624 0z"/></svg>