<?xml version="1.0" encoding="utf-8"?><!DOCTYPE svg PUBLIC "-//W3C//DTD SVG 1.1//EN" "http://www.w3.org/Graphics/SVG/1.1/DTD/svg11.dtd"><svg xmlns="http://www.w3.org/2000/svg" width="16" height="16" viewBox="0 0 16 16"><path d="M8 0C3.6 0 0 3.6 0 8s3.6 8 8 8 8-3.6 8-8-3.56-8-8-8zm3.68 11.56c-.158.24-.44.318-.68.158-1.88-1.16-4.24-1.4-7.04-.76-.282.082-.52-.118-.6-.358-.082-.28.118-.52.358-.6 3.04-.68 5.68-.4 7.76.88.28.12.32.44.202.68zm.96-2.2c-.2.28-.558.4-.84.2-2.16-1.32-5.44-1.72-7.96-.92-.318.08-.68-.08-.758-.4-.08-.32.08-.68.4-.76 2.92-.88 6.52-.44 9 1.082.238.12.36.52.16.797zm.08-2.24C10.16 5.6 5.877 5.437 3.437 6.2a.75.75 0 0 1-.92-.48c-.118-.4.12-.8.482-.92 2.84-.84 7.52-.68 10.48 1.08.36.2.482.682.282 1.042-.203.278-.68.397-1.044.197z"/></svg>