<?xml version="1.0" encoding="iso-8859-1"?><!DOCTYPE svg PUBLIC "-//W3C//DTD SVG 1.1//EN" "http://www.w3.org/Graphics/SVG/1.1/DTD/svg11.dtd"><svg xmlns="http://www.w3.org/2000/svg" viewBox="0 0 493.65 493.65" width="16" height="16"><path d="M468.88 377.43H427.77V116.205h39.818c13.678 0 24.775-11.096 24.775-24.773 0-13.675-11.097-24.772-24.774-24.772h-39.818V25.272c0-13.676-11.094-24.77-24.77-24.77-13.677 0-24.774 11.095-24.774 24.77v41.385H115.432V25.563C115.432 11.885 104.336.79 90.66.79c-13.68 0-24.776 11.096-24.776 24.773v41.094h-41.11C11.097 66.657 0 77.755 0 91.43c0 13.68 11.098 24.774 24.773 24.774h41.11V377.43h-39.82c-13.677 0-24.774 11.097-24.774 24.774 0 13.676 11.097 24.77 24.774 24.77h39.818v41.403c0 13.678 11.098 24.772 24.775 24.772 13.678 0 24.773-11.095 24.773-24.773v-41.402h262.79v41.11c0 13.68 11.1 24.774 24.774 24.774 13.678 0 24.77-11.097 24.77-24.774v-41.11h41.114c13.672 0 24.77-11.097 24.77-24.772.002-13.678-11.095-24.773-24.767-24.773zm-353.448 0V116.205h262.79V377.43h-262.79z"/><path d="M152.248 156.17H340.11v181.57H152.25z"/></svg>