<?xml version="1.0" encoding="utf-8"?><!DOCTYPE svg PUBLIC "-//W3C//DTD SVG 1.1//EN" "http://www.w3.org/Graphics/SVG/1.1/DTD/svg11.dtd"><svg xmlns="http://www.w3.org/2000/svg" width="16" height="16" viewBox="0 0 16 16"><path d="M4.5 6h-3a.5.5 0 0 0-.5.5v9a.5.5 0 0 0 .5.5h3a.5.5 0 0 0 .5-.5v-9a.5.5 0 0 0-.5-.5zm0 9h-3v-4h3v4zm5-11h-3a.5.5 0 0 0-.5.5v11a.5.5 0 0 0 .5.5h3a.5.5 0 0 0 .5-.5v-11a.5.5 0 0 0-.5-.5zm0 11h-3v-5h3v5zm5-13h-3a.5.5 0 0 0-.5.5v13a.5.5 0 0 0 .5.5h3a.5.5 0 0 0 .5-.5v-13a.5.5 0 0 0-.5-.5zm0 13h-3V9h3v6z"/></svg>