<?xml version="1.0" encoding="utf-8"?><!DOCTYPE svg PUBLIC "-//W3C//DTD SVG 1.1//EN" "http://www.w3.org/Graphics/SVG/1.1/DTD/svg11.dtd"><svg xmlns="http://www.w3.org/2000/svg" width="16" height="16" viewBox="0 0 16 16"><path d="M8 3.02V2h2V1a1 1 0 0 0-1-1H6a1 1 0 0 0-1 1v1h2v1.02a6.5 6.5 0 1 0 1 0zm3.036 10.016c-.944.944-2.2 1.464-3.536 1.464s-2.59-.52-3.536-1.464C3.02 12.092 2.5 10.836 2.5 9.5s.52-2.59 1.464-3.536A4.967 4.967 0 0 1 7.34 4.502L7.003 9.41c-.03.41.195.59.497.59s.526-.18.496-.59L7.656 4.5c1.277.04 2.47.555 3.378 1.462.944.944 1.464 2.2 1.464 3.536s-.52 2.59-1.464 3.536z"/></svg>