<?xml version="1.0" encoding="utf-8"?><!DOCTYPE svg PUBLIC "-//W3C//DTD SVG 1.1//EN" "http://www.w3.org/Graphics/SVG/1.1/DTD/svg11.dtd"><svg xmlns="http://www.w3.org/2000/svg" width="16" height="16" viewBox="0 0 16 16"><path d="M15.33 4.502a49.408 49.408 0 0 0-4.406-.425L13.5 1.5l-1-1-3.51 3.51A54.24 54.24 0 0 0 8 4L4 0 3 1l3.034 3.035c-1.89.066-3.693.227-5.365.467C.24 6.185 0 8.045 0 10s.24 3.815.67 5.498C2.912 15.82 5.392 16 8 16s5.087-.18 7.33-.502c.43-1.683.67-3.543.67-5.498s-.24-3.815-.67-5.498zM13.5 13.666C11.815 13.88 9.955 14 8 14s-3.815-.12-5.498-.334C2.18 12.544 2 11.304 2 10s.18-2.543.502-3.666C4.185 6.12 6.045 6 8 6s3.815.12 5.498.334C13.82 7.456 14 8.696 14 10s-.18 2.543-.502 3.666z"/></svg>