<?xml version="1.0" encoding="utf-8"?><!DOCTYPE svg PUBLIC "-//W3C//DTD SVG 1.1//EN" "http://www.w3.org/Graphics/SVG/1.1/DTD/svg11.dtd"><svg xmlns="http://www.w3.org/2000/svg" width="16" height="16" viewBox="0 0 16 16"><path d="M15.994 4.28c-.072 1.557-1.16 3.692-3.263 6.398-2.174 2.825-4.015 4.24-5.52 4.24-.932 0-1.723-.858-2.367-2.58l-1.29-4.734c-.48-1.722-.992-2.58-1.542-2.58-.118 0-.537.252-1.255.752l-.753-.97c.79-.693 1.57-1.387 2.334-2.08C3.39 1.816 4.18 1.34 4.708 1.288c1.244-.12 2.013.73 2.3 2.553.31 1.967.525 3.19.647 3.667.36 1.63.753 2.447 1.184 2.447.333 0 .837-.528 1.508-1.588.67-1.056 1.028-1.862 1.078-2.416.097-.912-.262-1.372-1.078-1.372a2.98 2.98 0 0 0-1.184.263C9.95 2.267 11.45 1.017 13.67 1.09c1.64.044 2.416 1.11 2.322 3.194z"/></svg>