<?xml version="1.0" encoding="utf-8"?><!DOCTYPE svg PUBLIC "-//W3C//DTD SVG 1.1//EN" "http://www.w3.org/Graphics/SVG/1.1/DTD/svg11.dtd"><svg xmlns="http://www.w3.org/2000/svg" width="16" height="16" viewBox="0 0 16 16"><path d="M15.012 7.953c-.412.094-.81.137-1.17.137-2.018 0-3.57-1.41-3.57-3.862 0-1.203.465-1.825 1.12-1.825.626 0 1.042.56 1.042 1.697 0 .647-.172 1.356-.3 1.775 0 0 .622 1.084 2.322.753.363-.803.556-1.84.556-2.75 0-2.45-1.25-3.878-3.54-3.878-2.357 0-3.735 1.81-3.735 4.197 0 2.366 1.106 4.394 2.928 5.32-.766 1.533-1.74 2.883-2.76 3.902C6.063 11.187 4.394 8.212 3.71 2.402H.986c1.26 9.675 5.006 12.756 6 13.347.56.337 1.044.322 1.556.03.806-.455 3.222-2.874 4.563-5.702.563 0 1.238-.066 1.91-.22V7.954z"/></svg>