<?xml version="1.0" encoding="utf-8"?><!DOCTYPE svg PUBLIC "-//W3C//DTD SVG 1.1//EN" "http://www.w3.org/Graphics/SVG/1.1/DTD/svg11.dtd"><svg xmlns="http://www.w3.org/2000/svg" width="16" height="16" viewBox="0 0 16 16"><path d="M8 16A8 8 0 1 0 8 0a8 8 0 0 0 0 16zM8 1.5a6.5 6.5 0 1 1 0 13 6.5 6.5 0 0 1 0-13zm.48 9.61c2.19-.433 3.892-1.43 4.507-2.76-.338 2.625-2.524 4.65-5.17 4.65-1.863 0-3.498-1.004-4.42-2.515 1.1.86 3.04 1.028 5.083.625zM10 5.5c0-.828.448-1.5 1-1.5s1 .672 1 1.5S11.552 7 11 7s-1-.672-1-1.5zm-4.5.305c-.653 0-1.208.245-1.414.586C4.03 6.3 4 5.89 4 5.787c0-.485.672-.88 1.5-.88s1.5.395 1.5.88c0 .103-.03.514-.086.605-.206-.34-.76-.585-1.414-.585z"/></svg>