<?xml version="1.0" encoding="utf-8"?><!DOCTYPE svg PUBLIC "-//W3C//DTD SVG 1.1//EN" "http://www.w3.org/Graphics/SVG/1.1/DTD/svg11.dtd"><svg xmlns="http://www.w3.org/2000/svg" width="16" height="16" viewBox="0 0 16 16"><path d="M2.43 3.16c-.137 0-.255.05-.315.143-.06.1-.05.225.013.353l1.56 2.7c.002.006.002.01 0 .013l-2.45 4.33c-.064.128-.06.256 0 .353a.34.34 0 0 0 .3.156h2.305c.344 0 .513-.235.628-.448l2.492-4.406L5.374 3.59c-.116-.203-.287-.43-.644-.43h-2.3zM12.125 0c-.344 0-.494.216-.62.44L6.373 9.548c.01.016 3.278 6.016 3.278 6.016.116.203.29.44.644.44H12.6c.137 0 .247-.052.306-.146.063-.1.06-.228-.006-.356L9.65 9.555c-.003-.006-.003-.01 0-.016L14.76.504c.062-.128.065-.256.005-.356-.06-.094-.17-.147-.306-.147h-2.335z"/></svg>