<?xml version="1.0" encoding="utf-8"?><!DOCTYPE svg PUBLIC "-//W3C//DTD SVG 1.1//EN" "http://www.w3.org/Graphics/SVG/1.1/DTD/svg11.dtd"><svg xmlns="http://www.w3.org/2000/svg" width="16" height="16" viewBox="0 0 16 16"><path d="M8.02 1.087C5.19 1.087 2.52.715 0 0v16c2.522-.716 5.194-1.088 8.02-1.088 2.793 0 5.458.363 7.98 1.088V0c-2.522.725-5.184 1.087-7.98 1.087zm4.43 1.366l-.097.153c-.09.144-.172.266-.284.438-.15.225-.432.672-.77 1.247-.094.16-.21.35-.328.557-.228.384-.484.82-.688 1.162l-.256.446-.678 1.18c-.228.404-.453.8-.678 1.195v.398c0 .55.012 1.15.03 1.684.01.244.02.678.032 1.137.012.546.025 1.112.04 1.4l.004.087v.01l-.094-.026c-.037-.008-.072-.018-.11-.027a3.093 3.093 0 0 0-.352-.056 2.69 2.69 0 0 0-.444 0 3.058 3.058 0 0 0-.462.084l-.094.026v-.01l.003-.087c.013-.285.028-.854.04-1.4.01-.46.023-.895.032-1.138.022-.537.03-1.134.03-1.684V8.83c-.224-.396-.45-.79-.677-1.193l-.675-1.18c-.088-.15-.172-.3-.256-.448-.2-.348-.46-.782-.69-1.163a31.856 31.856 0 0 1-.327-.556c-.338-.574-.62-1.018-.77-1.246-.11-.172-.193-.294-.283-.438l-.097-.153.175.05c.222.063.45.094.694.094s.478-.03.697-.094l.052-.016.028.047c.43.778 1.59 2.684 2.284 3.825.237.393.428.702.522.86V7.22v.003l.522-.86c.694-1.14 1.853-3.045 2.284-3.826l.028-.047.053.016c.22.063.453.094.697.094s.472-.03.694-.094l.166-.05z"/></svg>