<?xml version="1.0" encoding="utf-8"?><!DOCTYPE svg PUBLIC "-//W3C//DTD SVG 1.1//EN" "http://www.w3.org/Graphics/SVG/1.1/DTD/svg11.dtd"><svg xmlns="http://www.w3.org/2000/svg" width="16" height="16" viewBox="0 0 16 16"><path d="M3.953 10.512a5.24 5.24 0 0 0 6.996 3.14c.625-.26 1.184-.64 1.666-1.12s.86-1.042 1.122-1.667c.272-.647.412-1.33.412-2.037s-.138-1.394-.413-2.037c-.262-.624-.64-1.183-1.122-1.665s-1.04-.86-1.666-1.122A5.226 5.226 0 0 0 8.91 3.59c-.716 0-1.43.144-2.066.413-.51.216-1.372.77-1.875 1.29l-.002.004V.984h7.24c.263-.003.263-.372.263-.49 0-.123 0-.488-.265-.492H4.377a.343.343 0 0 0-.344.34V6.41c0 .196.244.337.472.383.444.094.544-.047.653-.197l.016-.02c.166-.246.68-.765.688-.77A4.262 4.262 0 0 1 8.9 4.555c1.146 0 2.22.443 3.027 1.25.81.808 1.256 1.88 1.256 3.018 0 1.14-.444 2.216-1.25 3.02a4.336 4.336 0 0 1-3.047 1.25c-.772 0-1.52-.207-2.16-.598l.004-3.688c0-.49.213-1.028.572-1.43A2.09 2.09 0 0 1 8.89 6.66c.594 0 1.15.226 1.566.635.41.406.637.95.637 1.528a2.18 2.18 0 0 1-2.206 2.197c-.238 0-.672-.106-.69-.11-.25-.074-.357.273-.392.388-.134.44.07.528.11.54.396.126.658.148 1.002.148a3.173 3.173 0 0 0 3.17-3.17c0-1.733-1.423-3.143-3.167-3.143-.856 0-1.66.328-2.263.92-.575.565-.903 1.318-.903 2.068v.02c-.003.094-.003 2.306-.006 3.03l-.003-.002c-.328-.363-.653-.92-.87-1.488-.083-.222-.274-.184-.533-.103-.125.034-.47.14-.39.394zm3.722-.865c0 .106.097.2.156.253l.02.02c.1.096.194.146.28.146a.18.18 0 0 0 .132-.05c.044-.04.537-.544.588-.59l.553.55c.05.055.106.087.172.087.088 0 .184-.053.284-.156.237-.244.118-.375.062-.438l-.56-.56.585-.588c.128-.137.016-.284-.097-.397-.162-.162-.322-.206-.422-.112l-.58.58-.59-.587a.16.16 0 0 0-.112-.047c-.078 0-.172.052-.275.155-.18.18-.218.306-.124.406l.588.585-.584.584c-.053.05-.078.102-.075.155zm1.278-7.93c-.938 0-1.938.19-2.67.505a.207.207 0 0 0-.133.18.753.753 0 0 0 .07.338c.046.116.165.425.4.334a6.69 6.69 0 0 1 2.333-.444c.856 0 1.688.17 2.47.497.62.263 1.205.644 1.843 1.194a.22.22 0 0 0 .147.06c.125 0 .244-.122.347-.237.17-.19.287-.35.12-.51a6.858 6.858 0 0 0-2.1-1.355 7.326 7.326 0 0 0-2.826-.563zM14.006 13.3c-.113-.113-.21-.178-.294-.203s-.162-.006-.222.053l-.056.056a6.32 6.32 0 0 1-6.938 1.356 6.336 6.336 0 0 1-2.013-1.356 6.046 6.046 0 0 1-1.356-2.012c-.288-.713-.38-1.247-.413-1.422-.003-.016-.006-.028-.006-.037-.04-.206-.23-.222-.503-.178-.112.02-.46.072-.428.32v.005a7.26 7.26 0 0 0 2.04 3.994 7.266 7.266 0 0 0 10.288 0l.06-.06c.068-.083.133-.224-.16-.515z"/></svg>