<?xml version="1.0" encoding="utf-8"?><!DOCTYPE svg PUBLIC "-//W3C//DTD SVG 1.1//EN" "http://www.w3.org/Graphics/SVG/1.1/DTD/svg11.dtd"><svg xmlns="http://www.w3.org/2000/svg" width="16" height="16" viewBox="0 0 16 16"><path d="M8 1.666c-2.92 0-5.17 2.444-6.444 4.838a13.625 13.625 0 0 0-1.453 4.33c-.025.173-.05.345-.07.52-.008.094-.018.188-.024.28-.01.12-.004.157.058.257.187.304.41.585.66.84.51.524 1.133.927 1.793 1.24 1.504.71 3.2.966 4.85 1.022 1.704.056 3.454-.084 5.082-.616 1.39-.453 2.73-1.244 3.503-2.522.084-.137.025-.34.01-.5a11.71 11.71 0 0 0-.297-1.66 13.737 13.737 0 0 0-.73-2.16c-1.09-2.524-3.1-5.218-5.964-5.774a5.096 5.096 0 0 0-.978-.094zm.1 12.243c-1.784 0-3.728-.16-5.334-1.02-.625-.334-1.262-.82-1.563-1.484-.087-.194-.056-.27-.016-.497.028-.148.04-.292.106-.43.09-.19.184-.377.28-.565.33-.634.682-1.262 1.092-1.853.203-.29.42-.578.67-.828.174-.175.387-.362.633-.422.756-.18 1.334.694 1.794 1.134.222.213.52.453.85.412.228-.028.43-.206.594-.353.553-.497.997-1.112 1.456-1.69.228-.285.453-.573.7-.845.166-.184.347-.394.57-.513.396-.216.902.228 1.177.456.468.39.883.847 1.28 1.31.378.44.744.887 1.066 1.37.497.75.928 1.55 1.322 2.36.084.175.113.294.144.488.02.107.06.23.044.34-.022.152-.128.318-.206.443-.188.297-.44.553-.72.77-1.165.902-2.743 1.202-4.177 1.337a18.56 18.56 0 0 1-1.762.078z"/></svg>