<?xml version="1.0" encoding="utf-8"?><!DOCTYPE svg PUBLIC "-//W3C//DTD SVG 1.1//EN" "http://www.w3.org/Graphics/SVG/1.1/DTD/svg11.dtd"><svg xmlns="http://www.w3.org/2000/svg" width="16" height="16" viewBox="0 0 16 16"><path d="M6.316 7.01c.203-.148.3-.392.3-.73 0-.187-.03-.34-.097-.458a.72.72 0 0 0-.273-.278 1.075 1.075 0 0 0-.388-.14 2.386 2.386 0 0 0-.454-.042H3.76v1.87h1.78c.313.002.572-.073.775-.223zM6.594 8.697c-.23-.175-.537-.262-.92-.262H3.76v2.203h1.877c.175 0 .338-.016.494-.05s.298-.088.417-.17c.12-.077.216-.183.287-.318s.106-.31.106-.52c0-.41-.116-.705-.347-.883z"/><path d="M14.5 0h-13C.675 0 0 .675 0 1.5v13c0 .825.675 1.5 1.5 1.5h13c.825 0 1.5-.675 1.5-1.5v-13c0-.825-.675-1.5-1.5-1.5zm-4.012 4.21h3.24V5h-3.24v-.79zm-2.025 6.515a2.06 2.06 0 0 1-.63.725 2.82 2.82 0 0 1-.91.416c-.338.09-.688.134-1.044.134H2V4.003h3.77c.38 0 .728.034 1.044.1.313.066.58.178.806.33.222.154.397.357.522.61.122.25.184.566.184.938 0 .404-.09.738-.275 1.007s-.452.487-.815.66c.494.14.856.39 1.097.743.244.356.363.784.363 1.284.003.41-.075.76-.23 1.05zm6.528-1.237h-4.177c0 .456.156.89.394 1.125.238.23.58.35 1.028.35.322 0 .597-.08.83-.244.232-.163.373-.335.426-.513h1.4c-.224.697-.565 1.194-1.03 1.494-.46.3-1.022.45-1.675.45-.456 0-.866-.074-1.234-.218a2.613 2.613 0 0 1-.933-.622 2.854 2.854 0 0 1-.588-.966 3.562 3.562 0 0 1-.21-1.234c0-.434.072-.838.213-1.213a2.815 2.815 0 0 1 1.544-1.616 3.013 3.013 0 0 1 1.206-.233c.49 0 .92.094 1.287.287.366.19.666.447.903.77s.403.687.51 1.1c.102.405.136.833.108 1.283z"/><path d="M12.134 7.247c-.253 0-.466.044-.63.13s-.3.195-.404.32a1.13 1.13 0 0 0-.213.41c-.04.14-.066.268-.072.38h2.588c-.037-.406-.178-.706-.366-.916-.194-.212-.512-.324-.903-.324z"/></svg>