<?xml version="1.0" encoding="utf-8"?><!DOCTYPE svg PUBLIC "-//W3C//DTD SVG 1.1//EN" "http://www.w3.org/Graphics/SVG/1.1/DTD/svg11.dtd"><svg xmlns="http://www.w3.org/2000/svg" width="16" height="16" viewBox="0 0 16 16"><path fill="#444" d="M16.023 12.5c0-4.5-4-3.5-4-7a3.2 3.2 0 0 0-.08-.75c-.262-1.765-1.44-3.182-2.964-3.614A.86.86 0 0 0 9 .946C9 .425 8.55 0 8 0S7 .425 7 .945c0 .065.007.13.02.19C5.31 1.62 4.04 3.346 4 5.41v.09C4 9 0 8 0 12.5c0 1.19 2.665 2.187 6.234 2.44a2 2 0 0 0 3.532 0C13.334 14.687 16 13.69 16 12.5v-.01l.024.01zm-3.113.845c-.847.226-1.846.39-2.918.48a2 2 0 0 0-3.984 0c-1.072-.09-2.07-.254-2.918-.48-1.166-.31-1.724-.66-1.928-.845.204-.186.762-.534 1.928-.845 1.356-.362 3.1-.56 4.91-.56s3.554.198 4.91.56c1.166.31 1.724.66 1.928.845-.204.186-.762.534-1.928.845z"/></svg>