<?xml version="1.0" encoding="utf-8"?><!DOCTYPE svg PUBLIC "-//W3C//DTD SVG 1.1//EN" "http://www.w3.org/Graphics/SVG/1.1/DTD/svg11.dtd"><svg xmlns="http://www.w3.org/2000/svg" width="16" height="16" viewBox="0 0 16 16"><path d="M13.657 2.343C12.147.833 10.137 0 8 0S3.854.832 2.343 2.343C.833 3.853 0 5.863 0 8s.832 4.146 2.343 5.657C3.853 15.167 5.863 16 8 16s4.146-.832 5.657-2.343C15.167 12.147 16 10.137 16 8s-.832-4.146-2.343-5.657zM14 8a5.97 5.97 0 0 1-1.11 3.475L4.524 3.11A5.97 5.97 0 0 1 8 2c3.308 0 6 2.692 6 6zM2 8a5.97 5.97 0 0 1 1.11-3.475l8.365 8.364A5.97 5.97 0 0 1 8 14c-3.308 0-6-2.692-6-6z"/></svg>