<?xml version="1.0" encoding="utf-8"?><!DOCTYPE svg PUBLIC "-//W3C//DTD SVG 1.1//EN" "http://www.w3.org/Graphics/SVG/1.1/DTD/svg11.dtd"><svg xmlns="http://www.w3.org/2000/svg" width="16" height="16" viewBox="0 0 16 16"><path d="M6 0v1.5a8.46 8.46 0 0 1 6.01 2.49A8.472 8.472 0 0 1 14.5 10H16C16 4.475 11.52 0 6 0z"/><path d="M6 3v1.5c1.47 0 2.85.572 3.89 1.61S11.5 8.53 11.5 10H13a7 7 0 0 0-7-7z"/><path d="M7.5 6l-1 1L3 8l-3 6.5.396.396 3.638-3.638a1 1 0 1 1 .707.707l-3.638 3.638L1.5 16 8 13l1-3.5 1-1L7.5 6z"/></svg>