<?xml version="1.0" encoding="utf-8"?><!DOCTYPE svg PUBLIC "-//W3C//DTD SVG 1.1//EN" "http://www.w3.org/Graphics/SVG/1.1/DTD/svg11.dtd"><svg xmlns="http://www.w3.org/2000/svg" width="16" height="16" viewBox="0 0 16 16"><path d="M7.5 1a7.5 7.5 0 1 0 0 15 7.5 7.5 0 0 0 0-15zm0 13.5a6 6 0 1 1 0-12 6 6 0 0 1 0 12z"/><path d="M10.482 10.068a.5.5 0 0 0-.684.18A1.51 1.51 0 0 1 8.5 11h-2a1.502 1.502 0 0 1-1.414-1H7.5a.5.5 0 0 0 0-1H5V8h2.5a.5.5 0 0 0 0-1H5.086c.206-.582.762-1 1.414-1h2c.53 0 1.028.288 1.298.75a.5.5 0 0 0 .865-.502A2.513 2.513 0 0 0 8.5 4.998h-2c-1.206 0-2.216.86-2.45 2H3.5a.5.5 0 0 0 0 1H4v1h-.5a.5.5 0 0 0 0 1h.55c.233 1.14 1.243 2 2.45 2h2a2.51 2.51 0 0 0 2.163-1.248.5.5 0 0 0-.18-.684z"/></svg>