<?xml version="1.0" encoding="utf-8"?><!DOCTYPE svg PUBLIC "-//W3C//DTD SVG 1.1//EN" "http://www.w3.org/Graphics/SVG/1.1/DTD/svg11.dtd"><svg xmlns="http://www.w3.org/2000/svg" width="16" height="16" viewBox="0 0 16 16"><path d="M8 16A8 8 0 1 0 8 0a8 8 0 0 0 0 16zM8 1.5a6.5 6.5 0 1 1 0 13 6.5 6.5 0 0 1 0-13zM12.5 4a.5.5 0 0 1 .5.5V6c0 .55-.45 1-1 1h-2c-.55 0-1-.45-1-1H7c0 .55-.45 1-1 1H4c-.55 0-1-.45-1-1V4.5a.5.5 0 0 1 .5-.5h3a.5.5 0 0 1 .5.5V5h2v-.5a.5.5 0 0 1 .5-.5h3zM8 12c1.456 0 2.73-.778 3.43-1.942l.857.515A4.996 4.996 0 0 1 5.88 12.53l.52-.864C6.89 11.88 7.43 12 8 12z"/></svg>