<?xml version="1.0" encoding="iso-8859-1"?><!DOCTYPE svg PUBLIC "-//W3C//DTD SVG 1.1//EN" "http://www.w3.org/Graphics/SVG/1.1/DTD/svg11.dtd"><svg xmlns="http://www.w3.org/2000/svg" width="16" height="16" viewBox="0 0 114.595 114.594"><path d="M99.287 101.797h-7.12v-4.834a.5.5 0 0 0-1 0v4.834h-9v-4.834a.5.5 0 0 0-1 0v4.834h-9v-4.834a.5.5 0 0 0-1 0v4.834h-9v-4.834a.5.5 0 0 0-1 0v4.834h-9v-4.834a.5.5 0 0 0-1 0v4.834h-9v-4.834a.5.5 0 0 0-1 0v4.834h-9v-4.834a.5.5 0 0 0-1 0v4.834h-9v-4.834a.5.5 0 0 0-1 0v4.834H3V90.464h4.016a.5.5 0 0 0 0-1H3v-9h4.016a.5.5 0 0 0 0-1H3v-9h4.016a.5.5 0 0 0 0-1H3v-9h4.016a.5.5 0 0 0 0-1H3v-9h4.016a.5.5 0 0 0 0-1H3v-9h4.016a.5.5 0 0 0 0-1H3v-9h4.016a.5.5 0 0 0 0-1H3v-9h4.016a.5.5 0 0 0 0-1H3v-8.167a1.5 1.5 0 0 0-3 0v92a1.5 1.5 0 0 0 1.5 1.5h97.787a1.5 1.5 0 0 0 0-3z"/><path d="M15.644 23.4h10.25v67.795h-10.25zM47.644 55.306a25.656 25.656 0 0 1-3.262-5.61h-6.988v41.5h10.25v-35.89zM69.145 65.403c-.332.014-.664.035-.996.035-3.22 0-6.34-.59-9.255-1.705v27.46h10.25v-25.79zM91.645 71.57l-9.863-10.007c-.127.078-.26.146-.387.22v29.41h10.25V71.572z"/><path d="M113.75 81.944L86.075 53.86c6.94-8.95 6.322-21.912-1.895-30.128-8.907-8.907-23.4-8.907-32.31 0-8.906 8.908-8.906 23.4 0 32.31 8.217 8.216 21.176 8.833 30.13 1.894l27.677 28.08a2.88 2.88 0 0 0 4.072.002 2.88 2.88 0 0 0 0-4.074zM80.11 51.968c-6.663 6.662-17.503 6.663-24.165 0-6.662-6.66-6.66-17.5 0-24.162 6.662-6.66 17.5-6.663 24.164 0 6.66 6.66 6.66 17.5 0 24.162z"/><path d="M68.86 37.443c-2.614-1.08-3.37-1.735-3.37-2.92 0-.945.693-2.05 2.645-2.05 1.837 0 2.993.66 3.487.942a.503.503 0 0 0 .716-.256l.742-1.96a.498.498 0 0 0-.215-.61c-1.063-.618-2.248-.973-3.608-1.076V27.11a.5.5 0 0 0-.5-.5H66.92a.5.5 0 0 0-.5.5v2.582c-2.736.604-4.48 2.603-4.48 5.188 0 3.12 2.505 4.533 5.204 5.595 2.16.873 3.04 1.762 3.04 3.064 0 1.438-1.22 2.405-3.028 2.405-1.4 0-2.856-.434-3.994-1.19a.5.5 0 0 0-.747.247l-.712 1.985a.5.5 0 0 0 .18.576c1.04.742 2.697 1.264 4.328 1.377v2.516a.5.5 0 0 0 .5.5h1.87a.5.5 0 0 0 .5-.5v-2.67c2.818-.632 4.685-2.78 4.685-5.455 0-2.726-1.47-4.487-4.906-5.887z"/></svg>