<?xml version="1.0" encoding="utf-8"?><!DOCTYPE svg PUBLIC "-//W3C//DTD SVG 1.1//EN" "http://www.w3.org/Graphics/SVG/1.1/DTD/svg11.dtd"><svg xmlns="http://www.w3.org/2000/svg" width="16" height="16" viewBox="0 0 16 16"><path d="M13.51 7.393C12.483 4.527 10.305 1.953 8 0 5.695 1.953 3.518 4.527 2.49 7.393c-.635 1.772-.698 3.696.197 5.397C3.717 14.745 5.79 16 8 16s4.284-1.255 5.313-3.21c.895-1.7.832-3.624.197-5.397zm-1.967 4.466A4.045 4.045 0 0 1 8 14a4.03 4.03 0 0 1-2.377-.79c.207.026.416.04.627.04a5.056 5.056 0 0 0 4.428-2.676c.7-1.333.64-2.716.373-3.818a11 11 0 0 1 .577 1.31c.353.986.625 2.444-.084 3.792z"/></svg>