<?xml version="1.0" encoding="utf-8"?><!DOCTYPE svg PUBLIC "-//W3C//DTD SVG 1.1//EN" "http://www.w3.org/Graphics/SVG/1.1/DTD/svg11.dtd"><svg xmlns="http://www.w3.org/2000/svg" width="16" height="16" viewBox="0 0 16 16"><path d="M8 0a8 8 0 1 0 0 16A8 8 0 0 0 8 0zm0 15a6.96 6.96 0 0 1-2.77-.57l3.644-4.098A.503.503 0 0 0 9 10V8.5a.5.5 0 0 0-.5-.5C6.735 8 4.872 6.165 4.854 6.146A.5.5 0 0 0 4.5 6h-2a.5.5 0 0 0-.5.5v3a.5.5 0 0 0 .276.447L4 10.81v2.935A6.992 6.992 0 0 1 1 8c0-1.074.242-2.09.674-3H3.5c.133 0 .26-.053.354-.146l2-2A.5.5 0 0 0 6 2.5V1.29A6.99 6.99 0 0 1 8 1c1.1 0 2.14.254 3.067.706A2.98 2.98 0 0 0 10 4c0 .8.31 1.555.878 2.12a2.994 2.994 0 0 0 2.267.875c.216.81.605 2.917-.13 5.818a.466.466 0 0 0-.014.082A6.98 6.98 0 0 1 8 15z"/></svg>