<?xml version="1.0" encoding="utf-8"?><!DOCTYPE svg PUBLIC "-//W3C//DTD SVG 1.1//EN" "http://www.w3.org/Graphics/SVG/1.1/DTD/svg11.dtd"><svg xmlns="http://www.w3.org/2000/svg" width="16" height="16" viewBox="0 0 16 16"><path d="M16 1c0-.71-.15-1.387-.416-2a5.016 5.016 0 0 1-2.726 2.643C11.51.613 9.828 0 8 0S4.49.613 3.145 1.643A5.013 5.013 0 0 1 .418-1a4.98 4.98 0 0 0-.416 2 4.98 4.98 0 0 0 1.04 3.053 8 8 0 1 0 13.92 0A4.98 4.98 0 0 0 16.002 1zM9 5.946c.033-.74.707-1.234 1.276-1.518.543-.27 1.08-.407 1.102-.413a.5.5 0 0 1 .242.97c-.275.07-.602.19-.89.334A.998.998 0 0 1 9.998 7a1 1 0 0 1-1-1c0-.018 0-.036.002-.054zM4.016 4.38a.5.5 0 0 1 .606-.365c.024.006.56.14 1.103.413.568.284 1.243.776 1.275 1.518L7 6a1 1 0 1 1-1.732-.68 4.638 4.638 0 0 0-.89-.335.5.5 0 0 1-.364-.606zM8 13a5 5 0 0 1-4.288-2.427L4.998 9.8a3.5 3.5 0 0 0 6.004 0l1.286.773A4.996 4.996 0 0 1 8 13z"/></svg>