<?xml version="1.0" encoding="utf-8"?><!DOCTYPE svg PUBLIC "-//W3C//DTD SVG 1.1//EN" "http://www.w3.org/Graphics/SVG/1.1/DTD/svg11.dtd"><svg xmlns="http://www.w3.org/2000/svg" width="16" height="16" viewBox="0 0 16 16"><path d="M15.414.586a2 2 0 0 0-2.828 0l-2.69 2.69-1.895-1.897L5.88 3.5l1.663 1.663L.166 12.54a.56.56 0 0 0-.16.46H0v2.5a.5.5 0 0 0 .5.5h2.564a.56.56 0 0 0 .398-.165l7.377-7.377L12.5 10.12 14.622 8l-1.895-1.896 2.69-2.69a2 2 0 0 0 0-2.827zM2.704 15H1v-1.705l7.337-7.337 1.704 1.704L2.705 15z"/></svg>