<?xml version="1.0" encoding="utf-8"?><!DOCTYPE svg PUBLIC "-//W3C//DTD SVG 1.1//EN" "http://www.w3.org/Graphics/SVG/1.1/DTD/svg11.dtd"><svg xmlns="http://www.w3.org/2000/svg" width="16" height="16" viewBox="0 0 16 16"><path d="M6 8a2 2 0 1 1 4 0 2 2 0 0 1-4 0zm4.38-4.398a5 5 0 0 1 0 8.796c.69-1.096 1.12-2.66 1.12-4.398s-.43-3.302-1.12-4.398zM4.5 8c0 1.738.43 3.302 1.12 4.398a5 5 0 0 1 0-8.796C4.93 4.698 4.5 6.262 4.5 8zm-3 0c0 2.686.85 5.097 2.198 6.746C1.475 13.326 0 10.836 0 8s1.474-5.325 3.698-6.746C2.35 2.904 1.5 5.314 1.5 8zm10.802-6.746C14.525 2.674 16 5.164 16 8s-1.474 5.325-3.698 6.746C13.65 13.096 14.5 10.686 14.5 8s-.85-5.097-2.198-6.746z"/></svg>