<?xml version="1.0" encoding="utf-8"?><!DOCTYPE svg PUBLIC "-//W3C//DTD SVG 1.1//EN" "http://www.w3.org/Graphics/SVG/1.1/DTD/svg11.dtd"><svg xmlns="http://www.w3.org/2000/svg" width="16" height="16" viewBox="0 0 16 16"><path d="M10.785 7.37c-.948-.448-2.156-.538-3.044.095 1.08-.103 2.266.076 3.05.893.75-.86 1.94-1.022 3.015-.933-.898-.596-2.082-.516-3.02-.054zM10.4 9.465c-1.067-.025-2.1.362-2.985.94-1.675-.713-3.793-.58-5.22.608.412-.015.814-.116 1.22-.17 1.488-.147 3.073.222 4.197 1.248a4.52 4.52 0 0 1 1.87-1.56c.986-.477 2.096-.526 3.17-.54-.652-.447-1.48-.53-2.25-.525z"/><path d="M14.34 3.58c-.346-.474-.83-1.028-1.36-1.56S11.893 1.007 11.42.66C10.616.067 10.225 0 10 0H2.25C1.56 0 1 .56 1 1.25v13.5c0 .69.56 1.25 1.25 1.25h11.5c.69 0 1.25-.56 1.25-1.25V5c0-.224-.068-.615-.66-1.42zm-2.07-.85c.48.48.857.91 1.135 1.27H11V1.595c.358.278.79.654 1.27 1.134zM14 14.75c0 .136-.114.25-.25.25H2.25a.253.253 0 0 1-.25-.25V1.25c0-.135.115-.25.25-.25H10v3.5a.5.5 0 0 0 .5.5H14v9.75z"/></svg>