<?xml version="1.0" encoding="utf-8"?><!DOCTYPE svg PUBLIC "-//W3C//DTD SVG 1.1//EN" "http://www.w3.org/Graphics/SVG/1.1/DTD/svg11.dtd"><svg xmlns="http://www.w3.org/2000/svg" width="16" height="16" viewBox="0 0 16 16"><path d="M8 0C3.582 0 0 1.12 0 2.5V4l6 6v5c0 .552.895 1 2 1s2-.448 2-1v-5l6-6V2.5C16 1.12 12.418 0 8 0zM1.475 2.17c.374-.214.9-.417 1.52-.587C4.37 1.207 6.147 1 8 1s3.63.207 5.005.583c.62.17 1.146.372 1.52.586.247.14.38.26.442.33a1.74 1.74 0 0 1-.442.33c-.374.214-.9.417-1.52.587C11.63 3.793 9.853 4 8 4s-3.63-.207-5.005-.583c-.62-.17-1.146-.372-1.52-.586a1.74 1.74 0 0 1-.442-.33c.062-.07.195-.19.442-.33z"/></svg>