<?xml version="1.0" encoding="utf-8"?><!DOCTYPE svg PUBLIC "-//W3C//DTD SVG 1.1//EN" "http://www.w3.org/Graphics/SVG/1.1/DTD/svg11.dtd"><svg xmlns="http://www.w3.org/2000/svg" width="16" height="16" viewBox="0 0 16 16"><path d="M8.894 12.16v-.002.002zM8.916 12.727v-.01a.04.04 0 0 0 0 .01zM8.903 12.442v-.008.008z"/><path d="M15 0H1C.45 0 0 .45 0 1v14c0 .55.45 1 1 1h14c.55 0 1-.45 1-1V1c0-.55-.45-1-1-1zM3 3.5a.5.5 0 0 1 1 0v1a.5.5 0 0 1-1 0v-1zM15 15H9.14a20.425 20.425 0 0 1-.21-1.994v.005a8.55 8.55 0 0 1-6.595-2.09.563.563 0 0 1 .745-.843 7.426 7.426 0 0 0 5.807 1.806c-.034-1.847.107-3.31.11-3.334A.5.5 0 0 0 8.5 8H7.01c.022-.54.08-1.466.234-2.503C7.54 3.517 8.058 1.97 8.748 1h6.25v14z"/><path d="M12.5 5a.5.5 0 0 1-.5-.5v-1a.5.5 0 0 1 1 0v1a.5.5 0 0 1-.5.5zM8.445 13.05zM8 13.063zM8.423 11.925c.012 0 .024 0 .037-.002-.012 0-.024 0-.037.002zM8.204 11.934c.017 0 .034 0 .05-.002-.017 0-.034 0-.05.002zM13.713 10.128a.563.563 0 0 0-.794-.05 7.428 7.428 0 0 1-4.033 1.806c.007.364.02.742.043 1.127a8.552 8.552 0 0 0 4.733-2.09.563.563 0 0 0 .05-.793zM8.93 13.012zM8.68 13.035a11.248 11.248 0 0 0 0 0z"/></svg>