<?xml version="1.0" encoding="utf-8"?><!DOCTYPE svg PUBLIC "-//W3C//DTD SVG 1.1//EN" "http://www.w3.org/Graphics/SVG/1.1/DTD/svg11.dtd"><svg xmlns="http://www.w3.org/2000/svg" width="16" height="16" viewBox="0 0 16 16"><path d="M5.016 16c-1.066-2.22-.498-3.49.32-4.688.898-1.312 1.13-2.61 1.13-2.61s.706.917.423 2.352C8.134 9.667 8.37 7.456 8.18 6.61c2.817 1.968 4.02 6.23 2.4 9.39 8.63-4.882 2.146-12.19 1.017-13.012.375.823.447 2.216-.314 2.893C10 1.003 6.818.003 6.818.003c.376 2.516-1.364 5.268-3.042 7.324-.06-1.003-.122-1.696-.65-2.656-.117 1.823-1.51 3.31-1.888 5.135-.51 2.473.383 4.284 3.777 6.197z"/></svg>