<?xml version="1.0" encoding="iso-8859-1"?><!DOCTYPE svg PUBLIC "-//W3C//DTD SVG 1.1//EN" "http://www.w3.org/Graphics/SVG/1.1/DTD/svg11.dtd"><svg xmlns="http://www.w3.org/2000/svg" width="16" height="16" viewBox="0 0 47 47"><path d="M27.458 12.688c0-1.11-1.628-2.35-3.96-2.35s-3.958 1.238-3.958 2.35c0 1.113 1.626 2.354 3.96 2.354 2.33 0 3.958-1.24 3.958-2.354z"/><path d="M15.93 47h26.24s-7.614-6.12-7.455-12.83c.095-3.74 7.455-8.495 7.417-18.887C42.11 10.06 37.042 1.375 28.44.293c-8.605-1.084-15.046.81-17.86 6.115-2.816 5.303-3.03 9.957-2.813 10.823.218.868 1.137 2.49 1.137 2.49s-4.33 6.654-4.06 7.737c.273 1.083 3.243 1.666 3.243 1.666s.27.753-.275 2.214C7.27 32.8 8.82 34.497 9.285 35.09c.458.593-.65 2.435-.273 3.465.378 1.027 2.167 2.27 4.22 2 2.06-.27 4.7-.757 5.616-.92 2.07 4.87-2.92 7.365-2.92 7.365zm1.043-34.312c0-2.758 2.866-4.92 6.528-4.92 3.66 0 6.527 2.162 6.527 4.92 0 2.432-2.228 4.395-5.26 4.828 0 .032.02.06.02.092v5.1h2.03c.71.002 1.283.573 1.283 1.282a1.28 1.28 0 0 1-1.284 1.285h-2.03v.75h3.42c.71 0 1.286.575 1.286 1.286a1.28 1.28 0 0 1-1.285 1.28l-3.42.002v1.39a1.285 1.285 0 1 1-2.57 0V17.607c0-.032.016-.06.02-.093-3.037-.43-5.264-2.395-5.264-4.826z"/></svg>