<?xml version="1.0" encoding="utf-8"?><!DOCTYPE svg PUBLIC "-//W3C//DTD SVG 1.1//EN" "http://www.w3.org/Graphics/SVG/1.1/DTD/svg11.dtd"><svg xmlns="http://www.w3.org/2000/svg" width="16" height="16" viewBox="0 0 16 16"><path d="M15.698 7.287L8.712.3a1.03 1.03 0 0 0-1.457 0L5.632 1.925l1.22 1.22a1.5 1.5 0 0 1 2 2l2.002 2a1.5 1.5 0 1 1-.707.707l-2-2A1.57 1.57 0 0 1 8 5.915v4.17a1.5 1.5 0 1 1-1 0v-4.17a1.5 1.5 0 0 1-.854-2.06L4.926 2.63.3 7.255a1.032 1.032 0 0 0 0 1.458L7.288 15.7a1.03 1.03 0 0 0 1.457 0l6.953-6.954a1.032 1.032 0 0 0 0-1.458z"/></svg>