<?xml version="1.0" encoding="utf-8"?><!DOCTYPE svg PUBLIC "-//W3C//DTD SVG 1.1//EN" "http://www.w3.org/Graphics/SVG/1.1/DTD/svg11.dtd"><svg xmlns="http://www.w3.org/2000/svg" width="16" height="16" viewBox="0 0 16 16"><path d="M14.5 0h-13C.675 0 0 .675 0 1.5v13c0 .825.675 1.5 1.5 1.5h13c.825 0 1.5-.675 1.5-1.5v-13c0-.825-.675-1.5-1.5-1.5zM6 12c-2.212 0-4-1.787-4-4s1.788-4 4-4a3.83 3.83 0 0 1 2.68 1.047L7.594 6.09c-.297-.283-.816-.615-1.594-.615-1.367 0-2.482 1.13-2.482 2.525s1.116 2.525 2.48 2.525c1.585 0 2.18-1.137 2.27-1.725h-2.27V7.428h3.78c.033.2.062.4.062.663C9.84 10.38 8.31 12 6 12zm8-4h-1v1h-1V8h-1V7h1V6h1v1h1v1z"/></svg>