<?xml version="1.0" encoding="utf-8"?><!DOCTYPE svg PUBLIC "-//W3C//DTD SVG 1.1//EN" "http://www.w3.org/Graphics/SVG/1.1/DTD/svg11.dtd"><svg xmlns="http://www.w3.org/2000/svg" width="16" height="16" viewBox="0 0 16 16"><path d="M8 16A8 8 0 1 0 8 0a8 8 0 0 0 0 16zM8 1.5a6.5 6.5 0 1 1 0 13 6.5 6.5 0 0 1 0-13zM3 8v1c0 2.2 1.8 4 4 4h2c2.2 0 4-1.8 4-4V8H3zm3 3.828a3.008 3.008 0 0 1-1.118-.71A2.978 2.978 0 0 1 4 9h2v2.828zM9 12H7V9h2v3zm2.118-.882a3.008 3.008 0 0 1-1.118.71V9h2c0 .797-.313 1.55-.882 2.118zM3.52 6c.154 0 .284-.11.31-.26.095-.574.588-.99 1.17-.99s1.074.416 1.17.99a.312.312 0 0 0 .617 0A1.815 1.815 0 0 0 5 3.624 1.815 1.815 0 0 0 3.21 5.738c.026.15.157.26.31.26zm6 0c.154 0 .284-.11.31-.26.095-.574.588-.99 1.17-.99s1.074.416 1.17.99a.312.312 0 0 0 .617 0A1.815 1.815 0 0 0 11 3.624 1.815 1.815 0 0 0 9.21 5.738c.026.15.157.26.31.26z"/></svg>