<?xml version="1.0" encoding="utf-8"?><!DOCTYPE svg PUBLIC "-//W3C//DTD SVG 1.1//EN" "http://www.w3.org/Graphics/SVG/1.1/DTD/svg11.dtd"><svg xmlns="http://www.w3.org/2000/svg" width="16" height="16" viewBox="0 0 16 16"><path d="M8 16A8 8 0 1 0 8 0a8 8 0 0 0 0 16zM8 1.5a6.5 6.5 0 1 1 0 13 6.5 6.5 0 0 1 0-13zM4 5a1 1 0 1 1 2 0 1 1 0 0 1-2 0zm6 0a1 1 0 1 1 2 0 1 1 0 0 1-2 0z"/><path d="M10.56 8.44A1.5 1.5 0 1 0 8.5 10.614C9.85 11.842 13 10.585 13 9c-.968.625-1.725.153-2.438-.56z"/><path d="M5.44 8.44A1.5 1.5 0 1 1 7.5 10.614C6.15 11.842 3 10.585 3 9c.968.625 1.725.153 2.438-.56z"/></svg>