<?xml version="1.0" encoding="utf-8"?><!DOCTYPE svg PUBLIC "-//W3C//DTD SVG 1.1//EN" "http://www.w3.org/Graphics/SVG/1.1/DTD/svg11.dtd"><svg xmlns="http://www.w3.org/2000/svg" width="16" height="16" viewBox="0 0 16 16"><path d="M8 0a8 8 0 1 0 0 16A8 8 0 0 0 8 0zm3 4a1 1 0 1 1 0 2 1 1 0 0 1 0-2zM5 4a1 1 0 1 1 0 2 1 1 0 0 1 0-2zm3.497 6.615A1.507 1.507 0 0 1 8 9.5a1.49 1.49 0 0 1-.497 1.115C6.15 11.842 3 10.585 3 9c.97.625 1.726.153 2.44-.56A1.5 1.5 0 0 1 8 9.5a1.5 1.5 0 0 1 2.56-1.06c.712.713 1.47 1.185 2.438.56 0 1.586-3.15 2.842-4.503 1.615z"/></svg>