<?xml version="1.0" encoding="utf-8"?><!DOCTYPE svg PUBLIC "-//W3C//DTD SVG 1.1//EN" "http://www.w3.org/Graphics/SVG/1.1/DTD/svg11.dtd"><svg xmlns="http://www.w3.org/2000/svg" width="16" height="16" viewBox="0 0 16 16"><path d="M15.658 4.91l-1.58-1.58-1.41-1.41L11.09.34c-.386-.386-1.076-.455-1.532-.15l-4.32 2.88a1.162 1.162 0 0 0-.382 1.443l1.1 2.203c.035.067.074.14.116.213L.5 12.5 0 16h3v-1h2v-2h2v-2h2V9.888c.1.06.195.113.283.157l2.203 1.1c.49.246 1.14.073 1.444-.382l2.88-4.32c.304-.455.236-1.145-.152-1.532zM2.354 13.354l-.707-.707L6.515 7.78l.707.706-4.868 4.868zM14.328 6.62l-.707.708a.502.502 0 0 1-.706 0L8.67 3.085a.502.502 0 0 1 0-.707l.708-.707a.502.502 0 0 1 .707 0l4.243 4.244a.502.502 0 0 1 0 .707z"/></svg>