<?xml version="1.0" encoding="utf-8"?><!DOCTYPE svg PUBLIC "-//W3C//DTD SVG 1.1//EN" "http://www.w3.org/Graphics/SVG/1.1/DTD/svg11.dtd"><svg xmlns="http://www.w3.org/2000/svg" width="16" height="16" viewBox="0 0 16 16"><path d="M14.5 0h-13C.675 0 0 .675 0 1.5v13c0 .825.675 1.5 1.5 1.5h13c.825 0 1.5-.675 1.5-1.5v-13c0-.825-.675-1.5-1.5-1.5zm-2.834 11.887c-2.775 0-3.737-1.25-4.25-2.806L6.903 7.48C6.52 6.306 6.07 5.394 4.66 5.394c-.98 0-1.973.706-1.973 2.678 0 1.54.784 2.503 1.894 2.503 1.25 0 2.085-.93 2.085-.93l.513 1.393s-.866.85-2.678.85c-2.25 0-3.5-1.313-3.5-3.75 0-2.534 1.25-4.025 3.61-4.025 2.133 0 3.205.77 3.88 2.853l.528 1.603c.384 1.17 1.06 2.02 2.678 2.02 1.09 0 1.67-.24 1.67-.833 0-.466-.273-.803-1.092-.994l-1.09-.256c-1.332-.322-1.86-1.01-1.86-2.1 0-1.747 1.412-2.294 2.853-2.294 1.634 0 2.63.594 2.76 2.038l-1.604.195c-.066-.69-.48-.978-1.25-.978-.706 0-1.137.322-1.137.866 0 .48.21.77.912.93l1.025.226C14.26 7.71 15 8.382 15 9.682c0 1.597-1.348 2.206-3.335 2.206z"/></svg>