<?xml version="1.0" encoding="utf-8"?><!DOCTYPE svg PUBLIC "-//W3C//DTD SVG 1.1//EN" "http://www.w3.org/Graphics/SVG/1.1/DTD/svg11.dtd"><svg xmlns="http://www.w3.org/2000/svg" width="16" height="16" viewBox="0 0 16 16"><path d="M14 0h-4l1 9a3 3 0 0 1-6 0l1-9H2L1 9a7 7 0 0 0 14 0l-1-9zm-1.846 13.154c-1.11 1.11-2.585 1.72-4.154 1.72s-3.045-.61-4.154-1.72a5.834 5.834 0 0 1-1.72-4.095l.564-5.076h1.736l-.55 4.953V9c0 1.1.43 2.137 1.208 2.916S6.9 13.124 8 13.124s2.14-.43 2.918-1.208A4.098 4.098 0 0 0 12.126 9v-.063l-.007-.062-.544-4.89h1.736l.564 5.074a5.838 5.838 0 0 1-1.72 4.094z"/></svg>