<?xml version="1.0" encoding="utf-8"?><!DOCTYPE svg PUBLIC "-//W3C//DTD SVG 1.1//EN" "http://www.w3.org/Graphics/SVG/1.1/DTD/svg11.dtd"><svg xmlns="http://www.w3.org/2000/svg" width="16" height="16" viewBox="0 0 16 16"><path d="M8 0a8 8 0 1 0 0 16A8 8 0 0 0 8 0zM4 4h8c.143 0 .28.03.41.088L8 9.23 3.59 4.09A.982.982 0 0 1 4 4zm-1 7V5c0-.02 0-.042.002-.063l2.932 3.42-2.9 2.9A.967.967 0 0 1 3 11zm9 1H4a1.01 1.01 0 0 1-.258-.034L6.588 9.12 8 10.768 9.415 9.12l2.846 2.846a.967.967 0 0 1-.258.034zm1-1c0 .088-.012.175-.034.258l-2.9-2.9 2.932-3.42L13 5v6z"/></svg>