<?xml version="1.0" encoding="utf-8"?><!DOCTYPE svg PUBLIC "-//W3C//DTD SVG 1.1//EN" "http://www.w3.org/Graphics/SVG/1.1/DTD/svg11.dtd"><svg xmlns="http://www.w3.org/2000/svg" width="16" height="16" viewBox="0 0 16 16"><path d="M15 5h-3V3.5C12 2.12 9.314 1 6 1S0 2.12 0 3.5v10C0 14.88 2.686 16 6 16s6-1.12 6-2.5V12h3a1 1 0 0 0 1-1V6a1 1 0 0 0-1-1zM2.75 4.037c-.577-.19-.927-.394-1.115-.537.188-.143.538-.347 1.116-.537C3.657 2.665 4.81 2.5 6 2.5s2.344.164 3.25.463c.577.19.927.394 1.115.537-.188.143-.538.347-1.116.537-.906.298-2.06.463-3.25.463s-2.344-.164-3.25-.463zM14 10h-2V7h2v3z"/></svg>