<?xml version="1.0" encoding="utf-8"?><!DOCTYPE svg PUBLIC "-//W3C//DTD SVG 1.1//EN" "http://www.w3.org/Graphics/SVG/1.1/DTD/svg11.dtd"><svg xmlns="http://www.w3.org/2000/svg" width="16" height="16" viewBox="0 0 16 16"><path d="M5.482 12.944c-.942-.235-1.466-.984-1.468-2.095 0-.356.025-.526.114-.755.217-.56.793-.982 1.55-1.138.377-.077.493-.16.493-.353 0-.06.046-.24.1-.4.25-.723.71-1.326 1.203-1.572.515-.258.776-.316 1.4-.313.885.004 1.326.196 1.944.845l.34.357.304-.105c1.474-.51 2.943.358 3.062 1.81l.032.396.29.104c.83.297 1.218.92 1.148 1.837-.046.6-.326 1.078-.77 1.315l-.21.11-4.637.01c-3.564.007-4.697-.006-4.893-.055zm-3.87-.663C1.05 12.14.45 11.61.17 11.01.008 10.666 0 10.615 0 10.01c0-.576.014-.668.14-.954a2.14 2.14 0 0 1 1.422-1.21c.136-.036.263-.094.283-.128s.043-.22.05-.415c.045-1.206.794-2.27 1.84-2.61.564-.184 1.305-.202 1.92.058.194.083.172.1.584-.47.243-.338.704-.695 1.107-.91.435-.23.887-.336 1.428-.335 1.512.004 2.815 1.003 3.297 2.53.154.486.146.623-.035.627-.08.002-.306.048-.505.102l-.36.1-.33-.35c-.928-.98-2.44-1.19-3.728-.52a3.156 3.156 0 0 0-1.24 1.152c-.22.357-.505 1.024-.505 1.19 0 .116-.09.175-.475.308-1.19.412-1.883 1.364-1.882 2.582 0 .443.108.986.258 1.296.058.117.09.228.07.247-.045.048-1.524.03-1.73-.02z"/></svg>