<?xml version="1.0" encoding="utf-8"?><!DOCTYPE svg PUBLIC "-//W3C//DTD SVG 1.1//EN" "http://www.w3.org/Graphics/SVG/1.1/DTD/svg11.dtd"><svg xmlns="http://www.w3.org/2000/svg" width="16" height="16" viewBox="0 0 16 16"><path d="M14.53 4.822c-.746 3.316-3.052 5.066-6.687 5.066h-1.21l-.84 5.338H4.78l-.053.344c-.034.228.14.43.37.43h2.587a.625.625 0 0 0 .616-.524l.025-.13.488-3.092.03-.17a.622.622 0 0 1 .617-.524h.384c2.506 0 4.47-1.02 5.044-3.963.216-1.12.134-2.07-.356-2.775z"/><path d="M12.984 1.206C12.244.362 10.904 0 9.19 0H4.218a.71.71 0 0 0-.703.6L1.443 13.73c-.04.26.16.495.422.495h3.072l.772-4.89-.026.152c.053-.347.35-.6.7-.6h1.46c2.865 0 5.108-1.162 5.765-4.53.018-.1.036-.198.05-.292.193-1.244 0-2.094-.676-2.86z"/></svg>