<?xml version="1.0" encoding="utf-8"?><!DOCTYPE svg PUBLIC "-//W3C//DTD SVG 1.1//EN" "http://www.w3.org/Graphics/SVG/1.1/DTD/svg11.dtd"><svg xmlns="http://www.w3.org/2000/svg" width="16" height="16" viewBox="0 0 16 16"><path d="M15.897 9c.125.867.207 2.053-.182 2.507-.643.75-4.714.75-4.714-.75 0-.757.67-1.253.028-2.004-.632-.738-1.766-.75-3.027-.75s-2.393.01-3.026.75C4.33 9.503 5 10 5 10.756c0 1.5-4.07 1.5-4.713.75C-.103 11.054-.02 9.867.105 9c.096-.58.34-1.203 1.118-2C2.39 5.91 4.158 5.02 7.94 5h.125c3.78.02 5.548.91 6.716 2 .78.797 1.023 1.42 1.12 2z"/></svg>