<?xml version="1.0" encoding="utf-8"?><!DOCTYPE svg PUBLIC "-//W3C//DTD SVG 1.1//EN" "http://www.w3.org/Graphics/SVG/1.1/DTD/svg11.dtd"><svg xmlns="http://www.w3.org/2000/svg" width="16" height="16" viewBox="0 0 16 16"><path d="M16 8a8 8 0 1 0-10.786 7.5L5 16h6l-.214-.5A8.002 8.002 0 0 0 16 8zM7.606 9.92a1 1 0 1 1 .788 0L8 9l-.394.92zm.804.038a2 2 0 1 0-.82 0l-1.166 2.72A4.002 4.002 0 0 1 4 9c0-2.208 1.79-4.187 4-4.187S12 6.79 12 9a4 4 0 0 1-2.424 3.678L8.41 9.958zm2.347 5.475l-1.155-2.695A5.002 5.002 0 0 0 8 3a5 5 0 0 0-1.602 9.738l-1.155 2.695A6.997 6.997 0 0 1 1.003 9c0-3.865 3.133-7.185 6.997-7.185S14.997 5.135 14.997 9a7 7 0 0 1-4.24 6.433z"/></svg>