<?xml version="1.0" encoding="utf-8"?><!DOCTYPE svg PUBLIC "-//W3C//DTD SVG 1.1//EN" "http://www.w3.org/Graphics/SVG/1.1/DTD/svg11.dtd"><svg xmlns="http://www.w3.org/2000/svg" width="20" height="16" viewBox="0 0 20 16"><path d="M19.25 0h-6c-.412 0-.99.24-1.28.53L4.53 7.97a.752.752 0 0 0 0 1.06l6.44 6.44a.752.752 0 0 0 1.06 0l7.44-7.44c.292-.292.53-.868.53-1.28v-6a.752.752 0 0 0-.75-.75zM15.5 6a1.5 1.5 0 1 1 0-3 1.5 1.5 0 0 1 0 3z"/><path d="M2 8.5L10.5 0H9.25c-.412 0-.99.24-1.28.53L.53 7.97a.752.752 0 0 0 0 1.06l6.44 6.44a.752.752 0 0 0 1.06 0L8.5 15 2 8.5z"/></svg>