<?xml version="1.0" encoding="utf-8"?><!DOCTYPE svg PUBLIC "-//W3C//DTD SVG 1.1//EN" "http://www.w3.org/Graphics/SVG/1.1/DTD/svg11.dtd"><svg xmlns="http://www.w3.org/2000/svg" width="16" height="16" viewBox="0 0 16 16"><path d="M14.5 0h-13C.675 0 0 .675 0 1.5v13c0 .825.675 1.5 1.5 1.5h13c.825 0 1.5-.675 1.5-1.5v-13c0-.825-.675-1.5-1.5-1.5zM4.36 12.988c-.75 0-1.36-.603-1.36-1.353a1.36 1.36 0 0 1 2.718 0c0 .75-.61 1.352-1.36 1.352zM7.77 13c0-1.278-.497-2.48-1.397-3.38A4.74 4.74 0 0 0 3 8.22V6.262c3.713 0 6.738 3.022 6.738 6.737H7.772zm3.472 0c0-4.547-3.697-8.25-8.24-8.25V2.794c5.624 0 10.202 4.58 10.202 10.206h-1.963z"/></svg>