<?xml version="1.0" encoding="utf-8"?><!DOCTYPE svg PUBLIC "-//W3C//DTD SVG 1.1//EN" "http://www.w3.org/Graphics/SVG/1.1/DTD/svg11.dtd"><svg xmlns="http://www.w3.org/2000/svg" width="16" height="16" viewBox="0 0 16 16"><path d="M14.28 10.62c-1.043-1.628-2.83-2.345-3.993-1.6-.1.063-.193.137-.277.217L8.77 7.295l2.866-4.5c.235-.433.32-.95.207-1.468A2.12 2.12 0 0 0 11.09.12l-.19-.122-3.4 5.314L4.104-.002 3.91.12a2.12 2.12 0 0 0-.545 2.675l2.868 4.5-1.24 1.942a1.834 1.834 0 0 0-.278-.218c-1.163-.745-2.95-.03-3.992 1.6s-.944 3.55.22 4.296c1.162.744 2.95.028 3.99-1.6l2.568-4.03 2.568 4.03c1.042 1.627 2.83 2.344 3.992 1.6s1.26-2.667.22-4.296zM3.67 12.507c-.47.733-1.07 1.09-1.478 1.18-.133.028-.317.046-.443-.034-.14-.09-.232-.324-.248-.63-.025-.493.15-1.075.483-1.593.47-.733 1.07-1.09 1.478-1.18.133-.028.317-.046.443.034.14.09.23.324.247.63.025.494-.15 1.075-.483 1.593zM7.5 8a.5.5 0 1 1 0-1 .5.5 0 0 1 0 1zm5.998 5.023c-.016.305-.108.54-.247.63-.124.08-.31.06-.442.032-.407-.09-1.01-.446-1.478-1.18-.332-.518-.508-1.1-.483-1.593.016-.305.108-.54.247-.63.125-.08.31-.06.443-.032.407.09 1.01.446 1.478 1.18.332.518.508 1.1.483 1.593z"/></svg>