<?xml version="1.0" encoding="utf-8"?><!DOCTYPE svg PUBLIC "-//W3C//DTD SVG 1.1//EN" "http://www.w3.org/Graphics/SVG/1.1/DTD/svg11.dtd"><svg xmlns="http://www.w3.org/2000/svg" width="16" height="16" viewBox="0 0 16 16"><path d="M13.937 8.034c-.283 0-.552.055-.798.154C12.974 6.4 11.415 5 9.513 5c-.465 0-.917.088-1.317.237C8.04 5.295 8 5.354 8 5.47v6.292c0 .12.098.222.22.234L13.94 12c1.14 0 2.062-.89 2.062-1.984s-.924-1.983-2.063-1.983zM6.25 12h.5L7 8.497 6.75 5h-.5L6 8.497zm-1.5 0h-.5L4 9.457 4.25 7h.5L5 9.5zm-2.5 0h.5L3 10l-.25-2h-.5L2 10zm-2-1h.5L1 10 .75 9h-.5L0 10z"/></svg>