<?xml version="1.0" encoding="utf-8"?><!DOCTYPE svg PUBLIC "-//W3C//DTD SVG 1.1//EN" "http://www.w3.org/Graphics/SVG/1.1/DTD/svg11.dtd"><svg xmlns="http://www.w3.org/2000/svg" width="16" height="16" viewBox="0 0 16 16"><path d="M14.5 0h-13C.675 0 0 .675 0 1.5v13c0 .825.675 1.5 1.5 1.5h13c.825 0 1.5-.675 1.5-1.5v-13c0-.825-.675-1.5-1.5-1.5zM2.75 11h-.5L2 9.5 2.25 8h.5L3 9.5 2.75 11zm2 0h-.5L4 9l.25-2h.5L5 9l-.25 2zm2 0h-.5L6 8l.25-3h.5L7 8l-.25 3zm6.144 0l-4.71-.003a.208.208 0 0 1-.183-.2V5.403c0-.1.035-.15.163-.2a3 3 0 0 1 4.075 2.53 1.7 1.7 0 0 1 2.356 1.57 1.7 1.7 0 0 1-1.7 1.697z"/></svg>