<?xml version="1.0" encoding="iso-8859-1"?><svg xmlns="http://www.w3.org/2000/svg" viewBox="0 0 428.948 428.948" width="16" height="16"><g fill="#030104"><path d="M221.988 280.48c9.664 0 17.516-7.89 17.516-17.563 0-9.653-7.852-17.487-17.516-17.487l-79.36-58.37 61.843 76.984c.575 9.164 8.21 16.436 17.518 16.436zM127.008 332.197H301.94v41.513H127.01z"/><path d="M366.13 118.057c-40.51-40.51-94.37-62.818-151.656-62.818-57.288 0-111.148 22.308-151.657 62.817S0 212.425 0 269.713c0 36.99 9.32 72.54 26.816 103.997h40.086l29.32-16.93-12.95-22.427-37.7 21.768c-13.318-25.93-20.842-55.306-20.842-86.407 0-5.504.25-10.95.71-16.338l44.953 7.926 4.497-25.503-45.48-8.02c8.126-35.882 26.45-67.936 51.754-92.947l30.815 36.725 19.838-16.646-31.05-37.003c28.472-21.38 63.13-34.938 100.758-37.485v49.117h25.896V80.42c37.63 2.55 72.286 16.107 100.758 37.486l-31.05 37 19.838 16.647 30.816-36.726c25.303 25.01 43.627 57.065 51.754 92.947l-45.48 8.02 4.498 25.503 44.95-7.927c.46 5.388.71 10.834.71 16.338 0 31.104-7.52 60.48-20.842 86.41l-37.7-21.766-12.948 22.427 29.318 16.928h40.088c17.498-31.458 26.816-67.007 26.816-103.997 0-57.286-22.31-111.146-62.818-151.653z"/></g></svg>