<?xml version="1.0" encoding="utf-8"?><!DOCTYPE svg PUBLIC "-//W3C//DTD SVG 1.1//EN" "http://www.w3.org/Graphics/SVG/1.1/DTD/svg11.dtd"><svg xmlns="http://www.w3.org/2000/svg" width="16" height="16" viewBox="0 0 16 16"><path d="M8 4.736a.933.933 0 0 1-.933-.933V1.005a.933.933 0 0 1 1.866 0v2.798A.933.933 0 0 1 8 4.736zM8 15.577a.583.583 0 0 1-.583-.583v-2.798a.583.583 0 0 1 1.166 0v2.798c0 .322-.26.583-.583.583zM5.902 5.24a.875.875 0 0 1-.758-.437l-1.4-2.423a.874.874 0 0 1 1.515-.874L6.657 3.93a.874.874 0 0 1-.756 1.31zM11.498 14.582a.525.525 0 0 1-.455-.262l-1.4-2.423a.525.525 0 0 1 .91-.525l1.4 2.423a.525.525 0 0 1-.455.787zM4.365 6.718a.813.813 0 0 1-.407-.11L1.535 5.21a.817.817 0 0 1 .816-1.414l2.424 1.4a.817.817 0 0 1-.408 1.522zM14.057 11.964a.46.46 0 0 1-.233-.063L11.4 10.503a.467.467 0 0 1 .467-.808l2.423 1.4a.467.467 0 0 1-.233.87zM3.803 8.758H1.005a.758.758 0 0 1 0-1.516h2.798a.758.758 0 0 1 0 1.516zM14.995 8.466h-2.798a.466.466 0 0 1 0-.932h2.798a.466.466 0 0 1 0 .932zM1.943 12.197a.698.698 0 0 1-.35-1.305l2.423-1.4a.698.698 0 0 1 .7 1.212l-2.424 1.4a.69.69 0 0 1-.35.093zM11.635 6.368a.466.466 0 0 1-.233-.87l2.423-1.4a.466.466 0 0 1 .466.81L11.87 6.305a.47.47 0 0 1-.233.063zM4.502 14.7a.64.64 0 0 1-.555-.963l1.4-2.423a.64.64 0 0 1 1.11.64l-1.4 2.424a.64.64 0 0 1-.555.32zM10.098 4.832a.467.467 0 0 1-.404-.7l1.4-2.424a.467.467 0 0 1 .807.465l-1.398 2.423a.464.464 0 0 1-.404.233z"/></svg>