<?xml version="1.0" encoding="utf-8"?><!DOCTYPE svg PUBLIC "-//W3C//DTD SVG 1.1//EN" "http://www.w3.org/Graphics/SVG/1.1/DTD/svg11.dtd"><svg xmlns="http://www.w3.org/2000/svg" width="16" height="16" viewBox="0 0 16 16"><path d="M0 8.025v.003c.003.06.01.12.022.177l.01.09.012.095.02.128c.012.09.027.19.044.296l.068.326c.01.058.028.117.044.178l.05.188c.008.032.015.065.026.097l.03.098.066.204c.006.017.01.035.017.052l.018.052.04.105.08.215.094.218.048.11c.016.037.035.074.053.112l.11.224c.04.075.08.15.123.224l.063.113c.02.037.044.073.067.11l.14.225c.198.295.417.587.66.864.245.274.51.534.792.774.283.236.58.452.885.642.306.188.62.35.928.487l.232.095c.038.015.076.032.115.046l.115.04c.038.014.15.055.226.08.076.02.15.043.225.065l.11.03.108.027c.036.01.143.035.213.052.07.013.14.026.207.04.034.005.067.012.1.018l.05.01c.016.003.033.004.05.006l.19.027.094.014.09.01.175.014c.056.005.11.01.164.012h.01a1 1 0 0 0 1 .982h.03c.06-.003.12-.01.177-.022l.09-.01.095-.012.128-.02c.09-.012.19-.027.296-.044l.326-.068c.058-.01.117-.028.178-.044l.188-.05c.032-.008.065-.015.097-.026l.1-.03.202-.066c.017-.006.035-.01.052-.017l.052-.02.105-.038c.07-.027.143-.053.216-.08.07-.032.144-.063.218-.095l.11-.048c.037-.016.074-.035.112-.053l.224-.11c.075-.04.15-.082.224-.124l.113-.063c.038-.02.074-.045.112-.068l.223-.14c.295-.197.587-.417.864-.66.275-.245.535-.51.775-.792.236-.284.452-.582.642-.886.188-.306.35-.62.487-.928l.096-.233c.015-.038.032-.076.046-.115l.04-.115c.013-.038.054-.15.078-.226l.066-.223c.01-.037.022-.073.03-.11s.02-.072.028-.108l.052-.214.04-.207.02-.102.008-.05a.858.858 0 0 0 .007-.05l.028-.19c.004-.032.01-.063.013-.094l.01-.09.015-.175c.005-.057.01-.112.012-.166V9a1 1 0 0 0 .997-1v-.026-.003a1.02 1.02 0 0 0-.022-.176l-.01-.09-.012-.095-.02-.13a21.31 21.31 0 0 0-.044-.295l-.068-.326c-.01-.06-.028-.118-.044-.18l-.05-.187c-.008-.032-.015-.065-.026-.097l-.03-.098-.066-.203c-.005-.017-.01-.035-.017-.052l-.02-.052-.038-.104-.08-.215c-.032-.07-.063-.143-.095-.217l-.048-.11c-.016-.037-.035-.074-.053-.112l-.11-.223c-.038-.075-.08-.15-.122-.224l-.063-.113c-.02-.038-.045-.074-.068-.112l-.14-.224a8.307 8.307 0 0 0-.66-.864 8.164 8.164 0 0 0-.792-.775 8.155 8.155 0 0 0-.886-.642 8.024 8.024 0 0 0-.93-.487l-.23-.095c-.04-.014-.077-.03-.116-.045s-.077-.027-.115-.04-.152-.054-.227-.078l-.224-.066-.11-.03c-.036-.01-.073-.018-.11-.027l-.212-.052c-.07-.013-.14-.026-.207-.04l-.1-.018-.05-.01-.048-.006a22.49 22.49 0 0 1-.192-.027l-.093-.014-.09-.01L9.19.993c-.056-.005-.11-.01-.164-.012h-.04a1 1 0 0 0-.998-.982h-.025-.003c-.06.003-.12.01-.177.022l-.09.01L7.6.043l-.128.02c-.09.012-.19.027-.296.044L6.85.174c-.058.01-.117.028-.178.044l-.188.05c-.032.008-.065.015-.097.026l-.098.03-.204.066C6.07.396 6.05.4 6.034.407l-.052.02-.105.038-.215.08c-.07.032-.144.063-.218.095l-.11.048C5.296.704 5.26.723 5.22.74l-.224.11c-.075.04-.15.082-.224.124l-.113.063c-.037.02-.073.045-.11.068l-.225.14a8.448 8.448 0 0 0-.864.66c-.274.245-.534.51-.774.792a8.155 8.155 0 0 0-.642.886c-.188.306-.35.62-.487.928l-.095.233c-.015.038-.032.076-.046.115l-.04.115c-.013.038-.054.15-.078.226l-.066.223-.032.11-.027.108-.052.214c-.013.07-.026.14-.04.207-.005.035-.012.068-.018.102l-.01.05c-.003.016-.004.032-.006.05l-.027.19-.014.094-.01.09-.014.175c-.005.057-.01.112-.012.166V7A1 1 0 0 0 0 8v.025zM1.15 7.01v-.008c.01-.05.027-.102.04-.155s.03-.107.046-.163L1.26 6.6c.01-.028.02-.057.028-.086s.038-.116.058-.176l.015-.045.018-.045.035-.09.073-.187c.028-.06.056-.124.084-.188l.043-.096.048-.096.1-.194c.033-.065.072-.128.108-.194l.056-.098.06-.096.125-.194a7.38 7.38 0 0 1 .582-.744c.217-.236.45-.46.697-.665.25-.202.51-.385.775-.547.268-.16.54-.294.808-.41l.202-.08c.033-.012.066-.026.1-.037l.1-.032c.033-.012.13-.045.195-.065l.194-.054c.032-.01.063-.02.095-.027l.093-.02c.03-.007.123-.03.184-.043.06-.01.12-.02.18-.032l.086-.015.043-.008c.013-.003.03-.003.043-.005l.165-.02.08-.01.078-.006.15-.01c.05-.004.095-.01.142-.01.09 0 .177-.003.256-.005l.2.006.086.002a11.23 11.23 0 0 1 .34.024h.026a1 1 0 0 0 .962-.84c.008 0 .017.003.025.005.05.01.1.026.154.04l.163.045.084.024c.03.01.058.02.087.028s.116.038.176.058l.045.015.045.017.09.035c.03.01.124.047.187.072l.19.084.095.043c.032.014.064.03.096.047l.195.098c.065.034.13.073.194.11l.097.055.096.06.194.125c.255.176.506.37.744.583.237.217.46.45.666.697.202.25.385.51.547.776.16.27.294.542.41.81l.08.2c.012.034.026.067.037.1l.033.1c.01.033.045.13.065.196l.054.194c.01.032.02.063.026.095s.014.063.02.094.03.122.043.183l.033.18.015.086.008.042c.003.014.003.03.005.043.008.056.015.112.02.166.004.028.008.054.01.08l.007.08.01.15c.004.048.01.094.01.14 0 .092.003.178.005.257l-.007.2-.002.085a11.23 11.23 0 0 1-.024.34v.026a1 1 0 0 0 .823.96L14.82 9c-.01.052-.025.103-.04.156l-.045.163-.024.083-.027.086c-.01.028-.04.115-.058.175l-.015.045-.017.045-.035.09-.073.187-.084.19-.042.095-.048.096-.098.194c-.034.065-.073.13-.11.194-.017.033-.036.066-.055.1s-.04.063-.06.095l-.125.194a7.38 7.38 0 0 1-.583.743c-.218.236-.452.46-.698.665-.25.202-.51.385-.776.547-.268.16-.54.294-.808.41l-.202.08c-.033.012-.066.026-.1.037l-.1.033c-.033.01-.13.045-.195.065l-.193.054c-.032.01-.063.02-.095.026s-.063.014-.094.02-.123.03-.184.043c-.06.01-.12.02-.18.032l-.086.015-.043.008c-.015.003-.03.003-.043.005l-.166.02-.08.01-.078.006c-.025 0-.102.006-.15.01-.05.003-.095.008-.142.008l-.256.006-.2-.007-.085-.002a11.23 11.23 0 0 1-.34-.024c-.007 0-.015 0-.022.002H7.96a1 1 0 0 0-.96.834c-.05-.01-.102-.025-.154-.04l-.163-.044-.084-.024c-.03-.01-.058-.02-.087-.028s-.116-.04-.176-.058l-.045-.015-.045-.017-.09-.035-.187-.073a17.554 17.554 0 0 0-.19-.084l-.095-.043-.096-.048-.195-.098c-.065-.035-.13-.074-.194-.11l-.097-.056-.096-.06-.194-.125a7.238 7.238 0 0 1-.744-.584 7.422 7.422 0 0 1-.666-.697 7.276 7.276 0 0 1-.547-.777 7.227 7.227 0 0 1-.41-.808l-.08-.202c-.012-.033-.026-.066-.037-.1l-.033-.1c-.01-.033-.045-.13-.065-.195l-.054-.194c-.01-.032-.02-.063-.026-.095s-.014-.064-.02-.095-.03-.123-.043-.184l-.033-.178-.015-.087-.008-.043c-.003-.015-.003-.03-.005-.043a12.365 12.365 0 0 1-.02-.167C2.005 9.306 2 9.28 2 9.253l-.007-.078-.01-.15c-.004-.05-.01-.095-.01-.142a77.64 77.64 0 0 0-.005-.256l.007-.2.002-.085A11.23 11.23 0 0 1 2 8.002V7.98v-.003a1 1 0 0 0-.85-.964z"/></svg>