<?xml version="1.0" encoding="utf-8"?><!DOCTYPE svg PUBLIC "-//W3C//DTD SVG 1.1//EN" "http://www.w3.org/Graphics/SVG/1.1/DTD/svg11.dtd"><svg xmlns="http://www.w3.org/2000/svg" width="16" height="16" viewBox="0 0 16 16"><path d="M6.5 14.5a1.5 1.5 0 1 1 3 0 1.5 1.5 0 0 1-3 0zM0 8a1.5 1.5 0 1 1 3 0 1.5 1.5 0 0 1-3 0zm13 0a1.5 1.5 0 1 1 3 0 1.5 1.5 0 0 1-3 0zM1.904 3.404a1.5 1.5 0 1 1 3 0 1.5 1.5 0 0 1-3 0zm9.192 9.192a1.5 1.5 0 1 1 3 0 1.5 1.5 0 0 1-3 0zm-9.192 0a1.5 1.5 0 1 1 3 0 1.5 1.5 0 0 1-3 0zm9.192-9.192a1.5 1.5 0 1 1 3 0 1.5 1.5 0 0 1-3 0z"/></svg>