<?xml version="1.0" encoding="utf-8"?><!DOCTYPE svg PUBLIC "-//W3C//DTD SVG 1.1//EN" "http://www.w3.org/Graphics/SVG/1.1/DTD/svg11.dtd"><svg xmlns="http://www.w3.org/2000/svg" width="16" height="16" viewBox="0 0 16 16"><path d="M8 16c-2.137 0-4.146-.832-5.657-2.343S0 10.137 0 8c0-1.513.425-2.986 1.228-4.26A8.02 8.02 0 0 1 4.42.843l.673 1.34A6.53 6.53 0 0 0 2.497 4.54 6.48 6.48 0 0 0 1.5 8c0 3.584 2.916 6.5 6.5 6.5s6.5-2.916 6.5-6.5c0-1.23-.345-2.426-.997-3.46a6.515 6.515 0 0 0-2.596-2.355l.672-1.34a8.02 8.02 0 0 1 3.192 2.894A7.98 7.98 0 0 1 16 8c0 2.137-.832 4.146-2.343 5.657S10.137 16 8 16z"/></svg>