<?xml version="1.0" encoding="utf-8"?><!DOCTYPE svg PUBLIC "-//W3C//DTD SVG 1.1//EN" "http://www.w3.org/Graphics/SVG/1.1/DTD/svg11.dtd"><svg xmlns="http://www.w3.org/2000/svg" width="16" height="16" viewBox="0 0 16 16"><path d="M8 5c-.55 0-1 .45-1 1v4c0 1.653-1.347 3-3 3s-3-1.347-3-3V8h2v2c0 .55.45 1 1 1s1-.45 1-1V6c0-1.653 1.347-3 3-3s3 1.347 3 2.78v.97l-1.28.375L9 6.75v-.97C9 5.45 8.55 5 8 5z"/><path d="M15 10c0 1.653-1.347 3-3 3s-3-1.347-3-3.22V7.844l.72.375L11 7.843V9.78c0 .77.45 1.22 1 1.22s1-.45 1-1V8h2v2z"/></svg>