<?xml version="1.0" encoding="utf-8"?><!DOCTYPE svg PUBLIC "-//W3C//DTD SVG 1.1//EN" "http://www.w3.org/Graphics/SVG/1.1/DTD/svg11.dtd"><svg xmlns="http://www.w3.org/2000/svg" width="16" height="16" viewBox="0 0 16 16"><path d="M14.5 6.5c-.444 0-.843.193-1.118.5h-2.968l2.1-2.1A1.5 1.5 0 1 0 11.1 3.487L9 5.587V2.618a1.5 1.5 0 1 0-2 0v2.968l-2.1-2.1A1.5 1.5 0 1 0 3.487 4.9l2.1 2.1H2.618a1.5 1.5 0 1 0 0 2h2.968l-2.1 2.1A1.5 1.5 0 1 0 4.9 12.513l2.1-2.1v2.968a1.5 1.5 0 1 0 2 0v-2.968l2.1 2.1a1.5 1.5 0 1 0 1.414-1.414l-2.1-2.1h2.968A1.5 1.5 0 1 0 14.5 6.5z"/></svg>