<?xml version="1.0" encoding="utf-8"?><!DOCTYPE svg PUBLIC "-//W3C//DTD SVG 1.1//EN" "http://www.w3.org/Graphics/SVG/1.1/DTD/svg11.dtd"><svg xmlns="http://www.w3.org/2000/svg" width="16" height="16" viewBox="0 0 16 16"><path d="M16 7h-1.577A6.516 6.516 0 0 0 9 1.577V0H7v1.577A6.516 6.516 0 0 0 1.577 7H0v2h1.577A6.516 6.516 0 0 0 7 14.423V16h2v-1.577A6.516 6.516 0 0 0 14.423 9H16V7zm-3.612 0h-1.56A3.008 3.008 0 0 0 9 5.17V3.613A4.516 4.516 0 0 1 12.388 7zM8 9a1 1 0 1 1 0-2 1 1 0 0 1 0 2zM7 3.612v1.56c-.852.3-1.528.976-1.83 1.828H3.613A4.516 4.516 0 0 1 7 3.612zM3.612 9h1.56c.3.852.976 1.528 1.828 1.83v1.558A4.516 4.516 0 0 1 3.612 9zM9 12.388v-1.56A3.008 3.008 0 0 0 10.83 9h1.558A4.516 4.516 0 0 1 9 12.388z"/></svg>