<?xml version="1.0" encoding="utf-8"?><!DOCTYPE svg PUBLIC "-//W3C//DTD SVG 1.1//EN" "http://www.w3.org/Graphics/SVG/1.1/DTD/svg11.dtd"><svg xmlns="http://www.w3.org/2000/svg" width="16" height="16" viewBox="0 0 16 16"><path d="M9 7v3.66c0 .927-.01 1.462.087 1.726.098.262.342.534.61.69.353.213.757.32 1.213.32.81 0 1.29-.108 2.09-.634v2.405a9.09 9.09 0 0 1-1.833.64A7.93 7.93 0 0 1 9.37 16a4.9 4.9 0 0 1-1.726-.276 4.195 4.195 0 0 1-1.438-.79c-.398-.343-.672-.706-.826-1.09s-.23-.945-.23-1.677v-5.61H3.003V4.29c.628-.204 1.33-.497 1.778-.877.45-.382.81-.84 1.08-1.374.273-.535.46-1.215.562-2.04h2.58v4H13v3H9z"/></svg>