<?xml version="1.0" encoding="utf-8"?><!DOCTYPE svg PUBLIC "-//W3C//DTD SVG 1.1//EN" "http://www.w3.org/Graphics/SVG/1.1/DTD/svg11.dtd"><svg xmlns="http://www.w3.org/2000/svg" width="16" height="16" viewBox="0 0 16 16"><path d="M14.5 0h-13C.675 0 0 .675 0 1.5v13c0 .825.675 1.5 1.5 1.5h13c.825 0 1.5-.675 1.5-1.5v-13c0-.825-.675-1.5-1.5-1.5zm-3.066 12.884c-.472.222-.9.378-1.28.47-.382.087-.798.133-1.242.133-.506 0-.803-.063-1.19-.19s-.72-.31-.995-.545c-.275-.238-.463-.488-.57-.753S6 11.35 6 10.842V6.97H4.5V5.41c.433-.14.937-.344 1.243-.606.31-.263.56-.578.744-.947.188-.37.316-.837.388-1.406h1.57V5H11v1.97H8.447v2.832c0 .64-.01 1.01.06 1.19s.237.37.42.476c.245.147.526.22.84.22.558 0 1.115-.182 1.668-.545v1.74z"/></svg>