<?xml version="1.0" encoding="utf-8"?><!DOCTYPE svg PUBLIC "-//W3C//DTD SVG 1.1//EN" "http://www.w3.org/Graphics/SVG/1.1/DTD/svg11.dtd"><svg xmlns="http://www.w3.org/2000/svg" width="16" height="16" viewBox="0 0 16 16"><path d="M6 7.25c0 .412-.338.75-.75.75h-1.5A.752.752 0 0 1 3 7.25v-1.5c0-.412.337-.75.75-.75h1.5c.412 0 .75.338.75.75v1.5zM11 7.25c0 .412-.338.75-.75.75h-1.5A.753.753 0 0 1 8 7.25v-1.5c0-.412.338-.75.75-.75h1.5c.412 0 .75.338.75.75v1.5zM6 12.25c0 .412-.338.75-.75.75h-1.5a.752.752 0 0 1-.75-.75v-1.5c0-.412.337-.75.75-.75h1.5c.412 0 .75.338.75.75v1.5zM11 12.25c0 .412-.338.75-.75.75h-1.5a.753.753 0 0 1-.75-.75v-1.5c0-.412.338-.75.75-.75h1.5c.412 0 .75.338.75.75v1.5zM14.25 2.5L16 .75V0h-.75L13.5 1.75 11.75 0H11v.75l1.75 1.75L11 4.25V5h.75l1.75-1.75L15.25 5H16v-.75zM0 12h1v2H0v-2zM0 9h1v2H0V9zM13 7h1v2h-1V7zM13 13h1v2h-1v-2zM13 10h1v2h-1v-2zM0 6h1v2H0V6zM0 3h1v2H0V3zM8 2h2v1H8V2zM5 2h2v1H5V2zM2 2h2v1H2V2zM7 15h2v1H7v-1zM10 15h2v1h-2v-1zM4 15h2v1H4v-1zM1 15h2v1H1v-1z"/></svg>