<?xml version="1.0" encoding="utf-8"?><!DOCTYPE svg PUBLIC "-//W3C//DTD SVG 1.1//EN" "http://www.w3.org/Graphics/SVG/1.1/DTD/svg11.dtd"><svg xmlns="http://www.w3.org/2000/svg" width="18" height="16" viewBox="0 0 18 16"><path d="M12 12.04v-.824c1.102-.62 2-2.168 2-3.716C14 5.015 14 3 11 3S8 5.015 8 7.5c0 1.548.898 3.095 2 3.716v.825c-3.392.278-6 1.945-6 3.96h14c0-2.015-2.608-3.682-6-3.96z"/><path d="M5.112 12.427c.864-.565 1.94-.994 3.122-1.256a5.667 5.667 0 0 1-.633-.92 5.726 5.726 0 0 1-.725-2.75c0-1.343 0-2.613.478-3.652.464-1.008 1.3-1.633 2.488-1.867C9.578.787 8.874 0 7 0 4 0 4 2.017 4 4.5c0 1.55.898 3.096 2 3.717v.825c-3.392.277-6 1.944-6 3.96h4.36c.226-.203.477-.394.752-.574z"/></svg>