<?xml version="1.0" encoding="utf-8"?><!DOCTYPE svg PUBLIC "-//W3C//DTD SVG 1.1//EN" "http://www.w3.org/Graphics/SVG/1.1/DTD/svg11.dtd"><svg xmlns="http://www.w3.org/2000/svg" width="16" height="16" viewBox="0 0 16 16"><path d="M14.5 0h-13C.675 0 0 .675 0 1.5v13c0 .825.675 1.5 1.5 1.5h13c.825 0 1.5-.675 1.5-1.5v-13c0-.825-.675-1.5-1.5-1.5zm-1.037 5.313c-.05 1.125-.838 2.666-2.36 4.622C9.534 11.98 8.202 13 7.114 13c-.675 0-1.244-.62-1.71-1.865-.312-1.14-.62-2.28-.933-3.422-.344-1.244-.716-1.866-1.112-1.866-.087 0-.39.18-.906.544l-.544-.7c.572-.5 1.134-1.002 1.687-1.502.763-.656 1.33-1.003 1.712-1.038.9-.087 1.453.528 1.662 1.844.224 1.422.38 2.303.468 2.65.26 1.178.544 1.766.856 1.766.24 0 .606-.38 1.09-1.147s.745-1.347.78-1.747c.068-.66-.192-.99-.78-.99-.277 0-.562.062-.855.19.568-1.86 1.652-2.766 3.255-2.712 1.188.034 1.747.803 1.678 2.31z"/></svg>