<?xml version="1.0" encoding="utf-8"?><!DOCTYPE svg PUBLIC "-//W3C//DTD SVG 1.1//EN" "http://www.w3.org/Graphics/SVG/1.1/DTD/svg11.dtd"><svg xmlns="http://www.w3.org/2000/svg" width="16" height="16" viewBox="0 0 16 16"><path d="M8 1.45l6.705 13.363H1.295L8.002 1.45zM8 0c-.345 0-.69.233-.95.698L.22 14.308C-.303 15.24.142 16 1.21 16H14.79c1.067 0 1.512-.76.99-1.69L8.95.697C8.69.233 8.346 0 8.002 0z"/><path d="M9 13a1 1 0 1 1-2 0 1 1 0 0 1 2 0zM8 11a1 1 0 0 1-1-1V7a1 1 0 0 1 2 0v3a1 1 0 0 1-1 1z"/></svg>