<?xml version="1.0" encoding="utf-8"?><!DOCTYPE svg PUBLIC "-//W3C//DTD SVG 1.1//EN" "http://www.w3.org/Graphics/SVG/1.1/DTD/svg11.dtd"><svg xmlns="http://www.w3.org/2000/svg" width="16" height="16" viewBox="0 0 16 16"><path d="M13.64 2.325A7.87 7.87 0 0 0 8.033 0C3.662 0 .107 3.556.107 7.928a7.92 7.92 0 0 0 1.06 3.963L.04 16l4.204-1.103a7.93 7.93 0 0 0 3.787.966h.004c4.37 0 7.928-3.556 7.928-7.928 0-2.12-.825-4.11-2.322-5.61zm-5.606 12.2a6.583 6.583 0 0 1-3.356-.92l-.24-.143-2.495.653.666-2.43-.157-.25a6.537 6.537 0 0 1-1.01-3.507 6.6 6.6 0 0 1 6.595-6.59c1.76 0 3.416.687 4.66 1.93a6.554 6.554 0 0 1 1.927 4.662c-.003 3.637-2.96 6.594-6.59 6.594zm3.613-4.937c-.197-.1-1.172-.578-1.353-.644s-.313-.1-.447.1c-.13.197-.512.644-.628.778-.117.13-.232.15-.43.05s-.837-.31-1.593-.984c-.588-.525-.987-1.175-1.103-1.372s-.013-.306.088-.403c.09-.088.197-.23.297-.347s.13-.197.196-.33c.066-.132.034-.248-.016-.348s-.447-1.075-.61-1.472c-.158-.388-.324-.334-.446-.34-.116-.007-.247-.007-.378-.007s-.347.05-.528.246c-.18.197-.694.678-.694 1.653s.71 1.915.81 2.05c.1.13 1.396 2.133 3.383 2.99.472.203.84.325 1.128.42.475.15.906.127 1.247.077.38-.056 1.172-.478 1.338-.94s.166-.86.116-.942c-.047-.088-.178-.137-.378-.238z"/></svg>