<?xml version="1.0" encoding="utf-8"?><!DOCTYPE svg PUBLIC "-//W3C//DTD SVG 1.1//EN" "http://www.w3.org/Graphics/SVG/1.1/DTD/svg11.dtd"><svg xmlns="http://www.w3.org/2000/svg" width="16" height="16" viewBox="0 0 16 16"><path d="M15.106 3.65a.24.24 0 0 1-.047.14c-.032.042-.067.064-.107.064-.313.03-.57.13-.766.3-.2.17-.403.497-.613.975L10.35 12.4c-.023.07-.082.1-.18.1a.205.205 0 0 1-.177-.1l-1.81-3.78-2.08 3.78c-.044.07-.1.1-.178.1-.094 0-.153-.033-.184-.1L2.576 5.133c-.197-.45-.406-.766-.625-.944s-.525-.29-.916-.33c-.034 0-.066-.02-.094-.054a.173.173 0 0 1-.044-.122c0-.12.034-.178.1-.178.28 0 .578.013.888.038.288.025.556.038.81.038.255 0 .562-.013.912-.038.366-.025.69-.038.975-.038.07 0 .1.06.1.178s-.02.175-.062.175c-.28.022-.506.094-.67.216s-.243.28-.243.48c0 .1.034.23.1.38l2.616 5.91L7.91 8.04 6.524 5.135c-.25-.52-.453-.853-.612-1.003s-.403-.24-.728-.275c-.03 0-.056-.02-.084-.053s-.04-.075-.04-.122c0-.12.027-.178.087-.178.28 0 .54.013.778.038.228.025.47.038.728.038.253 0 .52-.013.803-.038.29-.025.578-.038.86-.038.068 0 .1.06.1.178s-.02.175-.064.175c-.566.038-.847.2-.847.48 0 .126.066.323.197.59l.916 1.858.912-1.7c.125-.24.19-.444.19-.606 0-.39-.28-.595-.846-.62-.05 0-.075-.06-.075-.175 0-.044.01-.08.036-.12s.05-.055.075-.055c.204 0 .45.013.748.038.28.025.516.038.697.038.13 0 .322-.013.575-.03.32-.03.588-.045.803-.045.05 0 .075.05.075.15 0 .135-.047.204-.137.204-.327.034-.593.125-.793.272s-.45.48-.75 1.006L8.905 7.38l1.644 3.35 2.427-5.648a1.52 1.52 0 0 0 .125-.57c0-.41-.28-.63-.847-.658-.05 0-.075-.06-.075-.175 0-.12.037-.18.113-.18.206 0 .45.014.734.04.262.024.48.037.656.037.188 0 .4-.013.644-.038.253-.026.48-.04.684-.04.064 0 .095.05.095.15z"/></svg>