<?xml version="1.0" encoding="UTF-8" standalone="no"?>
<!-- Generated by IcoMoon.io -->

<svg
   xmlns:dc="http://purl.org/dc/elements/1.1/"
   xmlns:cc="http://creativecommons.org/ns#"
   xmlns:rdf="http://www.w3.org/1999/02/22-rdf-syntax-ns#"
   xmlns:svg="http://www.w3.org/2000/svg"
   xmlns="http://www.w3.org/2000/svg"
   xmlns:sodipodi="http://sodipodi.sourceforge.net/DTD/sodipodi-0.dtd"
   xmlns:inkscape="http://www.inkscape.org/namespaces/inkscape"
   version="1.1"
   width="15"
   height="15.001"
   viewBox="0 0 15 15.001"
   id="svg2"
   inkscape:version="0.91 r13725"
   sodipodi:docname="codepen.svg">
  <metadata
     id="metadata10">
    <rdf:RDF>
      <cc:Work
         rdf:about="">
        <dc:format>image/svg+xml</dc:format>
        <dc:type
           rdf:resource="http://purl.org/dc/dcmitype/StillImage" />
        <dc:title></dc:title>
      </cc:Work>
    </rdf:RDF>
  </metadata>
  <defs
     id="defs8" />
  <sodipodi:namedview
     pagecolor="#ffffff"
     bordercolor="#666666"
     borderopacity="1"
     objecttolerance="10"
     gridtolerance="10"
     guidetolerance="10"
     inkscape:pageopacity="0"
     inkscape:pageshadow="2"
     inkscape:window-width="1024"
     inkscape:window-height="537"
     id="namedview6"
     showgrid="false"
     fit-margin-top="0"
     fit-margin-left="0"
     fit-margin-right="0"
     fit-margin-bottom="0"
     inkscape:zoom="21.839147"
     inkscape:cx="8.001"
     inkscape:cy="7.9332034"
     inkscape:window-x="-8"
     inkscape:window-y="-8"
     inkscape:window-maximized="1"
     inkscape:current-layer="svg2" />
  <path
     d="m 14.778,4.751 -7,-4.667 c -0.168,-0.112 -0.387,-0.112 -0.555,0 l -7,4.667 C 0.084,4.844 0,5 0,5.167 l 0,4.667 c 0,0.167 0.084,0.323 0.223,0.416 l 7,4.667 c 0.084,0.056 0.181,0.084 0.277,0.084 0.096,0 0.193,-0.028 0.277,-0.084 l 7,-4.667 C 14.916,10.157 15,10.001 15,9.834 L 15,5.167 C 15,5 14.916,4.844 14.777,4.751 Z M 7.501,9.232 4.902,7.5 7.501,5.768 10.1,7.5 7.501,9.232 Z m 0.5,-4.333 0,-3.465 5.599,3.732 -2.599,1.732 -3,-2 z m -1,0 -3,2 -2.599,-1.732 5.599,-3.732 0,3.465 z M 3.1,7.5 1.001,8.899 1.001,6.101 3.1,7.5 Z m 0.901,0.601 3,2 0,3.465 L 1.402,9.834 4.001,8.102 Z m 4,2 3,-2 2.599,1.732 -5.599,3.732 0,-3.465 z m 3.901,-2.601 2.099,-1.399 0,2.798 L 11.902,7.5 Z"
     id="path4"
     inkscape:connector-curvature="0" />
</svg>
