<svg xmlns="http://www.w3.org/2000/svg" width="32" height="33.138" viewBox="0 0 29.999998 31.066779"><g fill="#039be5"><path d="M3.98 4.582V.006h18.672v4.576z"/><path d="M22.25 0c-3.227 0-6.153 1.797-7.305 4.58h7.004c.087-.007.176-.012.265-.012 1.542 0 2.793 1.155 2.793 2.58-.002 1.32-1.083 2.426-2.504 2.562v.004h-5.442v4.602h5.442v.01l.12-.01h.024v-.002c4.12-.212 7.344-3.356 7.352-7.166C30 3.176 26.55 0 22.25 0zM0 .017v9.695h4.953V.017z"/><g><path d="M3.98 26.485v4.576h18.672v-4.575z"/><path d="M22.25 31.067c-3.227 0-6.153-1.797-7.305-4.582h7.004c.087.01.176.013.265.014 1.542 0 2.793-1.156 2.793-2.58-.002-1.32-1.083-2.427-2.504-2.563v-.004h-5.442V16.75h5.442v-.01l.12.01h.024v.003c4.12.212 7.344 3.355 7.352 7.166 0 3.97-3.45 7.147-7.75 7.147zM0 31.05v-9.695h4.953v9.695z"/></g></g></svg>